<ttFont>
<head>
    <!-- Most of this table will be recalculated by the compiler -->
    <tableVersion value="1.0"/>
    <fontRevision value="1.0"/>
    <checkSumAdjustment value="0x8a1efa18"/>
    <magicNumber value="0x5f0f3cf5"/>
    <flags value="00000000 00001011"/>
    <unitsPerEm value="1000"/>
    <created value="Thu Sep 28 21:07:23 2017"/>
    <modified value="Thu Sep 28 21:07:23 2017"/>
    <xMin value="-1777"/>
    <yMin value="-500"/>
    <xMax value="1192"/>
    <yMax value="1050"/>
    <macStyle value="00000000 00000000"/>
    <lowestRecPPEM value="8"/>
    <fontDirectionHint value="2"/>
    <indexToLocFormat value="0"/>
    <glyphDataFormat value="0"/>
  </head>
          <CharString index="0">
            45 vlineto
            67 10 28 38 0 70 rrcurveto
            60 -25 55 -86 -39 -54 -12 -27 -13 9 -10 15 vhcurveto
            4 0 4 1 5 2 17 8 14 3 21 0 50 0 11 -30 0 -39 0 -53 -19 -20 -72 -4 rrcurveto
            -84 vlineto
            -15 12 -9 13 12 13 9 15 vhcurveto
            return
          </CharString>
          <CharString index="1">
            -21 15 -16 20 20 15 16 21 20 -15 15 -20 -20 -15 -15 -20 vhcurveto
            return
          </CharString>
          <CharString index="2">
            55 -176 90 0 -224 689 -110 0 -225 -689 86 0 55 176 rlineto
            return
          </CharString>
          <CharString index="3">
            114 367 113 -367 rlineto
            return
          </CharString>
          <CharString index="4">
            -198 -105 22 -46 213 79 rlineto
            return
          </CharString>
          <CharString index="5">
            77 0 66 46 8 73 rrcurveto
            -58 13 rlineto
            -14 -40 -32 -27 -47 0 -47 0 -28 27 -15 40 rrcurveto
            -57 -13 rlineto
            7 -73 64 -46 76 0 rrcurveto
            return
          </CharString>
          <CharString index="6">
            -57 0 -135 -107 38 -43 125 81 126 -81 37 43 rlineto
            return
          </CharString>
          <CharString index="7">
            31 23 23 30 32 -23 23 -31 -31 -24 -23 -32 -30 24 -23 31 hvcurveto
            return
          </CharString>
          <CharString index="8">
            31 24 23 30 32 -24 23 -31 -31 -23 -23 -32 -30 23 -23 31 hvcurveto
            return
          </CharString>
          <CharString index="9">
            -46 -72 205 -82 26 46 rlineto
            return
          </CharString>
          <CharString index="10">
            64 -269 -64 vlineto
            return
          </CharString>
          <CharString index="11">
            -65 -46 -46 -57 -57 46 -45 65 65 46 45 57 57 -46 46 -65 hvcurveto
            return
          </CharString>
          <CharString index="12">
            34 20 -21 -35 -36 -20 -21 -34 -33 -21 21 36 35 21 21 33 hvcurveto
            return
          </CharString>
          <CharString index="13">
            43 0 38 26 26 56 rrcurveto
            -54 27 rlineto
            -18 -31 -15 -14 -20 0 -37 0 -23 49 -56 0 -48 0 -35 -37 -23 -48 rrcurveto
            53 -26 rlineto
            16 30 14 16 23 0 36 0 28 -48 52 0 rrcurveto
            return
          </CharString>
          <CharString index="14">
            36 -175 241 0 0 71 -171 0 -52 243 173 0 0 71 -186 0 -51 233 236 0 10 71 -376 0 -202 -689 89 0 49 175 rlineto
            return
          </CharString>
          <CharString index="15">
            93 372 73 -372 rlineto
            return
          </CharString>
          <CharString index="16">
            0 117 -82 39 -77 13 66 15 63 46 0 89 rrcurveto
            135 -123 39 -121 vhcurveto
            -170 -689 186 hlineto
            126 132 46 150 hvcurveto
            return
          </CharString>
          <CharString index="17">
            -80 -46 -34 -81 vhcurveto
            -111 222 103 hlineto
            83 52 -29 -79 hvcurveto
            return
          </CharString>
          <CharString index="18">
            -102 -84 -19 -67 vhcurveto
            -114 252 117 hlineto
            81 67 -26 -105 hvcurveto
            return
          </CharString>
          <CharString index="19">
            -159 -136 -123 -232 -232 131 -124 168 hvcurveto
            98 0 66 34 42 41 rrcurveto
            -45 56 rlineto
            -37 -29 -46 -28 -77 0 rrcurveto
            -118 -91 77 205 210 98 72 112 hvcurveto
            53 0 48 -14 44 -37 rrcurveto
            49 57 rlineto
            -55 43 -55 24 -90 0 rrcurveto
            return
          </CharString>
          <CharString index="20">
            -126 -81 -125 81 -38 -43 135 -108 57 0 134 108 rlineto
            return
          </CharString>
          <CharString index="21">
            -36 -24 -25 -34 -34 24 -25 36 37 24 25 34 34 -24 25 -37 hvcurveto
            return
          </CharString>
          <CharString index="22">
            286 -161 55 -162 vhcurveto
            -147 -689 158 hlineto
            143 169 59 289 hvcurveto
            return
          </CharString>
          <CharString index="23">
            -228 -109 -50 -99 vhcurveto
            -82 548 81 hlineto
            95 114 -30 -240 hvcurveto
            return
          </CharString>
          <CharString index="24">
            -147 -303 -73 -66 73 -320 158 hlineto
            143 169 59 289 286 -161 55 -162 hvcurveto
            return
          </CharString>
          <CharString index="25">
            -82 250 158 66 -158 232 81 hlineto
            95 114 -30 -240 -228 -109 -50 -99 hvcurveto
            return
          </CharString>
          <CharString index="26">
            295 0 10 72 -391 0 0 -689 400 0 0 70 -314 0 0 244 256 0 0 71 -256 0 rlineto
            return
          </CharString>
          <CharString index="27">
            97 0 66 25 62 35 rrcurveto
            328 -232 vlineto
            10 -73 135 0 0 -209 rlineto
            -39 -22 -44 -11 -48 0 rrcurveto
            -120 -63 83 200 212 96 70 100 hvcurveto
            57 0 45 -18 42 -39 rrcurveto
            52 54 rlineto
            -54 50 -52 26 -90 0 rrcurveto
            -149 -140 -118 -237 -238 105 -118 164 hvcurveto
            return
          </CharString>
          <CharString index="28">
            -30 -24 -22 -31 hvcurveto
            0 -18 8 -16 14 -11 rrcurveto
            -29 -117 50 0 51 107 rlineto
            10 23 5 15 0 17 rrcurveto
            30 -24 23 -31 vhcurveto
            return
          </CharString>
          <CharString index="29">
            87 689 -87 -291 -260 291 -87 -689 87 327 260 hlineto
            return
          </CharString>
          <CharString index="30">
            -394 -70 153 -550 -153 -69 394 69 -153 550 153 hlineto
            return
          </CharString>
          <CharString index="31">
            -291 -71 204 -385 hlineto
            -107 -54 -65 -96 vhcurveto
            -40 0 -50 10 -59 37 rrcurveto
            -38 -57 rlineto
            54 -41 67 -22 67 0 rrcurveto
            182 54 126 115 hvcurveto
            return
          </CharString>
          <CharString index="32">
            281 -368 109 0 -288 373 269 316 -101 0 rlineto
            return
          </CharString>
          <CharString index="33">
            390 0 11 77 -315 0 0 612 -86 0 rlineto
            return
          </CharString>
          <CharString index="34">
            -25 -181 48 -7 53 178 rlineto
            return
          </CharString>
          <CharString index="35">
            -122 0 -107 -472 -112 472 -121 0 -39 -689 82 0 18 360 rlineto
            5 86 -1 125 -2 38 rrcurveto
            124 -485 87 0 116 485 rlineto
            0 -34 0 -120 6 -95 rrcurveto
            21 -360 84 0 rlineto
            return
          </CharString>
          <CharString index="36">
            122 689 -81 -345 hlineto
            0 -124 11 -111 1 -28 rrcurveto
            -247 608 -118 0 0 -689 81 0 0 345 rlineto
            0 106 -10 124 -2 30 rrcurveto
            return
          </CharString>
          <CharString index="37">
            212 -86 144 -167 -167 -86 -149 -208 -213 86 -141 167 167 86 146 209 vhcurveto
            return
          </CharString>
          <CharString index="38">
            -184 -47 -98 -116 -113 -50 97 184 183 47 101 116 116 47 -100 -183 vhcurveto
            return
          </CharString>
          <CharString index="39">
            56 -26 97 164 -75 36 rlineto
            return
          </CharString>
          <CharString index="40">
            53 -28 108 163 -74 39 rlineto
            return
          </CharString>
          <CharString index="41">
            38 124 -75 20 -32 -111 rlineto
            -20 5 -22 3 -23 0 -167 0 -86 -149 0 -208 0 -146 41 -112 79 -56 rrcurveto
            -38 -120 75 -19 33 106 rlineto
            20 -4 21 -3 22 0 167 0 86 146 0 209 0 145 -41 113 -78 57 rrcurveto
            return
          </CharString>
          <CharString index="42">
            183 46 101 116 vhcurveto
            18 0 16 -2 14 -4 rrcurveto
            -150 -523 rlineto
            -41 41 -19 77 0 127 rrcurveto
            return
          </CharString>
          <CharString index="43">
            -18 0 -16 2 -14 4 rrcurveto
            150 523 rlineto
            42 -41 18 -78 0 -128 0 -184 -47 -98 -115 0 rrcurveto
            return
          </CharString>
          <CharString index="44">
            144 -101 68 -165 vhcurveto
            -175 -689 86 256 89 hlineto
            155 111 60 161 hvcurveto
            return
          </CharString>
          <CharString index="45">
            -118 -70 -33 -95 vhcurveto
            -97 295 100 hlineto
            93 69 -38 -106 hvcurveto
            return
          </CharString>
          <CharString index="46">
            -87 -689 87 128 98 hlineto
            154 110 66 161 149 -98 68 -166 hvcurveto
            -98 hlineto
            return
          </CharString>
          <CharString index="47">
            96 65 -43 -107 -121 -66 -34 -95 hvcurveto
            -109 305 hlineto
            return
          </CharString>
          <CharString index="48">
            212 -87 144 -167 -168 -87 -149 -208 -213 87 -140 158 vhcurveto
            119 0 50 -57 42 -106 rrcurveto
            92 36 rlineto
            -34 101 -51 43 -97 20 106 58 37 113 0 146 rrcurveto
            return
          </CharString>
          <CharString index="49">
            -184 -47 -98 -116 -113 -51 97 184 183 48 101 116 116 47 -100 -183 vhcurveto
            return
          </CharString>
          <CharString index="50">
            128 -89 66 -170 vhcurveto
            -176 -689 86 295 93 hlineto
            189 -295 104 0 -205 305 rlineto
            95 24 73 63 0 103 rrcurveto
            return
          </CharString>
          <CharString index="51">
            -95 -57 -37 -99 vhcurveto
            -101 256 100 hlineto
            106 51 -35 -89 hvcurveto
            return
          </CharString>
          <CharString index="52">
            0 131 -94 45 -108 31 -131 38 -42 30 0 59 0 69 62 33 76 0 58 0 58 -19 49 -43 rrcurveto
            52 56 rlineto
            -58 50 -68 29 -94 0 -132 0 -91 -74 0 -104 0 -109 85 -50 137 -40 118 -34 32 -33 0 -67 0 -87 -76 -41 -84 0 -84 0 -59 29 -48 45 rrcurveto
            -52 -59 rlineto
            58 -56 83 -31 101 0 160 0 92 83 0 119 rrcurveto
            return
          </CharString>
          <CharString index="53">
            208 0 9 75 -519 0 0 -75 215 0 0 -614 87 0 rlineto
            return
          </CharString>
          <CharString index="54">
            -88 -469 hlineto
            -105 -51 -51 -90 -89 -51 51 105 vhcurveto
            469 -87 -466 vlineto
            -139 85 -95 142 139 90 94 140 vhcurveto
            return
          </CharString>
          <CharString index="55">
            -80 0 -82 -594 -79 514 -106 0 -83 -514 -73 594 -87 0 96 -689 117 0 80 520 79 -520 114 0 rlineto
            return
          </CharString>
          <CharString index="56">
            198 -322 -216 -367 93 0 174 311 171 -311 100 0 -219 372 195 317 -93 0 -152 -265 -151 265 rlineto
            return
          </CharString>
          <CharString index="57">
            233 423 -90 0 -185 -346 -183 346 -96 0 233 -424 0 -265 88 0 rlineto
            return
          </CharString>
          <CharString index="58">
            361 542 0 72 -420 0 0 -75 327 0 -363 -544 0 -70 445 0 10 75 rlineto
            return
          </CharString>
          <CharString index="59">
            -105 -162 41 -25 130 143 rlineto
            return
          </CharString>
          <CharString index="60">
            253 vlineto
            104 -66 66 -131 vhcurveto
            -52 0 -56 -10 -65 -23 rrcurveto
            23 -64 rlineto
            54 19 48 8 35 0 rrcurveto
            78 47 -28 -77 hvcurveto
            -43 -78 vlineto
            -159 -87 -61 -108 -98 64 -64 106 hvcurveto
            68 0 59 25 38 49 14 -48 37 -21 45 -6 rrcurveto
            21 60 rlineto
            -30 9 -13 16 0 42 rrcurveto
            return
          </CharString>
          <CharString index="61">
            -69 -32 34 66 68 42 42 116 hvcurveto
            76 -135 hlineto
            -31 -47 -50 -28 -52 0 rrcurveto
            return
          </CharString>
          <CharString index="62">
            -197 -112 26 -45 209 85 rlineto
            return
          </CharString>
          <CharString index="63">
            92 0 50 75 8 61 rrcurveto
            -57 13 rlineto
            -15 -51 -30 -34 -48 0 -47 0 -28 34 -15 51 rrcurveto
            -58 -13 rlineto
            8 -61 49 -75 91 0 rrcurveto
            return
          </CharString>
          <CharString index="64">
            124 91 124 -91 38 41 -134 119 -57 0 -135 -119 rlineto
            return
          </CharString>
          <CharString index="65">
            27 46 -184 119 -46 -72 rlineto
            return
          </CharString>
          <CharString index="66">
            -64 0 -44 -34 -18 -54 -21 53 -38 35 -79 0 -43 0 -48 -13 -44 -21 rrcurveto
            22 -63 rlineto
            44 19 25 8 36 0 rrcurveto
            58 33 -31 -74 hvcurveto
            -43 -46 vlineto
            -140 -74 -59 -110 -98 59 -64 93 hvcurveto
            67 0 40 27 46 62 32 -57 46 -32 70 0 57 0 42 20 41 32 rrcurveto
            -39 58 rlineto
            -34 -26 -27 -14 -38 0 -71 0 -33 54 -9 120 rrcurveto
            269 hlineto
            1 12 1 16 0 18 0 161 -53 98 -119 0 rrcurveto
            return
          </CharString>
          <CharString index="67">
            68 0 23 -59 2 -110 rrcurveto
            -189 hlineto
            8 125 28 44 60 0 rrcurveto
            return
          </CharString>
          <CharString index="68">
            0 -41 4 -39 10 -32 -36 -63 -29 -34 -44 0 rrcurveto
            -45 -29 35 68 64 30 42 97 hvcurveto
            return
          </CharString>
          <CharString index="69">
            -91 -66 59 141 139 65 67 91 hvcurveto
            47 0 44 -16 45 -30 rrcurveto
            41 55 rlineto
            -49 41 -59 21 -68 0 rrcurveto
            -157 -91 -119 -158 -165 90 -107 158 hvcurveto
            61 0 71 24 45 39 rrcurveto
            -40 55 rlineto
            -40 -27 -44 -19 -53 0 rrcurveto
            return
          </CharString>
          <CharString index="70">
            -124 -90 -124 90 -40 -41 135 -119 57 0 134 119 rlineto
            return
          </CharString>
          <CharString index="71">
            -274 vlineto
            -36 41 -45 22 -61 0 rrcurveto
            -129 -77 -117 -158 -164 63 -110 138 hvcurveto
            57 0 53 25 39 55 rrcurveto
            8 -69 74 0 0 739 rlineto
            return
          </CharString>
          <CharString index="72">
            49 0 42 -25 29 -43 rrcurveto
            -262 vlineto
            -29 -44 -41 -40 -60 0 rrcurveto
            -83 -44 70 137 139 50 68 87 hvcurveto
            return
          </CharString>
          <CharString index="73">
            354 hlineto
            1 11 1 16 0 18 rrcurveto
            160 -82 99 -133 -140 -89 -116 -159 -164 87 -110 154 vhcurveto
            65 0 66 23 49 38 rrcurveto
            -39 56 rlineto
            -47 -31 -40 -16 -54 0 -81 0 -68 53 -4 122 rrcurveto
            return
          </CharString>
          <CharString index="74">
            80 0 50 -58 2 -113 rrcurveto
            -274 hlineto
            7 116 57 55 78 0 rrcurveto
            return
          </CharString>
          <CharString index="75">
            -62 -26 -46 -18 -132 0 -125 0 -85 -76 0 -107 0 -68 28 -46 60 -31 -38 -25 -20 -34 0 -33 rrcurveto
            -53 41 -47 92 vhcurveto
            94 hlineto
            67 51 -25 -50 -57 -51 -30 -115 -118 -28 29 62 hvcurveto
            -76 hlineto
            -107 54 -52 168 160 91 57 103 82 -80 61 -106 vhcurveto
            -95 hlineto
            -54 -16 20 25 hvcurveto
            0 19 12 20 15 12 23 -8 21 -3 35 0 125 0 73 75 0 104 0 60 -30 45 -62 28 59 0 51 1 44 14 rrcurveto
            return
          </CharString>
          <CharString index="76">
            78 39 -41 -79 -78 -40 -46 -75 -86 -39 51 72 71 38 50 85 hvcurveto
            return
          </CharString>
          <CharString index="77">
            30 24 22 31 hvcurveto
            0 18 -8 16 -14 11 rrcurveto
            29 117 -50 0 -51 -107 rlineto
            -10 -23 -5 -15 0 -17 rrcurveto
            -30 24 -23 31 vhcurveto
            return
          </CharString>
          <CharString index="78">
            -84 -9 0 -738 84 0 0 384 rlineto
            28 41 54 46 59 0 rrcurveto
            63 29 -27 -63 hvcurveto
            -381 84 382 vlineto
            98 -45 58 -103 vhcurveto
            -63 0 -64 -29 -42 -55 rrcurveto
            return
          </CharString>
          <CharString index="79">
            -63 0 -64 -29 -42 -55 rrcurveto
            143 169 68 -169 82 vlineto
            -84 -9 0 -73 -81 0 0 -68 81 0 0 -597 84 0 0 384 rlineto
            28 41 54 46 59 0 rrcurveto
            63 29 -27 -63 hvcurveto
            -381 84 382 vlineto
            98 -45 58 -103 vhcurveto
            return
          </CharString>
          <CharString index="80">
            -36 -24 -25 -34 -34 24 -25 36 37 25 25 34 34 -25 25 -37 hvcurveto
            return
          </CharString>
          <CharString index="81">
            -241 -67 157 -393 -162 -67 394 67 -148 hlineto
            return
          </CharString>
          <CharString index="82">
            -36 -24 -25 -34 -34 24 -25 36 36 26 25 34 34 -26 25 -36 hvcurveto
            return
          </CharString>
          <CharString index="83">
            -36 -25 -25 -34 -34 25 -25 36 37 24 25 34 34 -24 25 -37 hvcurveto
            return
          </CharString>
          <CharString index="84">
            -303 -67 219 -381 hlineto
            0 -142 -110 -58 -155 -26 rrcurveto
            14 -65 rlineto
            212 36 123 84 0 176 rrcurveto
            return
          </CharString>
          <CharString index="85">
            -108 0 -234 -239 259 -288 111 0 -264 289 rlineto
            return
          </CharString>
          <CharString index="86">
            -246 -67 162 -538 hlineto
            -91 63 -54 93 vhcurveto
            54 0 43 12 28 15 rrcurveto
            -22 61 rlineto
            -29 -11 -28 -7 -31 0 rrcurveto
            -51 -36 19 52 hvcurveto
            return
          </CharString>
          <CharString index="87">
            84 383 hlineto
            28 42 53 46 62 0 rrcurveto
            79 11 -43 -108 hvcurveto
            -320 84 382 vlineto
            98 -45 58 -103 vhcurveto
            -62 0 -70 -31 -42 -54 rrcurveto
            -7 74 -72 0 rlineto
            return
          </CharString>
          <CharString index="88">
            -148 -80 -113 -162 -166 79 -108 148 147 80 113 162 166 -78 108 -148 hvcurveto
            return
          </CharString>
          <CharString index="89">
            90 45 -66 -139 -141 -45 -65 -91 -91 -45 65 140 140 46 66 91 hvcurveto
            return
          </CharString>
          <CharString index="90">
            41 125 -70 21 -38 -121 rlineto
            -16 3 -16 2 -17 0 -148 0 -80 -113 0 -162 0 -115 40 -87 72 -42 rrcurveto
            -42 -129 70 -20 37 124 rlineto
            16 -3 16 -2 18 0 147 0 80 113 0 162 0 114 -39 87 -71 43 rrcurveto
            return
          </CharString>
          <CharString index="91">
            12 0 11 -1 10 -2 rrcurveto
            -118 -381 rlineto
            -34 30 -18 56 0 92 0 140 47 66 90 0 rrcurveto
            return
          </CharString>
          <CharString index="92">
            -12 0 -11 1 -10 2 rrcurveto
            118 380 rlineto
            34 -30 17 -56 0 -91 0 -140 -46 -66 -90 0 rrcurveto
            return
          </CharString>
          <CharString index="93">
            -63 0 -56 -31 -38 -54 rrcurveto
            -7 74 -72 0 0 -739 84 10 0 251 rlineto
            36 -40 46 -20 58 0 rrcurveto
            137 66 115 160 165 -51 109 -140 hvcurveto
            return
          </CharString>
          <CharString index="94">
            83 37 -69 -137 -140 -44 -65 -87 hvcurveto
            -50 0 -43 25 -28 41 rrcurveto
            261 vlineto
            29 42 45 42 58 0 rrcurveto
            return
          </CharString>
          <CharString index="95">
            -84 -10 0 -951 84 10 0 251 rlineto
            36 -40 46 -20 58 0 rrcurveto
            137 66 115 160 165 -51 109 -140 hvcurveto
            -59 0 -54 -27 -39 -50 rrcurveto
            return
          </CharString>
          <CharString index="96">
            -130 -71 -117 -158 -166 53 -108 141 hvcurveto
            58 0 52 23 39 54 rrcurveto
            0 -268 84 -10 0 739 -72 0 -7 -58 rlineto
            -35 44 -49 25 -63 0 rrcurveto
            return
          </CharString>
          <CharString index="97">
            50 0 43 -25 28 -43 rrcurveto
            -262 vlineto
            -29 -44 -44 -37 -58 0 rrcurveto
            -82 -39 67 137 139 44 68 87 hvcurveto
            return
          </CharString>
          <CharString index="98">
            -95 0 -54 -50 -40 -86 rrcurveto
            -16 125 -146 0 0 -65 83 0 0 -397 -83 0 0 -65 274 0 0 65 -107 0 0 222 rlineto
            34 116 58 58 81 0 rrcurveto
            5 -113 68 hlineto
            12 179 rlineto
            -23 6 -22 5 -29 0 rrcurveto
            return
          </CharString>
          <CharString index="99">
            -62 0 -56 23 -41 34 rrcurveto
            -47 -55 rlineto
            45 -39 65 -32 96 0 112 0 109 44 0 113 0 98 -68 36 -103 28 -106 29 -33 16 0 48 0 40 30 29 84 0 68 0 45 -21 39 -27 rrcurveto
            38 58 rlineto
            -45 32 -62 26 -85 0 -119 0 -81 -56 0 -88 0 -92 71 -33 109 -27 112 -28 15 -25 0 -47 0 -51 -49 -33 -81 0 rrcurveto
            return
          </CharString>
          <CharString index="100">
            -33 57 rlineto
            -28 -15 -34 -10 -39 0 rrcurveto
            -72 -29 31 58 hvcurveto
            313 172 vlineto
            11 66 -183 0 0 129 -84 -10 0 -119 -121 0 0 -66 121 0 0 -314 rlineto
            -92 64 -66 113 vhcurveto
            50 0 55 14 37 24 rrcurveto
            return
          </CharString>
          <CharString index="101">
            -84 -383 hlineto
            -98 50 -57 102 vhcurveto
            62 0 65 29 42 53 rrcurveto
            7 -71 72 0 0 527 -84 0 0 -388 rlineto
            -29 -45 -56 -39 -58 0 rrcurveto
            -61 -28 30 68 hvcurveto
            return
          </CharString>
          <CharString index="102">
            91 527 -81 0 -68 -475 -79 408 -99 0 -84 -408 -68 475 -85 0 95 -527 116 0 74 386 69 -386 rlineto
            return
          </CharString>
          <CharString index="103">
            145 226 145 -226 102 0 -194 282 171 245 -97 0 -123 -196 -122 196 -100 0 171 -249 -194 -278 rlineto
            return
          </CharString>
          <CharString index="104">
            -87 0 -149 -463 -151 463 -89 0 183 -527 28 0 rlineto
            -27 -81 -32 -45 -108 -19 rrcurveto
            12 -67 rlineto
            140 15 59 86 37 108 rrcurveto
            return
          </CharString>
          <CharString index="105">
            290 389 0 66 -370 0 0 -74 269 0 -292 -389 0 -64 386 0 10 72 rlineto
            return
          </CharString>
          <CharString index="106">
            -104 -169 41 -25 129 151 rlineto
            return
          </CharString>
          <CharString index="107">
            -408 -689 87 612 312 hlineto
            return
          </CharString>
          <CharString index="108">
            -327 78 327 60 vlineto
            103 -327 86 0 -123 364 108 325 -82 0 -92 -291 -60 0 0 291 -78 0 0 -291 -60 0 -91 291 -83 0 108 -325 -123 -364 rlineto
            84 0 104 327 rlineto
            return
          </CharString>
          <CharString index="109">
            -90 0 -74 -29 -68 -57 rrcurveto
            48 -51 rlineto
            52 40 54 26 76 0 rrcurveto
            85 64 -37 -73 -80 -72 -33 -76 hvcurveto
            -105 0 -10 -73 121 0 rlineto
            92 69 -39 -92 -87 -61 -53 -108 hvcurveto
            -73 0 -63 26 -53 47 rrcurveto
            -54 -49 rlineto
            60 -63 86 -34 97 0 162 0 101 92 0 124 0 106 -80 56 -86 8 78 11 64 49 0 85 0 106 -90 74 -146 0 rrcurveto
            return
          </CharString>
          <CharString index="110">
            114 0 248 606 rlineto
            -7 -62 -7 -90 0 -105 rrcurveto
            -349 86 689 -112 vlineto
            -250 -612 rlineto
            9 76 5 66 0 121 rrcurveto
            349 -86 vlineto
            return
          </CharString>
          <CharString index="111">
            77 0 66 39 8 73 rrcurveto
            -58 13 rlineto
            -15 -44 -31 -16 -47 0 -47 0 -28 16 -15 44 rrcurveto
            -57 -13 rlineto
            8 -73 63 -39 76 0 rrcurveto
            return
          </CharString>
          <CharString index="112">
            221 -326 105 0 -251 364 232 325 -94 0 -212 -290 -81 0 0 290 -86 0 0 -689 86 0 0 326 rlineto
            return
          </CharString>
          <CharString index="113">
            87 689 -434 -689 87 613 260 hlineto
            return
          </CharString>
          <CharString index="114">
            -87 0 -180 -443 -196 443 -91 0 228 -499 37 0 rlineto
            -28 -77 -32 -37 -122 -18 rrcurveto
            13 -69 rlineto
            145 18 55 59 47 114 rrcurveto
            return
          </CharString>
          <CharString index="115">
            -333 vlineto
            -34 -33 -51 -28 -72 0 rrcurveto
            -86 -50 42 93 hvcurveto
            259 -86 -266 vlineto
            -124 80 -80 120 vhcurveto
            73 0 47 19 59 44 rrcurveto
            -282 87 689 vlineto
            return
          </CharString>
          <CharString index="116">
            -88 -689 153 hlineto
            156 90 72 149 137 -80 75 -168 hvcurveto
            -63 hlineto
            return
          </CharString>
          <CharString index="117">
            98 49 -50 -97 -109 -52 -42 -93 hvcurveto
            -74 298 hlineto
            return
          </CharString>
          <CharString index="118">
            -98 0 -69 -40 -52 -45 rrcurveto
            48 -51 rlineto
            41 34 49 31 77 0 109 0 66 -65 9 -173 rrcurveto
            -303 -74 303 hlineto
            -8 -176 -65 -80 -120 0 -65 0 -49 22 -48 43 rrcurveto
            -52 -49 rlineto
            51 -53 77 -35 91 0 rrcurveto
            170 108 124 240 233 -105 114 -165 hvcurveto
            return
          </CharString>
          <CharString index="119">
            89 193 hlineto
            165 14 77 94 0 129 rrcurveto
            259 -89 -254 vlineto
            0 -100 -40 -58 -114 -10 rrcurveto
            422 -87 -423 vlineto
            -117 10 -38 59 0 100 rrcurveto
            254 -89 -259 vlineto
            0 -129 75 -96 168 -13 rrcurveto
            return
          </CharString>
          <CharString index="120">
            106 0 47 -84 7 -159 rrcurveto
            -321 hlineto
            8 159 47 84 106 0 rrcurveto
            return
          </CharString>
          <CharString index="121">
            -109 0 -49 89 -4 167 rrcurveto
            323 hlineto
            -4 -167 -46 -89 -111 0 rrcurveto
            return
          </CharString>
          <CharString index="122">
            28 56 rlineto
            -21 10 -22 8 -29 0 -62 0 -36 -33 -20 -76 rrcurveto
            -125 -491 -158 589 -93 0 204 -689 96 0 154 579 rlineto
            10 37 14 17 26 0 13 0 9 -3 12 -4 rrcurveto
            return
          </CharString>
          <CharString index="123">
            -87 174 -74 -39 108 -163 rlineto
            return
          </CharString>
          <CharString index="124">
            -78 174 -75 -36 97 -164 rlineto
            return
          </CharString>
          <CharString index="125">
            10 174 52 77 77 0 73 0 46 -70 7 -181 rrcurveto
            return
          </CharString>
          <CharString index="126">
            -228 97 -114 155 157 97 135 229 231 -91 116 -167 vhcurveto
            -88 0 -64 -32 -53 -45 rrcurveto
            45 -51 rlineto
            45 33 45 25 67 0 103 0 63 -69 6 -180 rrcurveto
            -415 hlineto
            -1 -18 -1 -20 0 -12 rrcurveto
            return
          </CharString>
          <CharString index="127">
            -106 0 -55 68 -8 181 rrcurveto
            333 hlineto
            -9 -173 -58 -76 -97 0 rrcurveto
            return
          </CharString>
          <CharString index="128">
            456 272 vlineto
            10 71 -366 0 0 -527 rlineto
            return
          </CharString>
          <CharString index="129">
            74 247 54 hlineto
            104 -247 85 0 -122 283 113 244 -83 0 -95 -215 -56 0 0 215 -74 0 0 -215 -56 0 -92 215 -86 0 113 -244 -122 -283 rlineto
            82 0 104 247 57 0 rlineto
            return
          </CharString>
          <CharString index="130">
            -5 -68 106 0 rlineto
            87 47 -28 -58 -59 -49 -38 -96 hvcurveto
            -80 0 -58 23 -49 35 rrcurveto
            -40 -54 rlineto
            49 -40 71 -33 104 0 137 0 102 57 0 111 0 79 -75 44 -61 1 62 18 45 36 0 59 0 96 -94 48 -115 0 -74 0 -79 -24 -53 -40 rrcurveto
            40 -50 rlineto
            49 30 61 16 53 0 rrcurveto
            79 45 -25 -56 -48 -43 -32 -71 hvcurveto
            return
          </CharString>
          <CharString index="131">
            -105 0 -219 -424 rlineto
            0 7 8 88 0 82 rrcurveto
            247 -84 -527 103 vlineto
            222 427 rlineto
            0 -7 -9 -80 0 -94 rrcurveto
            -246 84 vlineto
            return
          </CharString>
          <CharString index="132">
            84 245 103 hlineto
            174 -245 102 0 -205 283 178 244 -95 0 -152 -214 -105 0 0 214 -84 0 rlineto
            return
          </CharString>
          <CharString index="133">
            -84 -237 hlineto
            -32 -37 -62 -23 -50 0 rrcurveto
            -63 -29 28 71 hvcurveto
            198 -84 -208 vlineto
            -98 52 -57 103 vhcurveto
            65 0 60 23 40 36 rrcurveto
            -223 84 vlineto
            return
          </CharString>
          <CharString index="134">
            -80 -527 116 hlineto
            135 89 54 129 121 -85 52 -139 hvcurveto
            -36 hlineto
            return
          </CharString>
          <CharString index="135">
            92 42 -31 -80 -92 -51 -25 -83 hvcurveto
            -39 228 hlineto
            return
          </CharString>
          <CharString index="136">
            -158 -91 -119 -158 -165 90 -107 160 hvcurveto
            57 0 70 20 48 41 rrcurveto
            -39 54 rlineto
            -45 -31 -42 -14 -52 0 -86 0 -66 53 -7 125 rrcurveto
            241 66 -240 hlineto
            13 112 64 55 81 0 51 0 41 -13 46 -32 rrcurveto
            40 55 rlineto
            -50 39 -60 19 -66 0 rrcurveto
            return
          </CharString>
          <CharString index="137">
            -64 0 -70 -21 -48 -40 rrcurveto
            40 -54 rlineto
            44 33 47 14 50 0 87 0 54 -53 10 -114 rrcurveto
            -247 -66 248 hlineto
            -7 -125 -60 -53 -90 0 -51 0 -45 15 -44 33 rrcurveto
            -41 -56 rlineto
            49 -40 68 -22 65 0 rrcurveto
            159 84 112 165 165 -76 107 -162 hvcurveto
            return
          </CharString>
          <CharString index="138">
            -77 hlineto
            36 -114 9 -79 0 -95 rrcurveto
            -106 -16 -75 -61 -59 -15 71 101 vhcurveto
            0 138 -80 -11 0 -126 rlineto
            -90 -15 -83 -60 -60 -16 75 106 vhcurveto
            0 95 5 79 37 114 rrcurveto
            -75 hlineto
            -26 -66 -24 -98 0 -124 0 -161 48 -89 103 0 64 0 43 42 15 74 10 -77 43 -39 69 0 101 0 52 94 0 156 0 124 -26 97 -25 67 rrcurveto
            return
          </CharString>
          <CharString index="139">
            -80 -464 hlineto
            -102 11 -34 43 0 84 rrcurveto
            326 -84 -334 vlineto
            0 -101 65 -87 155 -11 rrcurveto
            0 -206 80 10 0 196 rlineto
            159 14 69 96 0 150 0 104 -10 81 -16 88 rrcurveto
            -85 hlineto
            17 -98 9 -94 0 -73 0 -118 -23 -67 -120 -14 rrcurveto
            return
          </CharString>
          <CharString index="140">
            83 0 45 -58 6 -109 rrcurveto
            -270 hlineto
            6 111 47 56 83 0 rrcurveto
            return
          </CharString>
          <CharString index="141">
            -8 -122 -46 -54 -81 0 -82 0 -44 54 -8 122 rrcurveto
            return
          </CharString>
          <CharString index="142">
            102 0 152 460 rlineto
            10 33 11 12 23 0 11 0 10 -2 10 -4 rrcurveto
            28 56 rlineto
            -23 11 -23 8 -23 0 -63 0 -25 -32 -24 -75 rrcurveto
            -124 -390 -143 450 -92 0 rlineto
            return
          </CharString>
          <CharString index="143">
            7 117 50 55 72 0 77 0 39 -59 2 -113 rrcurveto
            return
          </CharString>
          <CharString index="144">
            -74 0 -59 -24 -48 -38 rrcurveto
            40 -58 rlineto
            45 38 41 11 53 0 91 0 46 -51 7 -123 rrcurveto
            -359 hlineto
            -2 -14 0 -15 0 -17 rrcurveto
            -162 85 -96 136 144 87 103 172 167 -69 107 -164 vhcurveto
            return
          </CharString>
          <CharString index="145">
            -87 -51 59 104 hvcurveto
            8 279 vlineto
            -5 -126 -48 -45 -88 0 rrcurveto
            return
          </CharString>
          <CharString index="146">
            -110 0 -225 -689 559 0 rlineto
            return
          </CharString>
          <CharString index="147">
            -184 -46 -98 -116 -113 -49 97 184 182 46 102 116 116 46 -100 -183 vhcurveto
            return
          </CharString>
          <CharString index="148">
            105 58 -78 -200 hvcurveto
            0 -159 -46 -85 -82 -40 rrcurveto
            -65 207 70 -120 vlineto
            84 46 47 86 0 147 rrcurveto
            224 -99 127 -154 -154 -99 -127 -224 vhcurveto
            0 -147 45 -88 85 -44 rrcurveto
            -119 -70 208 65 hlineto
            -82 40 -47 85 0 159 rrcurveto
            200 57 78 106 vhcurveto
            return
          </CharString>
          <CharString index="149">
            -37 -202 65 -10 71 196 rlineto
            return
          </CharString>
          <CharString index="150">
            20 64 rlineto
            -16 7 -18 4 -22 0 -64 0 -33 -25 -39 -89 rrcurveto
            -106 -244 -164 347 -96 0 213 -424 0 -265 87 0 0 266 144 307 rlineto
            20 42 17 14 27 0 12 0 10 -2 8 -2 rrcurveto
            return
          </CharString>
          <CharString index="151">
            -91 0 -58 -24 -61 -43 rrcurveto
            42 -57 rlineto
            54 37 55 14 52 0 rrcurveto
            123 78 -72 -210 -205 -91 -77 -118 hvcurveto
            -77 0 -46 28 -37 30 rrcurveto
            -45 -57 rlineto
            42 -41 66 -34 98 0 rrcurveto
            168 131 124 232 232 -110 123 -175 hvcurveto
            return
          </CharString>
          <CharString index="152">
            -36 -24 -25 -34 -34 24 -25 36 38 24 25 34 34 -24 25 -38 hvcurveto
            return
          </CharString>
          <CharString index="153">
            -31 -24 -23 -30 hvcurveto
            0 -17 5 -15 10 -23 rrcurveto
            51 -107 50 0 -29 117 rlineto
            14 11 8 16 0 18 rrcurveto
            31 -24 22 -30 vhcurveto
            return
          </CharString>
          <CharString index="154">
            -77 -19 68 -199 57 16 rlineto
            return
          </CharString>
          <CharString index="155">
            -48 -202 57 -16 68 199 rlineto
            return
          </CharString>
          <CharString index="156">
            51 0 19 35 rlineto
            25 43 4 17 0 16 rrcurveto
            30 -23 23 -31 -32 -24 -23 -30 vhcurveto
            0 -21 10 -16 21 -12 rrcurveto
            return
          </CharString>
          <CharString index="157">
            -20 62 rlineto
            22 12 9 16 0 21 rrcurveto
            31 -24 22 -31 -32 -23 -23 -30 vhcurveto
            0 -16 5 -17 24 -43 rrcurveto
            20 -35 rlineto
            return
          </CharString>
          <CharString index="158">
            -99 -16 71 -196 65 10 rlineto
            return
          </CharString>
          <CharString index="159">
            46 0 31 19 20 15 rrcurveto
            -33 45 rlineto
            -18 -11 -14 -6 -25 0 rrcurveto
            -28 -14 14 28 hvcurveto
            45 -75 -47 vlineto
            -62 40 -40 70 vhcurveto
            return
          </CharString>
          <CharString index="160">
            -130 -66 -117 -162 -182 71 -88 120 hvcurveto
            89 0 47 69 27 81 rrcurveto
            9 -56 rlineto
            9 -56 41 -33 42 -7 rrcurveto
            30 71 rlineto
            -30 12 -10 15 -5 25 rrcurveto
            -25 136 51 281 -77 0 -27 -154 rlineto
            -22 124 -55 41 -89 0 rrcurveto
            return
          </CharString>
          <CharString index="161">
            67 0 43 -42 28 -161 -34 -178 -58 -32 -50 0 rrcurveto
            -71 -37 62 140 137 41 74 71 hvcurveto
            return
          </CharString>
          <CharString index="162">
            10 68 -94 0 rlineto
            -72 -44 31 49 56 48 25 80 hvcurveto
            54 0 55 -11 46 -27 rrcurveto
            42 52 rlineto
            -54 38 -80 16 -66 0 -116 0 -96 -48 0 -93 0 -56 37 -43 74 -16 -84 -12 -48 -38 0 -80 0 -105 98 -58 129 0 102 0 83 31 51 39 rrcurveto
            -45 57 rlineto
            -49 -35 -60 -23 -76 0 rrcurveto
            -89 -53 38 59 60 38 26 89 hvcurveto
            return
          </CharString>
          <CharString index="163">
            -62 0 -70 -31 -44 -57 -3 25 -11 45 -10 18 rrcurveto
            -79 -11 rlineto
            12 -43 15 -59 0 -71 rrcurveto
            -354 84 384 vlineto
            27 41 54 46 60 0 rrcurveto
            81 10 -43 -108 hvcurveto
            0 -532 84 10 0 584 rlineto
            98 -45 58 -103 vhcurveto
            return
          </CharString>
          <CharString index="164">
            -315 vlineto
            -96 62 -55 95 vhcurveto
            48 0 53 13 24 14 rrcurveto
            -22 61 rlineto
            -29 -11 -32 -7 -28 0 rrcurveto
            -51 -36 19 52 hvcurveto
            397 -252 vlineto
            -9 -72 rlineto
            return
          </CharString>
          <CharString index="165">
            -84 -385 hlineto
            -30 -42 -46 -37 -63 0 rrcurveto
            -80 -9 63 105 hvcurveto
            296 -84 -739 vlineto
            84 10 0 153 rlineto
            0 21 -4 31 -5 36 26 -37 24 -14 54 0 53 0 57 34 31 51 3 -25 11 -42 10 -18 rrcurveto
            79 12 rlineto
            -12 40 -15 59 0 69 rrcurveto
            return
          </CharString>
          <CharString index="166">
            -140 -73 -92 -175 hvcurveto
            0 -483 84 10 0 251 rlineto
            35 -40 48 -20 57 0 rrcurveto
            139 67 127 148 175 -65 99 -152 hvcurveto
            return
          </CharString>
          <CharString index="167">
            87 41 -68 -139 -133 -46 -72 -87 hvcurveto
            -50 0 -44 24 -28 42 rrcurveto
            132 vlineto
            136 32 78 95 vhcurveto
            return
          </CharString>
          <CharString index="168">
            -86 hlineto
            20 -101 6 -90 0 -73 rrcurveto
            -162 -79 -43 -70 -65 -39 36 75 vhcurveto
            358 -84 -366 vlineto
            -115 78 -57 107 119 118 79 187 vhcurveto
            0 102 -9 82 -16 88 rrcurveto
            return
          </CharString>
          <CharString index="169">
            -36 -202 60 -10 65 195 rlineto
            return
          </CharString>
          <CharString index="170">
            -29 -177 59 -9 59 167 rlineto
            return
          </CharString>
          <CharString index="171">
            -31 -24 -23 -31 -30 24 -24 31 31 23 24 30 31 -23 23 -31 hvcurveto
            return
          </CharString>
          <CharString index="172">
            -31 -23 -23 -31 -30 23 -24 31 31 24 24 30 31 -24 23 -31 hvcurveto
            return
          </CharString>
          <CharString index="173">
            149 98 99 171 170 -91 109 -151 hvcurveto
            -69 0 -49 -15 -59 -41 rrcurveto
            41 -54 rlineto
            42 27 36 12 59 0 rrcurveto
            96 54 -64 -142 -141 -64 -59 -96 hvcurveto
            -55 0 -30 13 -44 25 rrcurveto
            -39 -54 rlineto
            51 -38 51 -18 70 0 rrcurveto
            return
          </CharString>
          <CharString index="174">
            -37 -24 -26 -34 -35 24 -25 37 37 24 25 35 34 -24 26 -37 hvcurveto
            return
          </CharString>
          <CharString index="175">
            -39 -72 209 -85 26 45 rlineto
            return
          </CharString>
          <CharString index="176">
            -53 -50 134 -125 35 33 rlineto
            return
          </CharString>
          <CharString index="177">
            -32 -23 -23 -31 -30 23 -24 32 30 24 24 30 31 -24 23 -30 hvcurveto
            return
          </CharString>
          <CharString index="178">
            -116 -142 35 -33 134 125 rlineto
            return
          </CharString>
          <CharString index="179">
            -30 -24 -23 -31 -30 24 -24 30 31 24 24 30 31 -24 23 -31 hvcurveto
            return
          </CharString>
          <CharString index="180">
            -148 -77 -127 -228 -229 77 -127 148 148 77 127 229 228 -77 127 -148 hvcurveto
            return
          </CharString>
          <CharString index="181">
            -68 0 -54 -27 -44 -65 3 168 62 108 105 0 38 0 35 -10 32 -19 rrcurveto
            33 56 rlineto
            -39 26 -44 15 -54 0 rrcurveto
            -161 -95 -146 -229 -205 62 -131 167 120 97 90 153 147 -90 69 -105 hvcurveto
            return
          </CharString>
          <CharString index="182">
            -98 0 -42 70 -3 156 34 57 51 40 67 0 rrcurveto
            72 50 -38 -113 -106 -44 -66 -87 hvcurveto
            return
          </CharString>
          <CharString index="183">
            73 46 42 78 79 45 -44 -69 vhcurveto
            0 -62 -32 -32 -64 -37 -94 31 -58 19 0 79 rrcurveto
            return
          </CharString>
          <CharString index="184">
            -72 -52 -54 -96 -95 -49 48 78 vhcurveto
            0 86 51 44 56 26 109 -38 76 -25 0 -93 rrcurveto
            return
          </CharString>
          <CharString index="185">
            91 -52 75 -102 -102 -53 -74 -92 -90 53 -77 102 102 52 77 90 vhcurveto
            return
          </CharString>
          <CharString index="186">
            -76 -29 -32 -49 -50 -29 38 70 73 30 33 49 49 29 -29 -77 vhcurveto
            return
          </CharString>
          <CharString index="187">
            71 321 -57 hlineto
            -145 -85 35 -49 96 52 rlineto
            return
          </CharString>
          <CharString index="188">
            62 -48 44 -85 vhcurveto
            -56 0 -52 -24 -40 -46 rrcurveto
            51 -39 rlineto
            30 36 32 12 33 0 37 0 22 -18 0 -30 0 -44 -40 -24 -160 -97 rrcurveto
            -53 277 vlineto
            9 61 -179 0 rlineto
            126 62 43 34 0 64 rrcurveto
            return
          </CharString>
          <CharString index="189">
            -53 0 -49 -14 -47 -38 rrcurveto
            40 -41 rlineto
            34 26 34 12 36 0 rrcurveto
            41 21 -15 -29 -30 -25 -11 -39 hvcurveto
            -35 0 -7 -43 46 0 rlineto
            47 25 -13 -34 -28 -24 -18 -52 hvcurveto
            -38 0 -39 12 -31 28 rrcurveto
            -46 -39 rlineto
            41 -42 57 -16 53 0 98 0 56 41 0 60 0 48 -28 19 -57 9 53 9 18 22 0 36 0 54 -49 35 -81 0 rrcurveto
            return
          </CharString>
          <CharString index="190">
            55 59 -55 86 -67 hlineto
            -6 -86 -97 0 115 191 -61 25 -136 -227 0 -48 179 0 0 -56 73 0 rlineto
            return
          </CharString>
          <CharString index="191">
            69 -49 36 -69 vhcurveto
            -22 0 -27 -6 -21 -9 rrcurveto
            63 165 vlineto
            7 59 -243 0 0 -176 55 0 rlineto
            21 10 27 6 18 0 rrcurveto
            39 23 -16 -36 -37 -24 -20 -47 hvcurveto
            -38 0 -32 12 -27 25 rrcurveto
            -46 -40 rlineto
            41 -40 51 -15 52 0 rrcurveto
            83 63 38 77 hvcurveto
            return
          </CharString>
          <CharString index="192">
            35 48 rlineto
            -35 20 -41 8 -36 0 rrcurveto
            -112 -55 -76 -89 -95 54 -73 105 79 66 45 72 70 -59 31 -61 hvcurveto
            -50 0 -32 -17 -30 -25 3 67 30 31 61 0 31 0 24 -5 23 -12 rrcurveto
            return
          </CharString>
          <CharString index="193">
            36 25 -17 -37 -32 -26 -24 -46 hvcurveto
            -54 0 -19 35 -12 34 33 29 29 12 34 0 rrcurveto
            return
          </CharString>
          <CharString index="194">
            164 280 0 49 -280 0 0 -60 202 0 -156 -239 rlineto
            return
          </CharString>
          <CharString index="195">
            45 -53 38 -88 -81 -59 -36 -49 vhcurveto
            0 -42 22 -21 40 -11 -51 -12 -29 -26 0 -38 rrcurveto
            -58 57 -40 100 98 61 40 60 vhcurveto
            0 42 -31 23 -56 17 40 4 30 19 0 45 rrcurveto
            return
          </CharString>
          <CharString index="196">
            17 21 15 47 48 21 -16 -17 vhcurveto
            0 -22 -19 -9 -35 -11 -61 11 -22 10 0 22 rrcurveto
            return
          </CharString>
          <CharString index="197">
            -23 -32 -19 -53 -55 -27 16 25 vhcurveto
            0 22 21 18 38 11 64 -11 44 -10 0 -29 rrcurveto
            return
          </CharString>
          <CharString index="198">
            19 -56 rlineto
            171 18 82 54 0 123 rrcurveto
            84 -57 53 -99 -81 -71 -41 -71 -69 59 -32 66 vhcurveto
            46 0 29 15 34 18 -24 -59 -59 -22 -115 -15 rrcurveto
            return
          </CharString>
          <CharString index="199">
            -42 -29 13 34 33 31 19 46 hvcurveto
            53 0 29 -26 1 -50 -25 -14 -32 -9 -32 0 rrcurveto
            return
          </CharString>
          <CharString index="200">
            534 256 -29 54 -535 -256 rlineto
            return
          </CharString>
          <CharString index="201">
            84 0 -6 -202 190 68 26 -79 -194 -58 123 -160 -67 -49 -114 168 -114 -168 -67 49 123 160 -194 58 26 79 190 -68 rlineto
            return
          </CharString>
          <CharString index="202">
            426 -880 68 30 -428 882 rlineto
            return
          </CharString>
          <CharString index="203">
            -50 38 -38 50 51 37 38 50 49 -37 39 -51 -50 -38 -39 -49 vhcurveto
            return
          </CharString>
          <CharString index="204">
            70 52 51 70 70 -52 52 -70 -70 -52 -51 -70 -70 52 -52 70 hvcurveto
            return
          </CharString>
          <CharString index="205">
            -45 34 -37 46 47 34 37 45 44 -34 36 -47 -46 -34 -36 -44 vhcurveto
            return
          </CharString>
          <CharString index="206">
            -46 34 -35 46 47 34 35 46 44 -34 37 -47 -46 -34 -37 -44 vhcurveto
            return
          </CharString>
          <CharString index="207">
            -38 29 -30 38 39 29 30 38 37 -29 30 -39 -38 -29 -30 -37 vhcurveto
            return
          </CharString>
          <CharString index="208">
            -94 0 10 -462 75 0 rlineto
            return
          </CharString>
          <CharString index="209">
            -38 -29 -30 -37 -38 29 -29 38 39 28 29 38 37 -28 30 -39 hvcurveto
            return
          </CharString>
          <CharString index="210">
            -38 -29 -30 -38 -37 29 -29 38 37 30 29 37 38 -30 30 -37 hvcurveto
            return
          </CharString>
          <CharString index="211">
            89 66 -80 hlineto
            23 167 -71 0 -23 -167 -146 0 23 167 -71 0 -23 -167 -89 0 0 -66 81 0 -31 -222 -87 0 0 -64 79 0 -22 -170 rlineto
            71 0 23 170 145 0 -22 -170 71 0 21 170 91 0 0 64 -81 0 rlineto
            return
          </CharString>
          <CharString index="212">
            29 222 147 0 -31 -222 rlineto
            return
          </CharString>
          <CharString index="213">
            -80 0 -71 -31 -58 -68 rrcurveto
            59 -45 rlineto
            42 51 53 23 47 0 67 0 51 -33 0 -57 0 -113 -177 1 0 -162 rrcurveto
            -39 84 34 vlineto
            0 147 181 -23 0 160 0 79 -75 76 -123 0 rrcurveto
            return
          </CharString>
          <CharString index="214">
            -46 -34 -36 -44 -45 34 -37 46 47 34 37 45 44 -34 36 -47 hvcurveto
            return
          </CharString>
          <CharString index="215">
            -46 -34 -36 -45 hvcurveto
            0 -27 12 -25 20 -15 rrcurveto
            -48 -198 76 0 82 186 rlineto
            14 32 5 22 0 25 rrcurveto
            45 -35 36 -46 vhcurveto
            return
          </CharString>
          <CharString index="216">
            426 880 -67 32 -427 -882 rlineto
            return
          </CharString>
          <CharString index="217">
            0 107 23 49 56 84 rrcurveto
            -47 27 rlineto
            -60 -80 -43 -64 0 -123 0 -121 43 -64 60 -80 rrcurveto
            47 27 rlineto
            -56 84 -23 49 0 105 rrcurveto
            return
          </CharString>
          <CharString index="218">
            0 -105 -23 -49 -56 -84 rrcurveto
            47 -27 rlineto
            60 80 43 64 0 121 0 123 -43 64 -60 80 rrcurveto
            -47 -27 rlineto
            56 -84 23 -49 0 -107 rrcurveto
            return
          </CharString>
          <CharString index="219">
            -112 0 -104 -34 13 -122 rrcurveto
            21 -192 rlineto
            7 -68 -24 -36 -135 0 rrcurveto
            -68 vlineto
            135 0 24 -37 -7 -69 rrcurveto
            -21 -190 rlineto
            -13 -122 104 -34 112 0 rrcurveto
            67 vlineto
            -73 0 -58 17 6 63 rrcurveto
            20 205 rlineto
            9 88 -32 33 -70 13 69 13 33 37 -9 84 rrcurveto
            -20 205 rlineto
            -6 62 58 18 73 0 rrcurveto
            return
          </CharString>
          <CharString index="220">
            -67 vlineto
            73 0 58 -18 -6 -62 rrcurveto
            -20 -205 rlineto
            -9 -84 34 -37 79 -14 -82 -12 -31 -33 9 -88 rrcurveto
            20 -205 rlineto
            6 -63 -58 -17 -73 0 rrcurveto
            -67 vlineto
            112 0 104 34 -13 122 rrcurveto
            -21 190 rlineto
            -7 69 35 37 124 0 rrcurveto
            68 vlineto
            -123 0 -36 36 7 68 rrcurveto
            21 192 rlineto
            13 122 -104 34 -112 0 rrcurveto
            return
          </CharString>
          <CharString index="221">
            251 71 -171 787 171 72 -251 hlineto
            return
          </CharString>
          <CharString index="222">
            -251 -72 171 -787 -171 -71 251 hlineto
            return
          </CharString>
          <CharString index="223">
            0 210 69 106 144 128 rrcurveto
            -43 46 rlineto
            -163 -133 -95 -129 0 -228 0 -228 95 -129 163 -133 rrcurveto
            43 46 rlineto
            -142 127 -71 108 0 209 rrcurveto
            return
          </CharString>
          <CharString index="224">
            0 -209 -71 -108 -142 -127 rrcurveto
            43 -46 rlineto
            163 133 95 129 0 228 0 228 -95 129 -163 133 rrcurveto
            -43 -46 rlineto
            144 -128 69 -106 0 -210 rrcurveto
            return
          </CharString>
          <CharString index="225">
            -136 207 136 206 -51 32 -176 -208 0 -61 176 -208 rlineto
            return
          </CharString>
          <CharString index="226">
            -136 207 136 206 -51 32 -177 -208 0 -61 177 -208 rlineto
            return
          </CharString>
          <CharString index="227">
            -135 -207 51 -32 176 208 0 61 -176 208 -51 -32 rlineto
            return
          </CharString>
          <CharString index="228">
            -135 -207 51 -32 177 208 0 61 -177 208 -51 -32 rlineto
            return
          </CharString>
          <CharString index="229">
            -134 207 134 207 -50 31 -174 -208 0 -61 174 -208 rlineto
            return
          </CharString>
          <CharString index="230">
            -134 -207 50 -32 174 208 0 61 -174 208 -50 -31 rlineto
            return
          </CharString>
          <CharString index="231">
            11 -261 -244 89 -30 -85 253 -68 -152 -197 75 -52 133 210 148 -216 73 56 -166 199 248 69 -25 84 -246 -88 11 260 rlineto
            return
          </CharString>
          <CharString index="232">
            0 -89 353 -217 -353 -218 0 -90 425 265 0 86 rlineto
            return
          </CharString>
          <CharString index="233">
            -145 0 29 222 147 0 rlineto
            return
          </CharString>
          <CharString index="234">
            -45 35 -37 45 47 35 37 45 45 -35 35 -47 -45 -35 -35 -45 vhcurveto
            return
          </CharString>
          <CharString index="235">
            -553 -72 553 hlineto
            return
          </CharString>
          <CharString index="236">
            -46 35 -35 45 47 35 35 46 44 -35 37 -47 -45 -35 -37 -44 vhcurveto
            return
          </CharString>
          <CharString index="237">
            -63 -54 229 -251 -229 -251 63 -54 271 305 rlineto
            return
          </CharString>
          <CharString index="238">
            -63 54 -271 -305 271 -305 63 54 -229 251 rlineto
            return
          </CharString>
          <CharString index="239">
            -311 0 29 222 313 0 rlineto
            return
          </CharString>
          <CharString index="240">
            -384 -237 0 -87 380 -237 45 61 -353 219 353 217 rlineto
            return
          </CharString>
          <CharString index="241">
            -74 -151 hlineto
            -128 -18 -65 -109 0 -144 0 -151 65 -100 127 -16 rrcurveto
            -147 75 147 vlineto
            42 5 41 15 38 32 rrcurveto
            -41 60 rlineto
            -43 -34 -34 -11 -40 0 rrcurveto
            -86 -53 60 140 139 52 67 87 hvcurveto
            39 0 33 -9 44 -32 rrcurveto
            42 56 rlineto
            -38 31 -41 15 -42 5 rrcurveto
            return
          </CharString>
          <CharString index="242">
            -55 -54 88 -91 rlineto
            -21 -33 -13 -42 0 -48 0 -49 13 -42 22 -35 rrcurveto
            -89 -89 55 -54 89 89 rlineto
            34 -21 42 -11 47 0 46 0 41 11 33 21 rrcurveto
            90 -88 55 54 -88 87 rlineto
            22 35 15 42 0 50 0 48 -14 44 -22 33 rrcurveto
            87 88 -55 54 -89 -89 rlineto
            -32 22 -43 11 -46 0 -47 0 -42 -12 -35 -21 rrcurveto
            return
          </CharString>
          <CharString index="243">
            84 43 -55 -89 -90 -43 -53 -84 -84 -44 53 90 89 44 55 84 hvcurveto
            return
          </CharString>
          <CharString index="244">
            -68 -150 hlineto
            -123 -12 -60 -78 0 -80 0 -93 66 -59 117 -39 rrcurveto
            -276 vlineto
            -66 5 -51 31 -42 42 rrcurveto
            -50 -56 rlineto
            44 -43 71 -45 94 -5 rrcurveto
            -143 68 146 vlineto
            127 17 65 84 0 95 0 123 -92 56 -100 33 rrcurveto
            227 vlineto
            50 -6 44 -22 38 -35 rrcurveto
            51 53 rlineto
            -41 37 -63 35 -79 8 rrcurveto
            return
          </CharString>
          <CharString index="245">
            -203 vlineto
            -73 29 -21 30 0 47 0 57 40 31 54 9 rrcurveto
            return
          </CharString>
          <CharString index="246">
            75 -32 26 -38 0 -56 0 -69 -35 -41 -66 -13 rrcurveto
            return
          </CharString>
          <CharString index="247">
            -69 0 -139 -389 347 0 rlineto
            return
          </CharString>
          <CharString index="248">
            -84 -48 -57 -109 hvcurveto
            0 -299 63 7 0 144 rlineto
            20 -18 26 -8 30 0 rrcurveto
            86 42 78 92 109 -45 61 -90 hvcurveto
            return
          </CharString>
          <CharString index="249">
            -26 0 -22 9 -16 17 rrcurveto
            89 vlineto
            85 13 41 54 44 24 -35 -87 -79 -17 -40 -54 vhcurveto
            return
          </CharString>
          <CharString index="250">
            -123 0 -98 -88 -30 -159 rrcurveto
            -80 0 -15 -59 88 0 -1 -92 -72 0 -15 -60 93 0 rlineto
            24 -163 85 -90 140 0 61 0 49 16 34 19 rrcurveto
            87 vlineto
            -30 -26 -50 -24 -61 0 -98 0 -50 56 -16 125 rrcurveto
            200 0 14 60 -218 0 0 92 238 0 14 59 -245 0 rlineto
            19 125 59 50 88 0 39 0 38 -11 37 -23 rrcurveto
            42 61 rlineto
            -45 30 -46 15 -69 0 rrcurveto
            return
          </CharString>
          <CharString index="251">
            -44 -99 -58 -31 -97 0 rrcurveto
            -64 173 hlineto
            188 87 -25 54 -163 -76 0 74 189 89 -25 54 -164 -76 0 234 -86 0 0 -274 -82 -38 26 -55 56 26 0 -75 -82 -38 rlineto
            24 -53 58 27 0 -209 147 0 rlineto
            151 0 76 66 40 114 rrcurveto
            return
          </CharString>
          <CharString index="252">
            70 hlineto
            156 111 61 163 144 -102 68 -164 hvcurveto
            -158 -370 -75 -66 75 -76 -75 -58 75 -119 87 119 176 58 -176 hlineto
            return
          </CharString>
          <CharString index="253">
            82 hlineto
            93 69 -37 -106 -124 -70 -33 -96 hvcurveto
            -78 hlineto
            return
          </CharString>
          <CharString index="254">
            -437 0 -11 -65 110 0 rlineto
            94 0 49 -27 16 -59 rrcurveto
            -258 -59 264 hlineto
            -3 -95 -55 -34 -95 0 rrcurveto
            -111 -70 111 hlineto
            179 -280 105 0 -197 294 rlineto
            102 26 54 57 4 102 rrcurveto
            79 59 -84 hlineto
            -10 42 -25 32 -40 18 rrcurveto
            159 hlineto
            return
          </CharString>
          <CharString index="255">
            -119 -71 -79 -106 hvcurveto
            -128 -82 -58 82 -128 vlineto
            0 -62 -2 -46 -79 -25 rrcurveto
            -68 432 vlineto
            10 72 -338 0 rlineto
            52 29 10 50 0 54 rrcurveto
            124 206 58 -206 121 vlineto
            80 37 41 71 vhcurveto
            49 0 37 -17 34 -42 rrcurveto
            56 43 rlineto
            -44 62 -63 25 -72 0 rrcurveto
            return
          </CharString>
          <CharString index="256">
            -89 0 -167 -317 -4 0 -166 317 -96 0 193 -344 -116 0 0 -58 140 0 0 -86 -140 0 0 -59 140 0 0 -142 88 0 rlineto
            142 142 59 -142 86 142 58 -119 vlineto
            return
          </CharString>
          <CharString index="257">
            -235 -63 235 hlineto
            return
          </CharString>
          <CharString index="258">
            -388 -72 388 hlineto
            return
          </CharString>
          <CharString index="259">
            -234 -62 234 hlineto
            return
          </CharString>
          <CharString index="260">
            -78 -199 -194 -70 194 -199 78 199 196 70 -196 hlineto
            return
          </CharString>
          <CharString index="261">
            -123 -124 -123 124 -52 -53 123 -123 -123 -123 52 -52 123 123 123 -123 52 52 -123 123 123 123 rlineto
            return
          </CharString>
          <CharString index="262">
            -38 -30 -30 -37 -37 30 -29 38 38 30 29 37 37 -30 30 -38 hvcurveto
            return
          </CharString>
          <CharString index="263">
            -38 -30 -30 -37 -37 30 -30 38 38 30 30 37 37 -30 30 -38 hvcurveto
            return
          </CharString>
          <CharString index="264">
            72 -87 vlineto
            75 127 -46 25 -90 -152 -240 0 0 -72 197 0 -70 -118 -127 0 0 -72 84 0 -75 -125 48 -27 90 152 241 0 0 72 rlineto
            -199 0 70 118 rlineto
            return
          </CharString>
          <CharString index="265">
            -41 -64 353 -217 -353 -218 45 -62 380 237 0 86 rlineto
            return
          </CharString>
          <CharString index="266">
            -34 -70 321 -137 -321 -130 34 -68 353 154 0 90 rlineto
            return
          </CharString>
          <CharString index="267">
            -369 -74 369 hlineto
            return
          </CharString>
          <CharString index="268">
            -352 -161 0 -90 352 -154 35 72 -321 126 321 139 rlineto
            return
          </CharString>
          <CharString index="269">
            -80 -149 -144 -71 144 -155 80 155 144 71 -144 hlineto
            return
          </CharString>
          <CharString index="270">
            -71 0 -40 -49 -20 -39 rrcurveto
            58 -30 rlineto
            16 28 18 23 33 0 41 0 34 -56 79 0 72 0 39 49 20 38 rrcurveto
            -58 30 rlineto
            -16 -27 -18 -23 -33 0 -41 0 -34 56 -79 0 rrcurveto
            return
          </CharString>
          <CharString index="271">
            -71 0 -40 -50 -20 -38 rrcurveto
            58 -30 rlineto
            16 27 18 23 33 0 41 0 34 -55 79 0 72 0 39 48 20 39 rrcurveto
            -58 30 rlineto
            -16 -28 -18 -23 -33 0 -41 0 -34 57 -79 0 rrcurveto
            return
          </CharString>
          <CharString index="272">
            -89 0 -43 -70 -30 -58 rrcurveto
            60 -30 rlineto
            26 48 30 37 43 0 64 0 35 -100 94 0 88 0 44 69 30 57 rrcurveto
            -60 32 rlineto
            -26 -48 -32 -37 -41 0 -61 0 -32 100 -100 0 rrcurveto
            return
          </CharString>
          <CharString index="273">
            -77 0 -42 -58 -35 -72 -39 87 -44 43 -72 0 rrcurveto
            -107 -43 -85 -111 -110 42 -87 112 hvcurveto
            77 0 43 57 33 73 38 -87 46 -43 72 0 rrcurveto
            107 42 85 111 110 -41 87 -112 hvcurveto
            return
          </CharString>
          <CharString index="274">
            62 0 28 -71 22 -48 -27 -68 -28 -69 -57 0 rrcurveto
            -48 -24 41 87 87 24 41 48 hvcurveto
            return
          </CharString>
          <CharString index="275">
            48 24 -42 -86 -87 -25 -41 -47 hvcurveto
            -62 0 -28 71 -22 47 27 69 28 69 57 0 rrcurveto
            return
          </CharString>
          <CharString index="276">
            -91 -57 -47 -99 hvcurveto
            -778 vlineto
            -43 -23 -26 -42 vhcurveto
            -27 0 -22 4 -33 15 rrcurveto
            -28 -63 rlineto
            40 -18 26 -8 50 0 rrcurveto
            87 53 45 93 hvcurveto
            778 vlineto
            49 16 29 56 vhcurveto
            28 0 28 -5 34 -15 rrcurveto
            28 63 rlineto
            -42 19 -32 7 -49 0 rrcurveto
            return
          </CharString>
          <CharString index="277">
            -546 -71 88 -830 hlineto
            84 10 0 820 204 0 0 -830 83 10 0 820 87 0 rlineto
            return
          </CharString>
          <CharString index="278">
            -397 -74 hlineto
            225 -271 -225 -270 0 -74 397 0 0 73 -298 0 197 242 0 62 -197 238 298 0 rlineto
            return
          </CharString>
          <CharString index="279">
            -242 0 -213 -776 -138 391 -73 -24 167 -457 95 0 221 794 183 0 rlineto
            return
          </CharString>
          <CharString index="280">
            -19 -63 rlineto
            169 -46 102 -96 7 -140 -30 44 -50 34 -64 0 rrcurveto
            -105 -85 -88 -132 -138 97 -82 113 131 82 113 157 hvcurveto
            0 259 -105 111 -243 67 rrcurveto
            return
          </CharString>
          <CharString index="281">
            55 0 40 -26 43 -59 rrcurveto
            -24 vlineto
            -1 -132 -48 -64 -82 0 rrcurveto
            -73 -49 60 98 95 51 52 64 hvcurveto
            return
          </CharString>
          <CharString index="282">
            -473 -692 53 -35 473 692 rlineto
            return
          </CharString>
          <CharString index="283">
            -93 -54 -74 -87 -84 54 -77 93 94 53 77 84 87 -53 74 -94 hvcurveto
            return
          </CharString>
          <CharString index="284">
            40 29 -29 -72 -71 -29 -31 -40 -41 -29 38 64 68 30 33 40 hvcurveto
            return
          </CharString>
          <CharString index="285">
            -93 -54 -74 -86 -85 54 -77 93 94 53 77 85 86 -53 74 -94 hvcurveto
            return
          </CharString>
          <CharString index="286">
            40 29 -28 -72 -72 -29 -31 -40 -41 -29 38 65 70 30 30 40 hvcurveto
            return
          </CharString>
          <CharString index="287">
            -75 -56 -52 -83 -85 56 -51 75 73 56 51 85 82 -56 53 -73 hvcurveto
            return
          </CharString>
          <CharString index="288">
            53 10 -42 -42 -45 -10 -43 -53 -53 -10 45 43 43 10 41 53 hvcurveto
            return
          </CharString>
          <CharString index="289">
            -533 -209 26 -57 531 209 rlineto
            return
          </CharString>
          <CharString index="290">
            -75 -55 -52 -83 -85 55 -50 75 74 56 50 85 83 -56 52 -74 hvcurveto
            return
          </CharString>
          <CharString index="291">
            -75 -56 -52 -83 -85 56 -50 75 73 56 50 85 83 -56 52 -73 hvcurveto
            return
          </CharString>
          <CharString index="292">
            54 8 -42 -42 -45 -8 -42 -54 -52 -11 45 42 44 11 40 52 hvcurveto
            return
          </CharString>
          <CharString index="293">
            52 11 -42 -42 -45 -11 -42 -52 -53 -11 45 42 44 11 40 53 hvcurveto
            return
          </CharString>
          <CharString index="294">
            -65 -90 -86 -62 86 -89 65 89 85 62 -85 hlineto
            return
          </CharString>
          <CharString index="295">
            -300 -298 169 0 0 -496 rlineto
            -30 20 -20 30 vhcurveto
            162 hlineto
            30 20 20 30 hvcurveto
            496 169 vlineto
            return
          </CharString>
          <CharString index="296">
            -176 -332 vlineto
            -30 -20 -20 -30 hvcurveto
            -148 vlineto
            -30 20 -20 30 vhcurveto
            332 -176 hlineto
            298 300 rlineto
            return
          </CharString>
          <CharString index="297">
            -162 hlineto
            -30 -20 -20 -30 hvcurveto
            -496 -169 vlineto
            300 -298 300 298 -169 0 0 496 rlineto
            30 -20 20 -30 vhcurveto
            return
          </CharString>
          <CharString index="298">
            -298 -300 298 -300 0 176 332 0 rlineto
            30 20 20 30 hvcurveto
            148 vlineto
            30 -20 20 -30 vhcurveto
            -332 hlineto
            return
          </CharString>
          <CharString index="299">
            -300 -750 300 hlineto
            return
          </CharString>
          <CharString index="300">
            -150 -120 -121 -149 -150 120 -120 150 149 121 120 150 149 -121 121 -149 hvcurveto
            return
          </CharString>
          <CharString index="301">
            104 86 -86 -104 -105 -86 -85 -104 -105 -85 85 105 104 85 86 105 hvcurveto
            return
          </CharString>
          <CharString index="302">
            -61 -49 -50 -60 -61 49 -49 61 60 50 49 61 60 -50 50 -60 hvcurveto
            return
          </CharString>
          <CharString index="303">
            -540 -540 540 hlineto
            return
          </CharString>
          <CharString index="304">
            -270 -270 270 -270 270 270 rlineto
            return
          </CharString>
          <CharString index="305">
            -99 0 -183 -345 183 -344 99 0 184 345 rlineto
            return
          </CharString>
          <CharString index="306">
            142 -280 -142 -279 -4 0 -142 279 142 280 rlineto
            return
          </CharString>
          <CharString index="307">
            -610 -80 610 hlineto
            return
          </CharString>
          <CharString index="308">
            -80 -1500 80 hlineto
            return
          </CharString>
          <CharString index="309">
            -80 -530 -185 -80 265 hlineto
            return
          </CharString>
          <CharString index="310">
            -265 -80 185 -730 80 hlineto
            return
          </CharString>
          <CharString index="311">
            -80 -610 265 80 -185 hlineto
            return
          </CharString>
          <CharString index="312">
            -265 -810 80 730 185 hlineto
            return
          </CharString>
          <CharString index="313">
            -150 -150 150 vlineto
            return
          </CharString>
          <CharString index="314">
            -150 -120 -120 -149 -150 120 -120 150 149 121 120 150 149 -121 120 -149 hvcurveto
            return
          </CharString>
          <CharString index="315">
            118 93 -99 -118 -120 -93 -98 -118 -120 -91 98 120 118 91 99 120 hvcurveto
            return
          </CharString>
          <CharString index="316">
            -28 -20 -20 -25 -27 20 -20 28 28 20 20 27 25 -20 20 -28 hvcurveto
            return
          </CharString>
          <CharString index="317">
            28 20 -20 -25 -27 -20 -20 -28 -28 -20 20 27 25 20 20 28 hvcurveto
            return
          </CharString>
          <CharString index="318">
            64 46 -48 -64 -64 -46 -47 -64 -64 -45 47 64 64 45 48 64 hvcurveto
            return
          </CharString>
          <CharString index="319">
            -104 -85 -56 -90 hvcurveto
            0 -45 22 -36 37 -28 -44 -27 -37 -44 0 -54 0 -79 46 -38 108 -36 101 -33 23 -19 0 -45 0 -44 -44 -27 -56 0 -56 0 -40 15 -40 28 rrcurveto
            -40 -57 rlineto
            43 -32 55 -22 73 0 113 0 80 54 0 91 0 47 -23 34 -36 27 44 27 36 44 0 55 0 78 -45 39 -108 35 -101 35 -23 18 0 46 rrcurveto
            42 38 28 57 vhcurveto
            57 0 36 -15 40 -27 rrcurveto
            40 57 rlineto
            -44 32 -50 22 -73 0 rrcurveto
            return
          </CharString>
          <CharString index="320">
            138 -51 33 -10 0 -56 0 -29 -18 -32 -31 -25 -138 50 -33 9 0 59 0 28 17 32 32 25 rrcurveto
            return
          </CharString>
          <CharString index="321">
            -83 -80 -56 -100 -101 80 -56 83 83 79 56 100 101 -79 56 -83 hvcurveto
            return
          </CharString>
          <CharString index="322">
            46 43 -31 -66 -66 -43 -31 -46 -46 -43 31 67 66 43 30 46 hvcurveto
            return
          </CharString>
          <CharString index="323">
            -80 -157 -170 -71 170 -449 80 449 170 71 -170 hlineto
            return
          </CharString>
          <CharString index="324">
            -80 -164 -170 -71 170 -210 -170 -71 170 -161 80 161 170 71 -170 hlineto
            210 170 71 -170 vlineto
            return
          </CharString>
          <CharString index="325">
            67 -69 -134 -133 134 -134 -67 -67 -134 134 -134 -134 -67 67 134 134 -134 133 67 69 134 -135 rlineto
            return
          </CharString>
          <CharString index="326">
            11 9 -9 -11 hvcurveto
            -74 vlineto
            -11 -9 -9 -11 vhcurveto
            -74 hlineto
            -11 -9 9 11 hvcurveto
            74 vlineto
            11 9 9 11 vhcurveto
            return
          </CharString>
          <CharString index="327">
            -27 -34 -46 -18 -55 0 rrcurveto
            -101 -42 68 73 71 44 84 103 hvcurveto
            124 hlineto
            return
          </CharString>
          <CharString index="328">
            -76 -801 76 hlineto
            577 359 0 86 rlineto
            return
          </CharString>
          <CharString index="329">
            0 622 505 -310 rlineto
            return
          </CharString>
          <CharString index="330">
            -73 29 -21 30 0 47 0 57 40 39 54 9 rrcurveto
            return
          </CharString>
          <CharString index="331">
            0 -101 -60 -38 -66 -14 rrcurveto
            290 vlineto
            75 -32 51 -52 0 -53 rrcurveto
            return
          </CharString>
          <CharString index="332">
            -78 -249 -244 -70 244 -249 78 249 246 70 -246 hlineto
            return
          </CharString>
          <CharString index="333">
            -30 68 -549 -244 0 -80 549 -244 30 68 -492 216 rlineto
            return
          </CharString>
          <CharString index="334">
            548 -244 30 68 -548 241 rlineto
            return
          </CharString>
          <CharString index="335">
            -271 -305 271 -305 63 54 -229 251 229 251 rlineto
            return
          </CharString>
          <CharString index="336">
            -33 -65 396 -204 -396 -204 33 -65 442 226 0 85 rlineto
            return
          </CharString>
          <CharString index="337">
            -425 -262 0 -87 425 -265 0 89 -353 219 353 217 rlineto
            return
          </CharString>
          <CharString index="338">
            -577 -356 0 -86 577 -359 76 0 0 801 rlineto
            return
          </CharString>
          <CharString index="339">
            -505 312 505 310 rlineto
            return
          </CharString>
          <CharString index="340">
            -442 -227 0 -85 442 -226 33 65 -396 204 396 204 rlineto
            return
          </CharString>
          <CharString index="341">
            -26 -48 -32 -37 -41 0 -61 0 -32 100 -100 0 -100 0 -28 -100 -61 0 -61 0 -32 100 -100 0 -89 0 -43 -70 -30 -58 rrcurveto
            60 -30 rlineto
            26 48 30 37 43 0 64 0 35 -100 94 0 94 0 32 100 63 0 64 0 35 -100 94 0 88 0 44 69 30 57 rrcurveto
            return
          </CharString>
          <CharString index="342">
            65 0 115 260 -94 0 rlineto
            return
          </CharString>
          <CharString index="343">
            -29 -24 -12 -36 vhcurveto
            -22 0 -26 6 -19 10 rrcurveto
            -27 -48 rlineto
            26 -15 39 -9 40 0 64 0 58 32 0 66 0 39 -28 38 -65 6 rrcurveto
            73 -58 vlineto
            -8 -113 rlineto
            53 33 -7 -37 hvcurveto
            return
          </CharString>
          <CharString index="344">
            1 -8 147 37 rlineto
            -42 -31 -91 -70 -39 -50 rrcurveto
            3 -7 rlineto
            40 16 54 19 46 17 -23 -13 -63 -48 -32 -54 rrcurveto
            3 -8 rlineto
            42 20 79 37 0 -1 -42 -38 -35 -44 -19 -43 rrcurveto
            3 -8 117 60 rlineto
            -25 -23 -33 -36 -17 -52 rrcurveto
            4 -7 75 52 rlineto
            -15 -17 -18 -30 -7 -25 rrcurveto
            4 -8 rlineto
            18 9 26 13 34 11 -21 -14 -19 -12 -11 -14 rrcurveto
            2 -7 rlineto
            10 -1 24 -1 0 0 rrcurveto
            -52 -28 rlineto
            0 0 55 -74 87 -51 97 -58 101 -9 50 0 29 0 27 3 7 1 0 4 -5 22 -5 12 6 9 11 37 4 22 16 80 6 30 74 39 rrcurveto
            16 8 28 19 28 0 36 0 50 -18 31 -6 21 -4 18 -3 14 0 24 0 50 33 21 17 2 -1 10 -2 11 0 6 0 7 0 6 3 rrcurveto
            18 8 41 101 0 14 0 11 -6 14 -3 32 -2 19 -2 43 -3 9 -15 41 -89 18 -101 43 -60 26 -30 34 0 0 rrcurveto
            0 3 10 13 27 -24 73 -84 hvcurveto
            -38 0 -35 -11 -10 -3 -19 0 -104 45 -50 0 -122 0 -110 -86 -85 -67 -65 -51 -49 -46 -23 -23 rrcurveto
            return
          </CharString>
          <CharString index="345">
            -2 3 rlineto
            13 25 77 110 116 0 46 0 51 -15 22 -8 rrcurveto
            1 -4 rlineto
            -9 -7 -12 -13 -2 -15 rrcurveto
            6 -1 rlineto
            48 17 67 26 51 0 27 0 12 -19 6 -10 rrcurveto
            -5 hlineto
            -8 5 -13 3 -17 0 -51 0 -112 -46 -28 -11 rrcurveto
            -2 -5 77 -13 rlineto
            0 0 11 -41 32 -19 rrcurveto
            12 hlineto
            -15 17 -5 16 0 12 0 39 39 8 20 0 9 0 6 -1 1 -1 rrcurveto
            -2 -4 rlineto
            -12 -3 -32 -9 0 -26 rrcurveto
            -33 50 -29 93 vhcurveto
            2 5 -44 53 4 1 rlineto
            39 -33 45 -28 64 -22 67 -24 53 -17 13 -17 0 -18 -29 -12 0 -19 0 -15 19 -24 12 -14 rrcurveto
            6 hlineto
            -1 10 -1 7 0 6 rrcurveto
            15 4 4 4 9 5 -27 -18 -24 -9 -20 0 vhcurveto
            0 0 -70 7 -57 15 -77 19 -136 95 -87 72 rrcurveto
            -50 21 -3 -3 53 -60 rlineto
            6 -6 12 -17 0 -11 0 -18 -15 -26 -3 -4 rrcurveto
            -19 32 -5 55 -5 0 rlineto
            -4 -13 -10 -34 0 -33 0 -78 70 -27 10 -5 12 -3 27 -5 13 -1 rrcurveto
            1 4 rlineto
            -17 15 -23 17 0 24 0 2 0 2 1 3 rrcurveto
            3 hlineto
            15 -25 31 -22 59 -21 119 -43 4 16 34 -28 0 0 -28 -18 -19 -2 -20 4 -84 29 -35 19 -9 -4 -113 -29 -26 -1 -69 9 -52 45 -25 29 rrcurveto
            -10 3 rlineto
            0 -45 56 -61 7 -4 rrcurveto
            39 -16 0 -5 rlineto
            -22 -13 -43 -25 0 -39 rrcurveto
            6 -1 rlineto
            16 14 34 15 13 1 0 -1 1 0 0 -1 rrcurveto
            -17 -26 rlineto
            0 -12 -2 -17 -5 -14 -18 0 -49 27 -18 14 rrcurveto
            -4 -3 rlineto
            7 -22 35 -44 27 -20 -6 -13 -9 -15 0 0 0 0 -42 26 -19 14 rrcurveto
            -4 -4 rlineto
            10 -21 20 -32 12 -13 rrcurveto
            -2 vlineto
            -61 0 -121 31 -82 68 rrcurveto
            64 38 -3 5 -86 -19 -6 5 rlineto
            32 15 71 31 14 21 rrcurveto
            -4 4 rlineto
            -20 -3 -49 -1 0 0 0 0 -3 2 0 13 0 28 27 18 0 28 0 25 -41 43 -15 25 -12 20 -16 37 0 38 0 6 1 7 1 7 rrcurveto
            2 1 10 -16 5 1 rlineto
            1 9 3 20 3 10 rrcurveto
            2 hlineto
            5 -14 7 -26 18 -13 rrcurveto
            4 4 rlineto
            -5 16 -2 17 0 17 0 53 23 49 39 28 rrcurveto
            -1 5 rlineto
            -20 -2 -17 -4 -20 -6 rrcurveto
            return
          </CharString>
          <CharString index="346">
            4 -4 rlineto
            0 0 21 22 21 7 0 -38 24 -15 14 -10 rrcurveto
            6 hlineto
            -2 9 -1 9 0 8 0 33 12 26 1 2 rrcurveto
            51 26 5 7 rlineto
            0 -16 5 -24 vhcurveto
            -89 0 -20 -63 -7 -24 rrcurveto
            return
          </CharString>
          <CharString index="347">
            6 -3 rlineto
            0 35 6 44 32 42 -9 0 vhcurveto
            3 3 -27 49 0 4 rlineto
            6 1 21 3 13 3 rrcurveto
            1 4 rlineto
            -33 35 -46 15 0 0 rrcurveto
            -1 -4 27 -34 0 -2 rlineto
            -21 -46 -9 0 hvcurveto
            -1 -4 31 -17 0 -3 rlineto
            -33 -6 -35 -16 -18 -16 rrcurveto
            return
          </CharString>
          <CharString index="348">
            -40 3 -53 20 -18 -1 rlineto
            27 -22 23 -13 27 0 9 0 10 1 10 4 rrcurveto
            return
          </CharString>
        <CharString name=".notdef">
          90 1050 rmoveto
          -1400 420 1400 vlineto
          -54 -1348 rmoveto
          -311 1296 311 hlineto
          -149 -825 rmoveto
          -107 callsubr
          -60 -88 rmoveto
          -106 callsubr
          endchar
        </CharString>
        <CharString name="A">
          434 176 rmoveto
          -105 callsubr
          23 72 rmoveto
          -104 callsubr
          endchar
        </CharString>
        <CharString name="AE">
          330 175 rmoveto
          -93 callsubr
          22 73 rmoveto
          -92 callsubr
          endchar
        </CharString>
        <CharString name="AEacute">
          444 906 rmoveto
          -103 callsubr
          -151 -659 rmoveto
          -93 callsubr
          22 73 rmoveto
          -92 callsubr
          endchar
        </CharString>
        <CharString name="Aacute">
          383 906 rmoveto
          -103 callsubr
          14 -658 rmoveto
          -105 callsubr
          23 72 rmoveto
          -104 callsubr
          endchar
        </CharString>
        <CharString name="Abreve">
          298 759 rmoveto
          -102 callsubr
          136 -583 rmoveto
          -105 callsubr
          23 72 rmoveto
          -104 callsubr
          endchar
        </CharString>
        <CharString name="Acircumflex">
          329 910 rmoveto
          -101 callsubr
          -29 -627 rmoveto
          -105 callsubr
          23 72 rmoveto
          -104 callsubr
          endchar
        </CharString>
        <CharString name="Adieresis">
          196 767 rmoveto
          -100 callsubr
          207 hmoveto
          -99 callsubr
          31 -591 rmoveto
          -105 callsubr
          23 72 rmoveto
          -104 callsubr
          endchar
        </CharString>
        <CharString name="Agrave">
          231 909 rmoveto
          -98 callsubr
          18 -625 rmoveto
          -105 callsubr
          23 72 rmoveto
          -104 callsubr
          endchar
        </CharString>
        <CharString name="Alpha">
          434 176 rmoveto
          -105 callsubr
          23 72 rmoveto
          -104 callsubr
          endchar
        </CharString>
        <CharString name="Alphatonos">
          90 705 rmoveto
          42 callsubr
          245 -513 rmoveto
          -105 callsubr
          23 72 rmoveto
          -104 callsubr
          endchar
        </CharString>
        <CharString name="Amacron">
          434 795 rmoveto
          -97 callsubr
          269 -619 rmoveto
          -105 callsubr
          23 72 rmoveto
          -104 callsubr
          endchar
        </CharString>
        <CharString name="Aogonek">
          539 hmoveto
          40 0 -224 689 -110 0 -225 -689 86 0 55 176 273 0 50 -159 rlineto
          -101 -37 -45 -49 0 -62 0 -56 46 -42 76 0 27 0 16 3 21 3 rrcurveto
          8 68 rlineto
          -24 -5 -16 -2 -21 0 -42 0 -14 18 0 30 0 35 21 34 103 45 rrcurveto
          -355 248 rmoveto
          -104 callsubr
          endchar
        </CharString>
        <CharString name="Aring">
          300 943 rmoveto
          -96 callsubr
          -47 vmoveto
          -95 callsubr
          134 -720 rmoveto
          -105 callsubr
          23 72 rmoveto
          -104 callsubr
          endchar
        </CharString>
        <CharString name="Atilde">
          358 778 rmoveto
          -94 callsubr
          76 -602 rmoveto
          -105 callsubr
          23 72 rmoveto
          -104 callsubr
          endchar
        </CharString>
        <CharString name="B">
          540 196 rmoveto
          -91 callsubr
          -119 314 rmoveto
          -90 callsubr
          27 -317 rmoveto
          -89 callsubr
          endchar
        </CharString>
        <CharString name="Beta">
          540 196 rmoveto
          -91 callsubr
          -119 314 rmoveto
          -90 callsubr
          27 -317 rmoveto
          -89 callsubr
          endchar
        </CharString>
        <CharString name="C">
          358 700 rmoveto
          -88 callsubr
          endchar
        </CharString>
        <CharString name="Cacute">
          448 906 rmoveto
          -103 callsubr
          -127 -134 rmoveto
          -88 callsubr
          endchar
        </CharString>
        <CharString name="Cacute.loclPLK">
          420 915 rmoveto
          -48 callsubr
          -128 -171 rmoveto
          -88 callsubr
          endchar
        </CharString>
        <CharString name="Ccaron">
          491 905 rmoveto
          -87 callsubr
          -170 -162 rmoveto
          -88 callsubr
          endchar
        </CharString>
        <CharString name="Ccedilla">
          370 -57 rmoveto
          46 vlineto
          94 2 63 33 41 40 rrcurveto
          -45 56 rlineto
          -37 -29 -46 -28 -77 0 rrcurveto
          -118 -91 77 205 210 98 72 112 hvcurveto
          53 0 48 -14 44 -37 rrcurveto
          49 57 rlineto
          -55 43 -55 24 -90 0 -159 0 -136 -123 0 -232 0 -208 105 -121 142 -23 rrcurveto
          -6 -90 rlineto
          53 33 -7 -37 -29 -24 -12 -36 hvcurveto
          -22 0 -26 6 -19 10 rrcurveto
          -27 -48 rlineto
          26 -15 39 -9 40 0 64 0 58 32 0 66 0 39 -28 38 -65 6 rrcurveto
          endchar
        </CharString>
        <CharString name="Ccircumflex">
          394 910 rmoveto
          -101 callsubr
          -170 -103 rmoveto
          -88 callsubr
          endchar
        </CharString>
        <CharString name="Cdotaccent">
          364 892 rmoveto
          -86 callsubr
          -6 -192 rmoveto
          -88 callsubr
          endchar
        </CharString>
        <CharString name="Chi">
          49 689 rmoveto
          -51 callsubr
          endchar
        </CharString>
        <CharString name="D">
          553 348 rmoveto
          -85 callsubr
          -93 hmoveto
          -84 callsubr
          endchar
        </CharString>
        <CharString name="Dcaron">
          410 905 rmoveto
          -87 callsubr
          106 -514 rmoveto
          -85 callsubr
          -93 hmoveto
          -84 callsubr
          endchar
        </CharString>
        <CharString name="Dcroat">
          240 689 rmoveto
          -83 callsubr
          22 -619 rmoveto
          -82 callsubr
          endchar
        </CharString>
        <CharString name="E">
          212 617 rmoveto
          -81 callsubr
          endchar
        </CharString>
        <CharString name="Eacute">
          404 906 rmoveto
          -103 callsubr
          -229 -217 rmoveto
          -81 callsubr
          endchar
        </CharString>
        <CharString name="Ebreve">
          319 759 rmoveto
          -102 callsubr
          -107 -142 rmoveto
          -81 callsubr
          endchar
        </CharString>
        <CharString name="Ecaron">
          447 905 rmoveto
          -87 callsubr
          -272 -245 rmoveto
          -81 callsubr
          endchar
        </CharString>
        <CharString name="Ecircumflex">
          350 910 rmoveto
          -101 callsubr
          -272 -186 rmoveto
          -81 callsubr
          endchar
        </CharString>
        <CharString name="Edieresis">
          217 767 rmoveto
          -100 callsubr
          207 hmoveto
          -99 callsubr
          -212 -150 rmoveto
          -81 callsubr
          endchar
        </CharString>
        <CharString name="Edotaccent">
          320 892 rmoveto
          -86 callsubr
          -108 -275 rmoveto
          -81 callsubr
          endchar
        </CharString>
        <CharString name="Egrave">
          252 909 rmoveto
          -98 callsubr
          -225 -184 rmoveto
          -81 callsubr
          endchar
        </CharString>
        <CharString name="Emacron">
          455 795 rmoveto
          -97 callsubr
          26 -178 rmoveto
          -81 callsubr
          endchar
        </CharString>
        <CharString name="Eng">
          436 689 rmoveto
          -345 vlineto
          0 -124 11 -111 1 -28 rrcurveto
          -247 608 -118 0 0 -689 81 0 0 345 rlineto
          0 106 -10 124 -2 30 rrcurveto
          243 -605 35 0 0 -67 rlineto
          -51 -22 -24 -40 vhcurveto
          -34 0 -18 9 -23 15 rrcurveto
          -34 -57 rlineto
          24 -18 37 -19 52 0 rrcurveto
          88 57 50 100 hvcurveto
          751 vlineto
          endchar
        </CharString>
        <CharString name="Eogonek">
          212 70 rmoveto
          244 256 71 -256 232 295 vlineto
          10 72 -391 0 0 -689 246 0 rlineto
          -72 -35 -33 -43 0 -53 0 -56 46 -42 76 0 27 0 16 3 21 3 rrcurveto
          8 68 rlineto
          -24 -5 -16 -2 -21 0 -42 0 -14 18 0 30 0 35 21 34 103 45 rrcurveto
          58 70 hlineto
          endchar
        </CharString>
        <CharString name="Epsilon">
          212 617 rmoveto
          -81 callsubr
          endchar
        </CharString>
        <CharString name="Epsilontonos">
          8 705 rmoveto
          42 callsubr
          105 -72 rmoveto
          -81 callsubr
          endchar
        </CharString>
        <CharString name="Eta">
          430 hmoveto
          -78 callsubr
          endchar
        </CharString>
        <CharString name="Etatonos">
          -35 705 rmoveto
          42 callsubr
          366 -689 rmoveto
          -78 callsubr
          endchar
        </CharString>
        <CharString name="Eth">
          240 689 rmoveto
          -83 callsubr
          22 -619 rmoveto
          -82 callsubr
          endchar
        </CharString>
        <CharString name="Euro">
          381 700 rmoveto
          143 callsubr
          endchar
        </CharString>
        <CharString name="Euro.tosf">
          381 700 rmoveto
          143 callsubr
          endchar
        </CharString>
        <CharString name="F">
          225 617 rmoveto
          309 0 10 72 -406 0 0 -689 87 0 0 306 270 0 0 70 -270 0 rlineto
          endchar
        </CharString>
        <CharString name="G">
          314 -11 rmoveto
          -80 callsubr
          endchar
        </CharString>
        <CharString name="Gamma">
          544 689 rmoveto
          0 callsubr
          endchar
        </CharString>
        <CharString name="Gbreve">
          328 759 rmoveto
          -102 callsubr
          -14 -770 rmoveto
          -80 callsubr
          endchar
        </CharString>
        <CharString name="Gcircumflex">
          359 910 rmoveto
          -101 callsubr
          -179 -814 rmoveto
          -80 callsubr
          endchar
        </CharString>
        <CharString name="Gcommaaccent">
          314 -11 rmoveto
          -80 callsubr
          19 -60 rmoveto
          -79 callsubr
          endchar
        </CharString>
        <CharString name="Gdotaccent">
          329 892 rmoveto
          -86 callsubr
          -15 -903 rmoveto
          -80 callsubr
          endchar
        </CharString>
        <CharString name="H">
          430 hmoveto
          -78 callsubr
          endchar
        </CharString>
        <CharString name="Hbar">
          598 575 rmoveto
          -81 114 -86 -114 -262 114 -86 -114 -81 -66 81 -509 86 326 262 hlineto
          -326 86 509 81 vlineto
          -167 -111 rmoveto
          -262 111 262 hlineto
          endchar
        </CharString>
        <CharString name="Hcircumflex">
          329 910 rmoveto
          -101 callsubr
          -33 -803 rmoveto
          -78 callsubr
          endchar
        </CharString>
        <CharString name="I">
          497 689 rmoveto
          -77 callsubr
          endchar
        </CharString>
        <CharString name="IJ">
          194 -71 rmoveto
          10 -65 rlineto
          267 24 61 144 0 156 rrcurveto
          501 -521 -72 100 -545 -100 -72 270 72 -80 545 244 -424 vlineto
          0 -148 -47 -96 -204 -20 rrcurveto
          endchar
        </CharString>
        <CharString name="Iacute">
          383 906 rmoveto
          -103 callsubr
          77 -145 rmoveto
          -77 callsubr
          endchar
        </CharString>
        <CharString name="Ibreve">
          298 759 rmoveto
          -102 callsubr
          199 -70 rmoveto
          -77 callsubr
          endchar
        </CharString>
        <CharString name="Icircumflex">
          329 910 rmoveto
          -101 callsubr
          34 -114 rmoveto
          -77 callsubr
          endchar
        </CharString>
        <CharString name="Idieresis">
          196 767 rmoveto
          -100 callsubr
          207 hmoveto
          -99 callsubr
          94 -78 rmoveto
          -77 callsubr
          endchar
        </CharString>
        <CharString name="Idotaccent">
          299 892 rmoveto
          -86 callsubr
          198 -203 rmoveto
          -77 callsubr
          endchar
        </CharString>
        <CharString name="Igrave">
          231 909 rmoveto
          -98 callsubr
          81 -112 rmoveto
          -77 callsubr
          endchar
        </CharString>
        <CharString name="Imacron">
          434 795 rmoveto
          -97 callsubr
          332 -106 rmoveto
          -77 callsubr
          endchar
        </CharString>
        <CharString name="Iogonek">
          497 619 rmoveto
          70 -394 -70 153 -550 -153 -69 145 vlineto
          -72 -35 -33 -43 0 -53 0 -56 46 -42 76 0 27 0 16 3 21 3 rrcurveto
          8 68 rlineto
          -24 -5 -16 -2 -21 0 -42 0 -14 18 0 30 0 35 21 34 103 45 rrcurveto
          153 69 -153 550 hlineto
          endchar
        </CharString>
        <CharString name="Iota">
          497 689 rmoveto
          -77 callsubr
          endchar
        </CharString>
        <CharString name="Iotadieresis">
          196 767 rmoveto
          -100 callsubr
          207 hmoveto
          -99 callsubr
          94 -78 rmoveto
          -77 callsubr
          endchar
        </CharString>
        <CharString name="Iotatonos">
          -15 705 rmoveto
          42 callsubr
          413 hmoveto
          -77 callsubr
          endchar
        </CharString>
        <CharString name="Itilde">
          358 778 rmoveto
          -94 callsubr
          139 -89 rmoveto
          -77 callsubr
          endchar
        </CharString>
        <CharString name="J">
          497 689 rmoveto
          -76 callsubr
          endchar
        </CharString>
        <CharString name="Jcircumflex">
          379 910 rmoveto
          -101 callsubr
          -16 -114 rmoveto
          -76 callsubr
          endchar
        </CharString>
        <CharString name="K">
          192 hmoveto
          689 -87 -689 vlineto
          92 368 rmoveto
          -75 callsubr
          endchar
        </CharString>
        <CharString name="Kappa">
          192 hmoveto
          689 -87 -689 vlineto
          92 368 rmoveto
          -75 callsubr
          endchar
        </CharString>
        <CharString name="Kcommaaccent">
          192 hmoveto
          689 -87 -689 vlineto
          92 368 rmoveto
          -75 callsubr
          -142 -760 rmoveto
          -79 callsubr
          endchar
        </CharString>
        <CharString name="L">
          136 hmoveto
          -74 callsubr
          endchar
        </CharString>
        <CharString name="Lacute">
          262 906 rmoveto
          -103 callsubr
          -163 -834 rmoveto
          -74 callsubr
          endchar
        </CharString>
        <CharString name="Lambda">
          355 689 rmoveto
          -110 0 -221 -689 87 0 187 608 186 -608 90 0 rlineto
          endchar
        </CharString>
        <CharString name="Lcaron">
          308 698 rmoveto
          -73 callsubr
          -248 -688 rmoveto
          -74 callsubr
          endchar
        </CharString>
        <CharString name="Lcommaaccent">
          136 hmoveto
          -74 callsubr
          199 -760 rmoveto
          -79 callsubr
          endchar
        </CharString>
        <CharString name="Ldot">
          136 hmoveto
          -74 callsubr
          336 -253 rmoveto
          -86 callsubr
          endchar
        </CharString>
        <CharString name="Lslash">
          220 77 rmoveto
          0 244 202 125 -37 56 -165 -103 0 290 -86 0 0 -343 -94 -57 37 -57 57 35 0 -267 390 0 11 77 rlineto
          endchar
        </CharString>
        <CharString name="M">
          531 689 rmoveto
          -72 callsubr
          endchar
        </CharString>
        <CharString name="Mu">
          531 689 rmoveto
          -72 callsubr
          endchar
        </CharString>
        <CharString name="N">
          395 hmoveto
          -71 callsubr
          endchar
        </CharString>
        <CharString name="Nacute">
          382 906 rmoveto
          -103 callsubr
          -24 -834 rmoveto
          -71 callsubr
          endchar
        </CharString>
        <CharString name="Nacute.loclPLK">
          354 915 rmoveto
          -48 callsubr
          -25 -871 rmoveto
          -71 callsubr
          endchar
        </CharString>
        <CharString name="Ncaron">
          425 905 rmoveto
          -87 callsubr
          -67 -862 rmoveto
          -71 callsubr
          endchar
        </CharString>
        <CharString name="Ncommaaccent">
          395 hmoveto
          -71 callsubr
          151 -676 rmoveto
          -79 callsubr
          endchar
        </CharString>
        <CharString name="Ntilde">
          357 778 rmoveto
          -94 callsubr
          38 -778 rmoveto
          -71 callsubr
          endchar
        </CharString>
        <CharString name="Nu">
          395 hmoveto
          -71 callsubr
          endchar
        </CharString>
        <CharString name="O">
          553 344 rmoveto
          -70 callsubr
          -90 hmoveto
          -69 callsubr
          endchar
        </CharString>
        <CharString name="OE">
          212 700 rmoveto
          -142 -71 -127 -230 -235 70 -119 143 hvcurveto
          24 0 22 4 22 7 rrcurveto
          337 71 -267 hlineto
          41 47 25 78 3 118 rrcurveto
          154 71 -154 hlineto
          -5 114 -23 75 -37 44 rrcurveto
          244 0 10 71 -325 0 rlineto
          -24 7 -23 4 -24 0 rrcurveto
          -1 -72 rmoveto
          86 36 -81 -203 -205 -38 -80 -84 -78 -41 79 205 204 38 81 81 hvcurveto
          endchar
        </CharString>
        <CharString name="Oacute">
          383 906 rmoveto
          -103 callsubr
          133 -490 rmoveto
          -70 callsubr
          -90 hmoveto
          -69 callsubr
          endchar
        </CharString>
        <CharString name="Oacute.loclPLK">
          355 915 rmoveto
          -48 callsubr
          132 -527 rmoveto
          -70 callsubr
          -90 hmoveto
          -69 callsubr
          endchar
        </CharString>
        <CharString name="Obreve">
          298 759 rmoveto
          -102 callsubr
          255 -415 rmoveto
          -70 callsubr
          -90 hmoveto
          -69 callsubr
          endchar
        </CharString>
        <CharString name="Ocircumflex">
          329 910 rmoveto
          -101 callsubr
          90 -459 rmoveto
          -70 callsubr
          -90 hmoveto
          -69 callsubr
          endchar
        </CharString>
        <CharString name="Odieresis">
          196 767 rmoveto
          -100 callsubr
          207 hmoveto
          -99 callsubr
          150 -423 rmoveto
          -70 callsubr
          -90 hmoveto
          -69 callsubr
          endchar
        </CharString>
        <CharString name="Ograve">
          231 909 rmoveto
          -98 callsubr
          137 -457 rmoveto
          -70 callsubr
          -90 hmoveto
          -69 callsubr
          endchar
        </CharString>
        <CharString name="Ohungarumlaut">
          182 781 rmoveto
          -68 callsubr
          87 -174 rmoveto
          -67 callsubr
          119 -611 rmoveto
          -70 callsubr
          -90 hmoveto
          -69 callsubr
          endchar
        </CharString>
        <CharString name="Omacron">
          434 795 rmoveto
          -97 callsubr
          388 -451 rmoveto
          -70 callsubr
          -90 hmoveto
          -69 callsubr
          endchar
        </CharString>
        <CharString name="Omegatonos">
          -3 705 rmoveto
          42 callsubr
          204 -62 rmoveto
          41 callsubr
          endchar
        </CharString>
        <CharString name="Omicron">
          553 344 rmoveto
          -70 callsubr
          -90 hmoveto
          -69 callsubr
          endchar
        </CharString>
        <CharString name="Omicrontonos">
          -3 705 rmoveto
          42 callsubr
          457 -345 rmoveto
          -70 callsubr
          -90 hmoveto
          -69 callsubr
          endchar
        </CharString>
        <CharString name="Oslash">
          434 659 rmoveto
          -66 callsubr
          -296 -316 rmoveto
          -65 callsubr
          162 -281 rmoveto
          -64 callsubr
          endchar
        </CharString>
        <CharString name="Oslashacute">
          420 834 rmoveto
          -37 72 -198 -105 22 -46 rlineto
          227 -96 rmoveto
          -66 callsubr
          -296 -316 rmoveto
          -65 callsubr
          162 -281 rmoveto
          -64 callsubr
          endchar
        </CharString>
        <CharString name="Otilde">
          358 778 rmoveto
          -94 callsubr
          195 -434 rmoveto
          -70 callsubr
          -90 hmoveto
          -69 callsubr
          endchar
        </CharString>
        <CharString name="P">
          557 477 rmoveto
          -63 callsubr
          -93 -1 rmoveto
          -62 callsubr
          endchar
        </CharString>
        <CharString name="Phi">
          342 689 rmoveto
          -84 -79 hlineto
          -169 -9 -78 -90 0 -164 0 -172 88 -89 159 -5 rrcurveto
          -81 84 81 vlineto
          160 5 87 89 0 172 0 165 -78 89 -169 9 rrcurveto
          -83 -65 rmoveto
          -400 vlineto
          -113 7 -48 57 0 138 0 147 52 49 109 2 rrcurveto
          82 hmoveto
          108 -1 53 -49 0 -148 0 -137 -48 -58 -113 -7 rrcurveto
          endchar
        </CharString>
        <CharString name="Pi">
          430 hmoveto
          6 callsubr
          endchar
        </CharString>
        <CharString name="Psi">
          256 hmoveto
          12 callsubr
          endchar
        </CharString>
        <CharString name="Q">
          554 344 rmoveto
          -59 callsubr
          -91 hmoveto
          -58 callsubr
          endchar
        </CharString>
        <CharString name="R">
          537 495 rmoveto
          -57 callsubr
          -92 hmoveto
          -56 callsubr
          endchar
        </CharString>
        <CharString name="Racute">
          383 906 rmoveto
          -103 callsubr
          117 -339 rmoveto
          -57 callsubr
          -92 hmoveto
          -56 callsubr
          endchar
        </CharString>
        <CharString name="Rcaron">
          426 905 rmoveto
          -87 callsubr
          74 -367 rmoveto
          -57 callsubr
          -92 hmoveto
          -56 callsubr
          endchar
        </CharString>
        <CharString name="Rcommaaccent">
          537 495 rmoveto
          -57 callsubr
          -92 hmoveto
          -56 callsubr
          -143 -566 rmoveto
          -79 callsubr
          endchar
        </CharString>
        <CharString name="Rho">
          557 477 rmoveto
          -63 callsubr
          -93 -1 rmoveto
          -62 callsubr
          endchar
        </CharString>
        <CharString name="S">
          537 191 rmoveto
          -55 callsubr
          endchar
        </CharString>
        <CharString name="Sacute">
          389 906 rmoveto
          -103 callsubr
          111 -643 rmoveto
          -55 callsubr
          endchar
        </CharString>
        <CharString name="Sacute.loclPLK">
          361 915 rmoveto
          -48 callsubr
          110 -680 rmoveto
          -55 callsubr
          endchar
        </CharString>
        <CharString name="Scaron">
          432 905 rmoveto
          -87 callsubr
          68 -671 rmoveto
          -55 callsubr
          endchar
        </CharString>
        <CharString name="Scedilla">
          537 191 rmoveto
          0 131 -94 45 -108 31 -131 38 -42 30 0 59 0 69 62 33 76 0 58 0 58 -19 49 -43 rrcurveto
          52 56 rlineto
          -58 50 -68 29 -94 0 -132 0 -91 -74 0 -104 0 -109 85 -50 137 -40 118 -34 32 -33 0 -67 0 -87 -76 -41 -84 0 -84 0 -59 29 -48 45 rrcurveto
          -52 -59 rlineto
          53 -51 73 -30 88 -5 rrcurveto
          -6 -87 rlineto
          53 33 -7 -37 -29 -24 -12 -36 hvcurveto
          -22 0 -26 6 -19 10 rrcurveto
          -27 -48 rlineto
          26 -15 39 -9 40 0 64 0 58 32 0 66 0 39 -28 38 -65 6 rrcurveto
          47 vlineto
          140 11 80 79 0 111 rrcurveto
          endchar
        </CharString>
        <CharString name="Scircumflex">
          335 910 rmoveto
          -101 callsubr
          68 -612 rmoveto
          -55 callsubr
          endchar
        </CharString>
        <CharString name="Scommaaccent">
          537 191 rmoveto
          -55 callsubr
          -237 -262 rmoveto
          -79 callsubr
          endchar
        </CharString>
        <CharString name="Sigma">
          404 315 rmoveto
          0 62 -231 238 354 0 0 74 -454 0 0 -75 255 -270 -255 -271 0 -73 454 0 0 73 -352 0 rlineto
          endchar
        </CharString>
        <CharString name="T">
          342 614 rmoveto
          -54 callsubr
          endchar
        </CharString>
        <CharString name="Tau">
          342 614 rmoveto
          -54 callsubr
          endchar
        </CharString>
        <CharString name="Tbar">
          550 614 rmoveto
          9 75 -519 0 0 -75 215 0 0 -197 -130 0 0 -67 130 0 0 -350 87 0 0 350 131 0 0 67 -131 0 0 197 rlineto
          endchar
        </CharString>
        <CharString name="Tcaron">
          425 905 rmoveto
          -87 callsubr
          -120 -248 rmoveto
          -54 callsubr
          endchar
        </CharString>
        <CharString name="Theta">
          553 344 rmoveto
          -70 callsubr
          -91 hmoveto
          40 callsubr
          -60 -28 rmoveto
          72 -205 -72 vlineto
          endchar
        </CharString>
        <CharString name="Thorn">
          194 689 rmoveto
          -61 callsubr
          109 -69 rmoveto
          -60 callsubr
          endchar
        </CharString>
        <CharString name="U">
          528 689 rmoveto
          -53 callsubr
          endchar
        </CharString>
        <CharString name="Uacute">
          383 906 rmoveto
          -103 callsubr
          108 -145 rmoveto
          -53 callsubr
          endchar
        </CharString>
        <CharString name="Ubreve">
          298 759 rmoveto
          -102 callsubr
          230 -70 rmoveto
          -53 callsubr
          endchar
        </CharString>
        <CharString name="Ucircumflex">
          329 910 rmoveto
          -101 callsubr
          65 -114 rmoveto
          -53 callsubr
          endchar
        </CharString>
        <CharString name="Udieresis">
          196 767 rmoveto
          -100 callsubr
          207 hmoveto
          -99 callsubr
          125 -78 rmoveto
          -53 callsubr
          endchar
        </CharString>
        <CharString name="Ugrave">
          231 909 rmoveto
          -98 callsubr
          112 -112 rmoveto
          -53 callsubr
          endchar
        </CharString>
        <CharString name="Uhungarumlaut">
          182 781 rmoveto
          -68 callsubr
          87 -174 rmoveto
          -67 callsubr
          94 -266 rmoveto
          -53 callsubr
          endchar
        </CharString>
        <CharString name="Umacron">
          434 795 rmoveto
          -97 callsubr
          363 -106 rmoveto
          -53 callsubr
          endchar
        </CharString>
        <CharString name="Uogonek">
          440 689 rmoveto
          -469 vlineto
          -105 -51 -51 -90 -89 -51 51 105 vhcurveto
          469 -87 -466 vlineto
          0 -127 71 -90 120 -15 -61 -33 -27 -40 0 -49 0 -56 46 -42 76 0 27 0 16 3 21 3 rrcurveto
          8 68 rlineto
          -24 -5 -16 -2 -21 0 -42 0 -14 18 0 30 0 35 21 34 102 44 95 29 58 82 0 113 rrcurveto
          466 vlineto
          endchar
        </CharString>
        <CharString name="Upsilon">
          344 266 rmoveto
          -50 callsubr
          endchar
        </CharString>
        <CharString name="Upsilondieresis">
          199 767 rmoveto
          -100 callsubr
          207 hmoveto
          -99 callsubr
          -62 -501 rmoveto
          -50 callsubr
          endchar
        </CharString>
        <CharString name="Upsilontonos">
          -85 705 rmoveto
          42 callsubr
          330 -423 rmoveto
          -50 callsubr
          endchar
        </CharString>
        <CharString name="Uring">
          300 943 rmoveto
          -96 callsubr
          -47 vmoveto
          -95 callsubr
          228 -207 rmoveto
          -53 callsubr
          endchar
        </CharString>
        <CharString name="Utilde">
          358 778 rmoveto
          -94 callsubr
          170 -89 rmoveto
          -53 callsubr
          endchar
        </CharString>
        <CharString name="V">
          302 99 rmoveto
          -184 590 -93 0 230 -689 90 0 230 689 -87 0 rlineto
          endchar
        </CharString>
        <CharString name="W">
          595 689 rmoveto
          -52 callsubr
          endchar
        </CharString>
        <CharString name="Wacute">
          383 906 rmoveto
          -103 callsubr
          175 -145 rmoveto
          -52 callsubr
          endchar
        </CharString>
        <CharString name="Wcircumflex">
          329 910 rmoveto
          -101 callsubr
          132 -114 rmoveto
          -52 callsubr
          endchar
        </CharString>
        <CharString name="Wdieresis">
          196 767 rmoveto
          -100 callsubr
          207 hmoveto
          -99 callsubr
          192 -78 rmoveto
          -52 callsubr
          endchar
        </CharString>
        <CharString name="Wgrave">
          231 909 rmoveto
          -98 callsubr
          179 -112 rmoveto
          -52 callsubr
          endchar
        </CharString>
        <CharString name="X">
          49 689 rmoveto
          -51 callsubr
          endchar
        </CharString>
        <CharString name="Xi">
          513 689 rmoveto
          -436 -80 424 hlineto
          -37 -220 rmoveto
          -337 -80 337 hlineto
          59 -228 rmoveto
          -446 -81 446 hlineto
          endchar
        </CharString>
        <CharString name="Y">
          344 266 rmoveto
          -50 callsubr
          endchar
        </CharString>
        <CharString name="Yacute">
          386 906 rmoveto
          -103 callsubr
          -79 -568 rmoveto
          -50 callsubr
          endchar
        </CharString>
        <CharString name="Ycircumflex">
          332 910 rmoveto
          -101 callsubr
          -122 -537 rmoveto
          -50 callsubr
          endchar
        </CharString>
        <CharString name="Ydieresis">
          199 767 rmoveto
          -100 callsubr
          207 hmoveto
          -99 callsubr
          -62 -501 rmoveto
          -50 callsubr
          endchar
        </CharString>
        <CharString name="Ygrave">
          234 909 rmoveto
          -98 callsubr
          -75 -535 rmoveto
          -50 callsubr
          endchar
        </CharString>
        <CharString name="Z">
          167 75 rmoveto
          -49 callsubr
          endchar
        </CharString>
        <CharString name="Zacute">
          402 906 rmoveto
          -103 callsubr
          -272 -759 rmoveto
          -49 callsubr
          endchar
        </CharString>
        <CharString name="Zacute.loclPLK">
          374 915 rmoveto
          -48 callsubr
          -273 -796 rmoveto
          -49 callsubr
          endchar
        </CharString>
        <CharString name="Zcaron">
          445 905 rmoveto
          -87 callsubr
          -315 -787 rmoveto
          -49 callsubr
          endchar
        </CharString>
        <CharString name="Zdotaccent">
          318 892 rmoveto
          -86 callsubr
          -151 -817 rmoveto
          -49 callsubr
          endchar
        </CharString>
        <CharString name="Zeta">
          167 75 rmoveto
          -49 callsubr
          endchar
        </CharString>
        <CharString name="a">
          478 115 rmoveto
          -47 callsubr
          -218 -63 rmoveto
          -46 callsubr
          endchar
        </CharString>
        <CharString name="aacute">
          376 797 rmoveto
          -45 callsubr
          64 -610 rmoveto
          -47 callsubr
          -218 -63 rmoveto
          -46 callsubr
          endchar
        </CharString>
        <CharString name="abreve">
          290 630 rmoveto
          -44 callsubr
          188 -515 rmoveto
          -47 callsubr
          -218 -63 rmoveto
          -46 callsubr
          endchar
        </CharString>
        <CharString name="acircumflex">
          169 629 rmoveto
          -43 callsubr
          349 -555 rmoveto
          -47 callsubr
          -218 -63 rmoveto
          -46 callsubr
          endchar
        </CharString>
        <CharString name="acute">
          384 797 rmoveto
          -45 callsubr
          endchar
        </CharString>
        <CharString name="acute.case">
          380 906 rmoveto
          -103 callsubr
          endchar
        </CharString>
        <CharString name="acute.case.loclPLK">
          320 915 rmoveto
          -48 callsubr
          endchar
        </CharString>
        <CharString name="acute.loclPLK">
          319 771 rmoveto
          -1 callsubr
          endchar
        </CharString>
        <CharString name="acutecomb">
          0 -216 797 rmoveto
          -45 callsubr
          endchar
        </CharString>
        <CharString name="adieresis">
          188 648 rmoveto
          -100 callsubr
          207 hmoveto
          -99 callsubr
          83 -533 rmoveto
          -47 callsubr
          -218 -63 rmoveto
          -46 callsubr
          endchar
        </CharString>
        <CharString name="ae">
          435 538 rmoveto
          -41 callsubr
          -3 -70 rmoveto
          -40 callsubr
          -178 -206 rmoveto
          -39 callsubr
          endchar
        </CharString>
        <CharString name="aeacute">
          393 797 rmoveto
          -45 callsubr
          4 -187 rmoveto
          -41 callsubr
          -3 -70 rmoveto
          -40 callsubr
          -178 -206 rmoveto
          -39 callsubr
          endchar
        </CharString>
        <CharString name="agrave">
          379 622 rmoveto
          -42 callsubr
          302 -600 rmoveto
          -47 callsubr
          -218 -63 rmoveto
          -46 callsubr
          endchar
        </CharString>
        <CharString name="alpha">
          255 538 rmoveto
          53 callsubr
          6 -68 rmoveto
          54 callsubr
          endchar
        </CharString>
        <CharString name="alphatonos">
          284 808 rmoveto
          62 callsubr
          -118 -253 rmoveto
          53 callsubr
          6 -68 rmoveto
          54 callsubr
          endchar
        </CharString>
        <CharString name="amacron">
          426 676 rmoveto
          -97 callsubr
          321 -561 rmoveto
          -47 callsubr
          -218 -63 rmoveto
          -46 callsubr
          endchar
        </CharString>
        <CharString name="ampersand">
          279 699 rmoveto
          -117 -72 -77 -88 hvcurveto
          0 -62 30 -61 90 -21 rrcurveto
          -3 vlineto
          -100 -21 -56 -68 0 -103 0 -103 67 -103 156 0 115 0 62 54 30 38 rrcurveto
          272 90 67 -278 vlineto
          -70 -54 53 61 59 35 43 71 hvcurveto
          50 0 33 -19 35 -39 rrcurveto
          50 46 rlineto
          -55 61 -52 14 -60 0 rrcurveto
          128 -346 rmoveto
          -244 vlineto
          -27 -34 -46 -18 -55 0 rrcurveto
          -101 -42 68 73 71 44 84 103 hvcurveto
          endchar
        </CharString>
        <CharString name="ampersand_ampersand.liga">
          246 420 rmoveto
          -70 -54 53 61 59 35 43 71 hvcurveto
          50 0 33 -19 35 -39 rrcurveto
          50 46 rlineto
          -55 61 -52 14 -60 0 -117 0 -72 -77 0 -88 0 -43 14 -42 39 -29 rrcurveto
          -347 hlineto
          -70 -54 53 61 59 35 43 71 hvcurveto
          50 0 33 -19 35 -39 rrcurveto
          50 46 rlineto
          -55 61 -52 14 -60 0 -117 0 -72 -77 0 -88 0 -62 30 -61 90 -21 rrcurveto
          -3 vlineto
          -100 -21 -56 -68 0 -103 0 -103 67 -103 156 0 115 0 62 54 30 38 rrcurveto
          272 144 vlineto
          -48 -34 -26 -54 0 -70 0 -103 67 -103 156 0 115 0 62 54 30 38 rrcurveto
          272 90 67 vlineto
          -667 -311 rmoveto
          220 callsubr
          500 -244 rmoveto
          220 callsubr
          endchar
        </CharString>
        <CharString name="anoteleia">
          212 342 rmoveto
          96 callsubr
          endchar
        </CharString>
        <CharString name="aogonek">
          500 -12 rmoveto
          21 60 rlineto
          -30 9 -13 16 0 42 rrcurveto
          253 vlineto
          104 -66 66 -131 vhcurveto
          -52 0 -56 -10 -65 -23 rrcurveto
          23 -64 rlineto
          54 19 48 8 35 0 rrcurveto
          78 47 -28 -77 hvcurveto
          -43 -78 vlineto
          -159 -87 -61 -108 -98 64 -64 106 hvcurveto
          68 0 59 25 38 49 8 -27 15 -18 19 -12 -102 -38 -45 -49 0 -62 0 -56 46 -42 76 0 27 0 16 3 21 3 rrcurveto
          8 68 rlineto
          -24 -5 -16 -2 -21 0 -42 0 -14 18 0 30 0 35 21 34 103 45 rrcurveto
          -107 139 rmoveto
          -31 -47 -50 -28 -52 0 rrcurveto
          -69 -32 34 66 68 42 42 116 hvcurveto
          76 hlineto
          endchar
        </CharString>
        <CharString name="approxequal">
          226 470 rmoveto
          163 callsubr
          -188 vmoveto
          164 callsubr
          endchar
        </CharString>
        <CharString name="approxequal.tosf">
          226 470 rmoveto
          163 callsubr
          -188 vmoveto
          164 callsubr
          endchar
        </CharString>
        <CharString name="aring">
          292 824 rmoveto
          -96 callsubr
          -47 vmoveto
          -95 callsubr
          186 -662 rmoveto
          -47 callsubr
          -218 -63 rmoveto
          -46 callsubr
          endchar
        </CharString>
        <CharString name="arrowboth">
          674 329 rmoveto
          -246 277 -62 -53 117 -129 rlineto
          27 -31 8 -9 29 -18 rrcurveto
          -494 hlineto
          29 18 8 9 27 31 rrcurveto
          119 129 -62 53 -248 -277 247 -277 63 53 -119 129 rlineto
          -20 22 -20 20 -24 16 rrcurveto
          494 hlineto
          -24 -16 -21 -20 -19 -22 rrcurveto
          -116 -129 63 -53 rlineto
          endchar
        </CharString>
        <CharString name="arrowdown">
          342 631 rmoveto
          -84 -549 hlineto
          -16 31 -20 20 -23 19 rrcurveto
          -161 148 -51 -57 313 -279 313 279 -51 57 -161 -148 rlineto
          -23 -20 -20 -19 -16 -31 rrcurveto
          endchar
        </CharString>
        <CharString name="arrowleft">
          294 634 rmoveto
          -271 -305 271 -305 63 54 -143 156 rlineto
          -20 22 -20 20 -24 16 rrcurveto
          427 74 -427 hlineto
          29 18 7 9 28 31 rrcurveto
          143 156 rlineto
          endchar
        </CharString>
        <CharString name="arrowright">
          306 634 rmoveto
          -63 -54 143 -156 rlineto
          28 -31 7 -9 29 -18 rrcurveto
          -427 -74 427 hlineto
          -24 -16 -20 -20 -20 -22 rrcurveto
          -143 -156 63 -54 271 305 rlineto
          endchar
        </CharString>
        <CharString name="arrowup">
          300 668 rmoveto
          -313 -279 51 -57 161 147 rlineto
          23 20 20 19 16 32 rrcurveto
          -550 84 550 vlineto
          16 -31 20 -20 23 -20 rrcurveto
          161 -147 51 57 rlineto
          endchar
        </CharString>
        <CharString name="arrowupdn">
          300 865 rmoveto
          -313 -279 51 -56 161 147 rlineto
          23 20 20 19 16 31 rrcurveto
          -815 vlineto
          -16 32 -20 19 -23 20 rrcurveto
          -161 147 -51 -56 313 -279 313 279 -51 56 -161 -147 rlineto
          -23 -20 -20 -20 -16 -31 rrcurveto
          815 vlineto
          16 -31 20 -19 23 -20 rrcurveto
          161 -147 51 56 rlineto
          endchar
        </CharString>
        <CharString name="asciicircum">
          337 840 rmoveto
          -74 0 -189 -313 90 0 135 237 136 -237 91 0 rlineto
          endchar
        </CharString>
        <CharString name="asciicircum_equal.liga">
          -20 442 rmoveto
          -193 318 -74 0 -189 -313 90 0 135 237 180 -314 515 0 0 72 rlineto
          -515 -262 rmoveto
          515 72 -515 hlineto
          endchar
        </CharString>
        <CharString name="asciitilde">
          205 401 rmoveto
          165 callsubr
          endchar
        </CharString>
        <CharString name="asciitilde.tosf">
          205 401 rmoveto
          165 callsubr
          endchar
        </CharString>
        <CharString name="asciitilde_asciitilde.liga">
          388 386 rmoveto
          234 callsubr
          endchar
        </CharString>
        <CharString name="asciitilde_asciitilde_greater.liga">
          306 618 rmoveto
          -63 -54 143 -156 26 -29 rlineto
          -87 -12 -15 -70 -61 0 -68 0 -17 100 -115 0 -114 0 -17 -100 -69 0 -68 0 -19 100 -113 0 -114 0 -17 -100 -69 0 -68 0 -17 100 -115 0 rrcurveto
          -114 0 -17 -100 -69 0 -36 0 -38 36 -23 46 rrcurveto
          -71 -35 rlineto
          20 -49 75 -70 73 0 115 0 17 100 68 0 69 0 17 -106 114 0 115 0 16 95 69 0 68 0 19 -89 113 0 115 0 17 100 68 0 rrcurveto
          69 0 17 -106 114 0 113 0 2 72 83 8 rrcurveto
          0 53 3 -2 0 -74 rlineto
          -24 -16 -20 -20 -20 -22 rrcurveto
          -143 -156 63 -54 271 305 rlineto
          endchar
        </CharString>
        <CharString name="asciitilde_at.liga">
          284 700 rmoveto
          -50 0 -155 -4 -72 -91 -58 -72 -34 -116 -18 -31 -26 -48 -32 -37 -41 0 -61 0 -32 100 -100 0 -89 0 -43 -70 -30 -58 rrcurveto
          60 -30 rlineto
          26 48 30 37 43 0 64 0 35 -100 94 0 88 0 44 69 30 57 17 33 29 103 54 64 58 70 134 2 36 0 rrcurveto
          183 31 -151 -191 -172 1 -135 -63 -39 -31 24 107 hvcurveto
          296 vlineto
          -56 30 -39 7 -46 0 rrcurveto
          -124 -72 -83 -175 -132 41 -97 109 hvcurveto
          80 0 38 51 19 47 rrcurveto
          4 hlineto
          -1 -49 35 -94 84 0 rrcurveto
          120 27 124 252 204 -44 211 -258 hvcurveto
          9 -595 rmoveto
          -12 -28 -21 -60 -70 0 rrcurveto
          -60 -19 69 97 130 27 66 91 hvcurveto
          24 0 19 -4 21 -10 rrcurveto
          endchar
        </CharString>
        <CharString name="asciitilde_equal.liga">
          -150 502 rmoveto
          -113 0 -64 -81 -30 -58 rrcurveto
          60 -28 rlineto
          26 48 51 48 67 0 81 0 90 -111 113 0 115 0 81 69 30 57 rrcurveto
          -60 29 rlineto
          -26 -47 -68 -38 -69 0 -80 0 -86 112 -118 0 rrcurveto
          494 -250 rmoveto
          -688 -72 688 hlineto
          endchar
        </CharString>
        <CharString name="asciitilde_greater.liga">
          197 618 rmoveto
          -63 -54 143 -156 rlineto
          11 -13 8 -9 8 -7 -85 -13 -16 -69 -60 0 -68 0 -17 100 -115 0 -115 0 -17 -100 -68 0 -37 0 -37 36 -23 46 rrcurveto
          -71 -35 rlineto
          20 -49 75 -70 73 0 115 0 17 100 68 0 68 0 17 -106 115 0 113 0 2 72 83 8 rrcurveto
          -23 vlineto
          -24 -16 -20 -20 -20 -22 rrcurveto
          -143 -156 63 -54 271 305 rlineto
          endchar
        </CharString>
        <CharString name="asciitilde_hyphen.liga">
          -417 240 rmoveto
          26 48 32 37 41 0 61 0 32 -100 100 0 82 0 5 51 80 1 rrcurveto
          433 72 -449 hlineto
          -75 0 -10 -51 -63 0 -64 0 -35 100 -94 0 -88 0 -44 -69 -30 -57 rrcurveto
          endchar
        </CharString>
        <CharString name="asterisk">
          258 578 rmoveto
          94 callsubr
          endchar
        </CharString>
        <CharString name="asterisk.lc">
          258 538 rmoveto
          94 callsubr
          endchar
        </CharString>
        <CharString name="asterisk_asterisk.liga">
          657 -317 578 rmoveto
          94 callsubr
          544 202 rmoveto
          94 callsubr
          endchar
        </CharString>
        <CharString name="asterisk_asterisk_asterisk.liga">
          -342 728 rmoveto
          94 callsubr
          -506 52 rmoveto
          94 callsubr
          994 202 rmoveto
          94 callsubr
          endchar
        </CharString>
        <CharString name="asterisk_greater.liga">
          -293 631 rmoveto
          124 callsubr
          242 -12 rmoveto
          125 callsubr
          endchar
        </CharString>
        <CharString name="asterisk_slash.liga">
          38 -103 rmoveto
          109 callsubr
          -276 675 rmoveto
          94 callsubr
          endchar
        </CharString>
        <CharString name="at">
          284 700 rmoveto
          -89 0 -96 -32 -90 -77 rrcurveto
          49 -57 rlineto
          84 75 77 17 66 0 rrcurveto
          183 31 -151 -191 -172 1 -135 -63 -39 -31 24 107 hvcurveto
          296 vlineto
          -56 30 -39 7 -46 0 rrcurveto
          -124 -72 -83 -175 -132 41 -97 109 hvcurveto
          80 0 38 51 19 47 rrcurveto
          4 hlineto
          -1 -49 35 -94 84 0 rrcurveto
          120 27 124 252 204 -44 211 -258 hvcurveto
          -55 -321 rmoveto
          24 0 19 -4 21 -10 rrcurveto
          -260 vlineto
          -12 -28 -21 -60 -70 0 rrcurveto
          -60 -19 69 97 130 27 66 91 hvcurveto
          endchar
        </CharString>
        <CharString name="atilde">
          350 659 rmoveto
          -94 callsubr
          128 -544 rmoveto
          -47 callsubr
          -218 -63 rmoveto
          -46 callsubr
          endchar
        </CharString>
        <CharString name="b">
          184 458 rmoveto
          0 291 -84 -10 0 -739 74 0 6 55 rlineto
          36 -46 47 -20 60 0 rrcurveto
          136 73 115 160 165 -57 109 -140 hvcurveto
          -61 0 -51 -29 -39 -51 rrcurveto
          120 -401 rmoveto
          -49 0 -43 25 -28 43 rrcurveto
          261 vlineto
          29 42 45 42 58 0 rrcurveto
          82 43 -69 -137 -140 -50 -67 -87 hvcurveto
          endchar
        </CharString>
        <CharString name="backslash">
          53 777 rmoveto
          95 callsubr
          endchar
        </CharString>
        <CharString name="backslash_backslash.liga">
          -497 777 rmoveto
          95 callsubr
          434 -32 rmoveto
          95 callsubr
          endchar
        </CharString>
        <CharString name="backslash_backslash_backslash.liga">
          -1047 777 rmoveto
          95 callsubr
          434 -32 rmoveto
          95 callsubr
          434 -32 rmoveto
          95 callsubr
          endchar
        </CharString>
        <CharString name="bar">
          337 807 rmoveto
          -75 -909 75 hlineto
          endchar
        </CharString>
        <CharString name="bar_bar.liga">
          -143 807 rmoveto
          -75 -909 75 hlineto
          360 909 rmoveto
          -75 -909 75 hlineto
          endchar
        </CharString>
        <CharString name="bar_bar_bar_greater.liga">
          -1231 712 rmoveto
          -76 -801 76 hlineto
          460 801 rmoveto
          -76 -801 76 hlineto
          440 801 rmoveto
          221 callsubr
          -577 -355 rmoveto
          222 callsubr
          endchar
        </CharString>
        <CharString name="bar_bar_equal.liga">
          -863 724 rmoveto
          -75 -826 75 hlineto
          350 826 rmoveto
          -75 -826 75 hlineto
          907 544 rmoveto
          -688 -72 688 hlineto
          -118 vmoveto
          -688 -72 688 hlineto
          endchar
        </CharString>
        <CharString name="bar_bar_greater.liga">
          -680 712 rmoveto
          -76 -801 76 hlineto
          399 801 rmoveto
          221 callsubr
          -577 -355 rmoveto
          222 callsubr
          endchar
        </CharString>
        <CharString name="bar_equal.liga">
          -263 724 rmoveto
          -75 -826 75 hlineto
          657 544 rmoveto
          -509 -72 509 hlineto
          -118 vmoveto
          -509 -72 509 hlineto
          endchar
        </CharString>
        <CharString name="bar_greater.liga">
          -231 712 rmoveto
          221 callsubr
          -577 -355 rmoveto
          222 callsubr
          endchar
        </CharString>
        <CharString name="beta">
          342 404 rmoveto
          82 10 69 52 0 105 rrcurveto
          112 -93 65 -108 -125 -76 -78 -130 vhcurveto
          0 -752 84 11 0 241 rlineto
          44 -34 52 -17 54 0 116 0 106 82 0 131 0 151 -109 41 -96 10 rrcurveto
          -25 -346 rmoveto
          -61 0 -45 15 -36 36 rrcurveto
          430 vlineto
          97 40 46 78 70 52 -37 -82 -94 -56 -38 -69 vhcurveto
          -53 0 -10 -65 54 0 rlineto
          117 63 -56 -108 -95 -65 -49 -79 hvcurveto
          endchar
        </CharString>
        <CharString name="block">
          600 1000 rmoveto
          -600 -1500 600 hlineto
          endchar
        </CharString>
        <CharString name="braceleft">
          451 836 rmoveto
          112 callsubr
          endchar
        </CharString>
        <CharString name="braceleft.case">
          451 826 rmoveto
          112 callsubr
          endchar
        </CharString>
        <CharString name="braceright">
          149 836 rmoveto
          113 callsubr
          endchar
        </CharString>
        <CharString name="braceright.case">
          149 826 rmoveto
          113 callsubr
          endchar
        </CharString>
        <CharString name="bracketleft">
          184 -115 rmoveto
          114 callsubr
          endchar
        </CharString>
        <CharString name="bracketleft.case">
          184 -125 rmoveto
          114 callsubr
          endchar
        </CharString>
        <CharString name="bracketright">
          416 815 rmoveto
          115 callsubr
          endchar
        </CharString>
        <CharString name="bracketright.case">
          416 805 rmoveto
          115 callsubr
          endchar
        </CharString>
        <CharString name="bracketright_numbersign.liga">
          487 456 rmoveto
          66 -80 vlineto
          23 167 -71 0 -23 -167 -146 0 23 167 -71 0 -23 -167 -303 0 0 293 -251 0 0 -72 171 0 0 -787 -171 0 0 -71 rlineto
          251 285 256 hlineto
          -22 -170 71 0 23 170 145 0 -22 -170 71 0 21 170 91 0 0 64 -81 0 29 222 rlineto
          -318 -222 rmoveto
          -264 222 295 hlineto
          186 -222 rmoveto
          126 callsubr
          endchar
        </CharString>
        <CharString name="breve">
          298 630 rmoveto
          -44 callsubr
          endchar
        </CharString>
        <CharString name="breve.case">
          299 759 rmoveto
          -102 callsubr
          endchar
        </CharString>
        <CharString name="brevecy">
          299 647 rmoveto
          4 callsubr
          endchar
        </CharString>
        <CharString name="brevecy.case">
          298 773 rmoveto
          4 callsubr
          endchar
        </CharString>
        <CharString name="brokenbar">
          337 807 rmoveto
          -75 -355 75 hlineto
          -199 vmoveto
          -75 -355 75 hlineto
          endchar
        </CharString>
        <CharString name="bullet">
          300 220 rmoveto
          97 callsubr
          endchar
        </CharString>
        <CharString name="c">
          339 61 rmoveto
          -38 callsubr
          endchar
        </CharString>
        <CharString name="cacute">
          428 788 rmoveto
          -45 callsubr
          -127 -655 rmoveto
          -38 callsubr
          endchar
        </CharString>
        <CharString name="cacute.loclPLK">
          398 762 rmoveto
          -1 callsubr
          -125 -658 rmoveto
          -38 callsubr
          endchar
        </CharString>
        <CharString name="caron">
          425 789 rmoveto
          -37 callsubr
          endchar
        </CharString>
        <CharString name="caron.alt">
          279 698 rmoveto
          -73 callsubr
          endchar
        </CharString>
        <CharString name="caron.case">
          426 905 rmoveto
          -87 callsubr
          endchar
        </CharString>
        <CharString name="ccaron">
          469 780 rmoveto
          -37 callsubr
          -168 -678 rmoveto
          -38 callsubr
          endchar
        </CharString>
        <CharString name="ccedilla">
          359 -57 rmoveto
          47 vlineto
          56 4 61 23 40 35 rrcurveto
          -40 55 rlineto
          -40 -27 -44 -19 -53 0 rrcurveto
          -91 -66 59 141 139 65 67 91 hvcurveto
          47 0 44 -16 45 -30 rrcurveto
          41 55 rlineto
          -49 41 -59 21 -68 0 -157 0 -91 -119 0 -158 0 -151 75 -102 133 -17 rrcurveto
          -6 -88 rlineto
          53 33 -7 -37 -29 -24 -12 -36 hvcurveto
          -22 0 -26 6 -19 10 rrcurveto
          -27 -48 rlineto
          26 -15 39 -9 40 0 64 0 58 32 0 66 0 39 -28 38 -65 6 rrcurveto
          endchar
        </CharString>
        <CharString name="ccircumflex">
          221 620 rmoveto
          -43 callsubr
          158 -600 rmoveto
          -38 callsubr
          endchar
        </CharString>
        <CharString name="cdotaccent">
          343 764 rmoveto
          -86 callsubr
          -4 -703 rmoveto
          -38 callsubr
          endchar
        </CharString>
        <CharString name="cedilla">
          340 -141 rmoveto
          236 callsubr
          endchar
        </CharString>
        <CharString name="cedilla.case">
          340 -141 rmoveto
          236 callsubr
          endchar
        </CharString>
        <CharString name="cent">
          373 683 rmoveto
          134 callsubr
          endchar
        </CharString>
        <CharString name="cent.tosf">
          373 683 rmoveto
          134 callsubr
          endchar
        </CharString>
        <CharString name="chi">
          357 188 rmoveto
          177 341 -89 5 -138 -295 rlineto
          -61 159 -47 75 -63 64 rrcurveto
          -82 -31 rlineto
          73 -75 43 -55 86 -193 rrcurveto
          -197 -385 86 -6 162 331 158 -333 88 7 rlineto
          endchar
        </CharString>
        <CharString name="circle">
          300 540 rmoveto
          193 callsubr
          -80 vmoveto
          194 callsubr
          endchar
        </CharString>
        <CharString name="circumflex">
          177 629 rmoveto
          -43 callsubr
          endchar
        </CharString>
        <CharString name="circumflex.case">
          329 910 rmoveto
          -101 callsubr
          endchar
        </CharString>
        <CharString name="club">
          300 539 rmoveto
          -72 -48 -31 -64 hvcurveto
          0 -54 27 -26 27 -22 -26 11 -11 3 -30 0 rrcurveto
          -64 -33 -44 -73 -62 44 -43 60 hvcurveto
          47 0 33 20 28 46 rrcurveto
          -16 -135 -156 0 -40 -65 460 0 -40 65 -156 0 -16 135 rlineto
          27 -46 33 -20 48 0 rrcurveto
          60 44 43 62 73 -33 44 -64 hvcurveto
          -30 0 -11 -3 -26 -11 27 22 27 26 0 54 rrcurveto
          64 -48 31 -72 vhcurveto
          endchar
        </CharString>
        <CharString name="colon">
          219 431 rmoveto
          98 callsubr
          -361 vmoveto
          99 callsubr
          endchar
        </CharString>
        <CharString name="colon.uc">
          219 511 rmoveto
          98 callsubr
          -361 vmoveto
          99 callsubr
          endchar
        </CharString>
        <CharString name="colon_colon.liga">
          -281 431 rmoveto
          98 callsubr
          400 hmoveto
          98 callsubr
          -400 -361 rmoveto
          99 callsubr
          400 hmoveto
          99 callsubr
          endchar
        </CharString>
        <CharString name="colon_colon_colon.liga">
          -861 431 rmoveto
          98 callsubr
          480 hmoveto
          98 callsubr
          480 hmoveto
          98 callsubr
          -960 -361 rmoveto
          99 callsubr
          480 hmoveto
          99 callsubr
          480 hmoveto
          99 callsubr
          endchar
        </CharString>
        <CharString name="colon_equal.liga">
          -384 434 rmoveto
          127 callsubr
          878 8 rmoveto
          128 callsubr
          -878 -182 rmoveto
          129 callsubr
          878 64 rmoveto
          128 callsubr
          endchar
        </CharString>
        <CharString name="comma">
          300 165 rmoveto
          -45 -35 -36 -45 hvcurveto
          0 -26 13 -26 19 -14 rrcurveto
          -47 -197 76 0 81 185 rlineto
          14 31 5 23 0 25 rrcurveto
          44 -35 36 -46 vhcurveto
          endchar
        </CharString>
        <CharString name="copyright">
          301 747 rmoveto
          -173 -99 -139 -173 -171 100 -139 172 172 98 139 171 173 -98 139 -172 hvcurveto
          -50 vmoveto
          144 71 -117 -145 -144 -71 -115 -144 -145 -71 115 144 145 71 117 145 hvcurveto
          3 -72 rmoveto
          -86 -76 -65 -124 -122 68 -67 95 hvcurveto
          56 0 38 22 28 25 rrcurveto
          -33 48 rlineto
          -24 -22 -26 -13 -36 0 rrcurveto
          -56 -38 41 88 95 41 38 53 hvcurveto
          26 0 26 -10 26 -20 rrcurveto
          36 47 rlineto
          -36 27 -30 12 -52 0 rrcurveto
          endchar
        </CharString>
        <CharString name="currency">
          89 610 rmoveto
          135 callsubr
          124 -34 rmoveto
          136 callsubr
          endchar
        </CharString>
        <CharString name="currency.tosf">
          89 610 rmoveto
          135 callsubr
          124 -34 rmoveto
          136 callsubr
          endchar
        </CharString>
        <CharString name="d">
          416 749 rmoveto
          -36 callsubr
          -204 -269 rmoveto
          -35 callsubr
          endchar
        </CharString>
        <CharString name="dagger">
          340 677 rmoveto
          216 callsubr
          endchar
        </CharString>
        <CharString name="dagger.tosf">
          341 677 rmoveto
          216 callsubr
          endchar
        </CharString>
        <CharString name="daggerdbl">
          340 677 rmoveto
          217 callsubr
          endchar
        </CharString>
        <CharString name="daggerdbl.tosf">
          341 677 rmoveto
          217 callsubr
          endchar
        </CharString>
        <CharString name="dcaron">
          387 749 rmoveto
          -36 callsubr
          66 9 rmoveto
          -73 callsubr
          -346 -268 rmoveto
          -35 callsubr
          endchar
        </CharString>
        <CharString name="dcroat">
          581 665 rmoveto
          -79 74 hlineto
          -84 10 0 -84 -171 0 0 -68 171 0 0 -122 rlineto
          -36 41 -45 22 -61 0 rrcurveto
          -129 -77 -117 -158 -164 63 -110 138 hvcurveto
          57 0 53 25 39 55 rrcurveto
          8 -69 74 0 0 597 79 0 rlineto
          -163 -457 rmoveto
          -29 -44 -41 -40 -60 0 rrcurveto
          -83 -44 70 137 139 50 68 87 hvcurveto
          49 0 42 -25 29 -43 rrcurveto
          endchar
        </CharString>
        <CharString name="degree">
          228 749 rmoveto
          214 callsubr
          -60 vmoveto
          215 callsubr
          endchar
        </CharString>
        <CharString name="degree.tosf">
          228 749 rmoveto
          214 callsubr
          -60 vmoveto
          215 callsubr
          endchar
        </CharString>
        <CharString name="delta">
          318 749 rmoveto
          -107 -81 -49 -89 hvcurveto
          0 -54 26 -39 71 -36 -89 -35 -70 -83 0 -121 rrcurveto
          -139 87 -115 148 148 88 120 135 vhcurveto
          0 151 -66 67 -136 55 -87 36 -32 15 0 46 0 44 36 26 59 0 45 0 38 -10 45 -35 rrcurveto
          42 50 rlineto
          -46 39 -48 21 -71 0 rrcurveto
          -27 -295 rmoveto
          119 -50 38 -41 0 -120 rrcurveto
          -120 -54 -65 -91 -91 -53 70 114 vhcurveto
          0 101 36 67 96 44 rrcurveto
          endchar
        </CharString>
        <CharString name="diamond">
          300 539 rmoveto
          -196 -273 196 -278 196 278 rlineto
          endchar
        </CharString>
        <CharString name="dieresis">
          196 648 rmoveto
          -100 callsubr
          207 hmoveto
          -99 callsubr
          endchar
        </CharString>
        <CharString name="dieresis.case">
          195 767 rmoveto
          -100 callsubr
          207 hmoveto
          -99 callsubr
          endchar
        </CharString>
        <CharString name="dieresistonos">
          298 914 rmoveto
          63 callsubr
          -189 -160 rmoveto
          64 callsubr
          203 hmoveto
          65 callsubr
          endchar
        </CharString>
        <CharString name="divide">
          300 575 rmoveto
          155 callsubr
          184 -227 rmoveto
          -368 -72 368 hlineto
          -184 -93 rmoveto
          156 callsubr
          endchar
        </CharString>
        <CharString name="divide.tosf">
          300 575 rmoveto
          155 callsubr
          184 -227 rmoveto
          -368 -72 368 hlineto
          -184 -93 rmoveto
          156 callsubr
          endchar
        </CharString>
        <CharString name="dkshade">
          600 1000 rmoveto
          -600 -1500 50 75 50 -75 50 75 50 -75 50 75 50 -75 50 hlineto
          75 50 -75 50 75 50 -75 50 75 50 75 -50 75 50 75 vlineto
          -50 75 50 75 -50 75 50 75 -50 75 50 75 -50 75 50 hlineto
          75 -50 75 50 75 -50 75 50 75 -50 75 50 75 -50 75 vlineto
          50 hlineto
          -500 hmoveto
          -75 -50 75 vlineto
          150 hmoveto
          -75 -50 75 vlineto
          150 hmoveto
          -75 -50 75 vlineto
          150 hmoveto
          -75 -50 75 vlineto
          150 hmoveto
          -75 -50 75 vlineto
          -350 -150 rmoveto
          -75 -50 75 vlineto
          150 hmoveto
          -75 -50 75 vlineto
          150 hmoveto
          -75 -50 75 vlineto
          150 hmoveto
          -75 -50 75 vlineto
          150 hmoveto
          -75 -50 75 vlineto
          -350 -150 rmoveto
          -75 -50 75 vlineto
          150 hmoveto
          -75 -50 75 vlineto
          150 hmoveto
          -75 -50 75 vlineto
          150 hmoveto
          -75 -50 75 vlineto
          150 hmoveto
          -75 -50 75 vlineto
          -350 -150 rmoveto
          -75 -50 75 vlineto
          150 hmoveto
          -75 -50 75 vlineto
          150 hmoveto
          -75 -50 75 vlineto
          150 hmoveto
          -75 -50 75 vlineto
          150 hmoveto
          -75 -50 75 vlineto
          -350 -150 rmoveto
          -75 -50 75 vlineto
          150 hmoveto
          -75 -50 75 vlineto
          150 hmoveto
          -75 -50 75 vlineto
          150 hmoveto
          -75 -50 75 vlineto
          150 hmoveto
          -75 -50 75 vlineto
          -350 -150 rmoveto
          -75 -50 75 vlineto
          150 hmoveto
          -75 -50 75 vlineto
          150 hmoveto
          -75 -50 75 vlineto
          150 hmoveto
          -75 -50 75 vlineto
          150 hmoveto
          -75 -50 75 vlineto
          -350 -150 rmoveto
          -75 -50 75 vlineto
          150 hmoveto
          -75 -50 75 vlineto
          150 hmoveto
          -75 -50 75 vlineto
          150 hmoveto
          -75 -50 75 vlineto
          150 hmoveto
          -75 -50 75 vlineto
          -350 -150 rmoveto
          -75 -50 75 vlineto
          150 hmoveto
          -75 -50 75 vlineto
          150 hmoveto
          -75 -50 75 vlineto
          150 hmoveto
          -75 -50 75 vlineto
          150 hmoveto
          -75 -50 75 vlineto
          -350 -150 rmoveto
          -75 -50 75 vlineto
          150 hmoveto
          -75 -50 75 vlineto
          150 hmoveto
          -75 -50 75 vlineto
          150 hmoveto
          -75 -50 75 vlineto
          150 hmoveto
          -75 -50 75 vlineto
          endchar
        </CharString>
        <CharString name="dnblock">
          600 250 rmoveto
          -600 -750 600 hlineto
          endchar
        </CharString>
        <CharString name="dollar">
          346 848 rmoveto
          137 callsubr
          -68 -72 rmoveto
          138 callsubr
          68 -312 rmoveto
          139 callsubr
          endchar
        </CharString>
        <CharString name="dollar.tosf">
          346 848 rmoveto
          137 callsubr
          -68 -72 rmoveto
          138 callsubr
          68 -312 rmoveto
          139 callsubr
          endchar
        </CharString>
        <CharString name="dollar_greater.liga">
          88 619 rmoveto
          -68 44 -95 31 -79 8 rrcurveto
          146 -68 -145 vlineto
          -123 -12 -60 -83 0 -80 0 -93 66 -59 117 -39 rrcurveto
          -317 vlineto
          -66 -4 -52 8 -117 70 rrcurveto
          -89 vlineto
          99 -53 49 -12 87 3 rrcurveto
          -96 68 98 vlineto
          124 18 93 88 0 126 0 124 -117 67 -100 33 rrcurveto
          235 vlineto
          50 -6 72 -23 120 -77 rrcurveto
          353 -217 -276 -168 -22 -108 370 233 0 86 rlineto
          -735 67 rmoveto
          223 callsubr
          194 -457 rmoveto
          224 callsubr
          endchar
        </CharString>
        <CharString name="dotaccent">
          299 773 rmoveto
          -86 callsubr
          endchar
        </CharString>
        <CharString name="dotaccent.case">
          298 892 rmoveto
          -86 callsubr
          endchar
        </CharString>
        <CharString name="dotlessi">
          367 527 rmoveto
          -26 callsubr
          endchar
        </CharString>
        <CharString name="e">
          167 234 rmoveto
          -34 callsubr
          142 235 rmoveto
          -33 callsubr
          endchar
        </CharString>
        <CharString name="eacute">
          394 797 rmoveto
          -45 callsubr
          -265 -491 rmoveto
          -34 callsubr
          142 235 rmoveto
          -33 callsubr
          endchar
        </CharString>
        <CharString name="ebreve">
          308 630 rmoveto
          -44 callsubr
          -141 -396 rmoveto
          -34 callsubr
          142 235 rmoveto
          -33 callsubr
          endchar
        </CharString>
        <CharString name="ecaron">
          435 789 rmoveto
          -37 callsubr
          -306 -514 rmoveto
          -34 callsubr
          142 235 rmoveto
          -33 callsubr
          endchar
        </CharString>
        <CharString name="ecircumflex">
          187 629 rmoveto
          -43 callsubr
          20 -436 rmoveto
          -34 callsubr
          142 235 rmoveto
          -33 callsubr
          endchar
        </CharString>
        <CharString name="edieresis">
          206 648 rmoveto
          -100 callsubr
          207 hmoveto
          -99 callsubr
          -246 -414 rmoveto
          -34 callsubr
          142 235 rmoveto
          -33 callsubr
          endchar
        </CharString>
        <CharString name="edotaccent">
          309 773 rmoveto
          -86 callsubr
          -142 -539 rmoveto
          -34 callsubr
          142 235 rmoveto
          -33 callsubr
          endchar
        </CharString>
        <CharString name="egrave">
          397 622 rmoveto
          -42 callsubr
          -27 -481 rmoveto
          -34 callsubr
          142 235 rmoveto
          -33 callsubr
          endchar
        </CharString>
        <CharString name="eight">
          506 525 rmoveto
          122 -106 53 -100 -91 -115 -54 -126 vhcurveto
          0 -77 36 -45 74 -35 -84 -39 -55 -57 0 -84 rrcurveto
          -109 85 -85 148 145 92 83 113 vhcurveto
          0 84 -58 63 -90 37 76 42 43 47 0 67 rrcurveto
          -330 -6 rmoveto
          76 callsubr
          270 -336 rmoveto
          77 callsubr
          endchar
        </CharString>
        <CharString name="eight.dnom">
          441 244 rmoveto
          88 callsubr
          -209 -3 rmoveto
          89 callsubr
          152 -146 rmoveto
          90 callsubr
          endchar
        </CharString>
        <CharString name="eight.numr">
          441 612 rmoveto
          88 callsubr
          -209 -3 rmoveto
          89 callsubr
          152 -146 rmoveto
          90 callsubr
          endchar
        </CharString>
        <CharString name="eight.tosf">
          506 525 rmoveto
          119 -106 56 -100 -91 -115 -55 -125 vhcurveto
          0 -77 39 -44 71 -36 -84 -39 -55 -57 0 -84 rrcurveto
          -109 85 -85 148 145 92 83 113 vhcurveto
          0 84 -58 63 -90 37 76 40 43 46 0 70 rrcurveto
          -330 -6 rmoveto
          76 callsubr
          270 -336 rmoveto
          77 callsubr
          endchar
        </CharString>
        <CharString name="ellipsis">
          32 57 rmoveto
          100 callsubr
          200 hmoveto
          -38 30 -30 38 38 29 30 38 37 -29 30 -38 -38 -30 -30 -37 vhcurveto
          201 hmoveto
          100 callsubr
          endchar
        </CharString>
        <CharString name="emacron">
          444 676 rmoveto
          -97 callsubr
          -8 -442 rmoveto
          -34 callsubr
          142 235 rmoveto
          -33 callsubr
          endchar
        </CharString>
        <CharString name="emdash">
          277 vmoveto
          600 72 -600 hlineto
          endchar
        </CharString>
        <CharString name="emdash.case">
          317 vmoveto
          600 72 -600 hlineto
          endchar
        </CharString>
        <CharString name="endash">
          33 277 rmoveto
          534 72 -534 hlineto
          endchar
        </CharString>
        <CharString name="endash.case">
          33 317 rmoveto
          534 72 -534 hlineto
          endchar
        </CharString>
        <CharString name="eng">
          501 29 rmoveto
          353 vlineto
          98 -45 58 -103 vhcurveto
          -62 0 -70 -31 -42 -54 rrcurveto
          -7 74 -72 0 0 -527 84 0 0 384 rlineto
          28 41 54 46 59 0 rrcurveto
          82 10 -43 -108 hvcurveto
          -297 vlineto
          0 -115 -33 -25 -69 -33 rrcurveto
          31 -61 rlineto
          103 47 52 43 0 150 rrcurveto
          endchar
        </CharString>
        <CharString name="eogonek">
          523 279 rmoveto
          160 -82 99 -133 -140 -89 -116 -159 vhcurveto
          0 -157 80 -108 142 -8 -68 -28 -35 -42 0 -51 0 -56 46 -42 76 0 27 0 16 3 21 3 rrcurveto
          8 68 rlineto
          -24 -5 -16 -2 -21 0 -42 0 -14 18 0 30 0 35 21 34 103 45 37 10 35 18 29 22 rrcurveto
          -39 56 rlineto
          -47 -31 -40 -16 -54 0 -81 0 -68 53 -4 122 rrcurveto
          354 hlineto
          1 11 1 16 0 18 rrcurveto
          -356 19 rmoveto
          7 116 57 55 78 0 80 0 50 -58 2 -113 rrcurveto
          endchar
        </CharString>
        <CharString name="epsilon">
          391 241 rmoveto
          55 callsubr
          endchar
        </CharString>
        <CharString name="epsilontonos">
          323 808 rmoveto
          62 callsubr
          -21 -550 rmoveto
          55 callsubr
          endchar
        </CharString>
        <CharString name="equal">
          494 442 rmoveto
          151 callsubr
          -118 vmoveto
          151 callsubr
          endchar
        </CharString>
        <CharString name="equal.dnom">
          417 257 rmoveto
          150 callsubr
          -57 vmoveto
          150 callsubr
          endchar
        </CharString>
        <CharString name="equal.numr">
          417 625 rmoveto
          150 callsubr
          -57 vmoveto
          150 callsubr
          endchar
        </CharString>
        <CharString name="equal.tosf">
          494 442 rmoveto
          151 callsubr
          -118 vmoveto
          151 callsubr
          endchar
        </CharString>
        <CharString name="equal_colon_equal.liga">
          -382 434 rmoveto
          127 callsubr
          -164 8 rmoveto
          128 callsubr
          1042 72 rmoveto
          128 callsubr
          -878 -182 rmoveto
          129 callsubr
          -164 64 rmoveto
          128 callsubr
          1042 72 rmoveto
          128 callsubr
          endchar
        </CharString>
        <CharString name="equal_equal.liga">
          494 442 rmoveto
          -988 -72 988 hlineto
          -118 vmoveto
          -988 -72 988 hlineto
          endchar
        </CharString>
        <CharString name="equal_equal_equal.liga">
          494 538 rmoveto
          -1588 -73 1588 hlineto
          -117 vmoveto
          -1588 -72 1588 hlineto
          -118 vmoveto
          -1588 -72 1588 hlineto
          endchar
        </CharString>
        <CharString name="equal_equal_greater.liga">
          256 616 rmoveto
          -63 -54 63 -68 rlineto
          15 -17 17 -17 30 -18 rrcurveto
          -1391 -72 1442 hlineto
          53 -59 -53 -59 -1442 0 0 -72 1391 0 rlineto
          -30 -18 -17 -16 -15 -17 rrcurveto
          -63 -69 63 -54 271 305 rlineto
          endchar
        </CharString>
        <CharString name="equal_greater.liga">
          256 616 rmoveto
          -63 -54 63 -68 rlineto
          15 -17 17 -17 30 -18 rrcurveto
          -791 -72 842 hlineto
          53 -59 -53 -59 -842 0 0 -72 791 0 rlineto
          -30 -18 -17 -16 -15 -17 rrcurveto
          -63 -69 63 -54 271 305 rlineto
          endchar
        </CharString>
        <CharString name="equal_greater_greater.liga">
          -47 616 rmoveto
          -63 -54 63 -68 rlineto
          15 -17 17 -17 30 -18 rrcurveto
          -1088 -72 1139 hlineto
          53 -59 -53 -59 -1139 0 0 -72 1088 0 rlineto
          -30 -18 -17 -16 -15 -17 rrcurveto
          -63 -69 63 -54 271 305 rlineto
          -18 305 rmoveto
          130 callsubr
          endchar
        </CharString>
        <CharString name="equal_less.liga">
          289 550 rmoveto
          226 callsubr
          -105 -272 rmoveto
          227 callsubr
          endchar
        </CharString>
        <CharString name="equal_less_less.liga">
          -994 442 rmoveto
          -72 1020 vlineto
          203 223 -63 53 -181 -204 rlineto
          409 174 rmoveto
          228 callsubr
          -1451 -310 rmoveto
          -72 979 vlineto
          181 -204 63 53 -203 223 rlineto
          endchar
        </CharString>
        <CharString name="equal_slash_equal.liga">
          494 370 rmoveto
          72 -676 vlineto
          107 180 -65 33 -128 -213 -826 0 0 -72 783 0 -70 -118 -713 0 0 -72 670 0 -101 -168 67 -34 120 202 832 0 0 72 rlineto
          -789 0 70 118 rlineto
          endchar
        </CharString>
        <CharString name="equivalence">
          494 538 rmoveto
          -388 -73 388 hlineto
          -117 vmoveto
          151 callsubr
          -118 vmoveto
          151 callsubr
          endchar
        </CharString>
        <CharString name="estimated">
          302 701 rmoveto
          -181 0 -79 -107 -21 -126 rrcurveto
          -254 vlineto
          24 -128 87 -98 172 0 129 0 75 58 39 77 rrcurveto
          -49 hlineto
          -34 -61 -67 -36 -92 0 -69 0 -50 18 -35 29 rrcurveto
          261 432 134 vlineto
          -21 126 -79 107 -181 0 rrcurveto
          1 -39 rmoveto
          62 0 54 -18 31 -25 rrcurveto
          -246 -299 247 vlineto
          36 28 52 14 64 0 rrcurveto
          endchar
        </CharString>
        <CharString name="eta">
          352 538 rmoveto
          56 callsubr
          endchar
        </CharString>
        <CharString name="etatonos">
          306 808 rmoveto
          62 callsubr
          -43 -253 rmoveto
          56 callsubr
          endchar
        </CharString>
        <CharString name="eth">
          170 562 rmoveto
          59 -30 79 80 rlineto
          64 -46 47 -69 18 -85 -38 44 -51 25 -68 0 rrcurveto
          -114 -99 -98 -148 -158 102 -88 126 143 94 106 169 hvcurveto
          0 191 -53 128 -119 82 rrcurveto
          62 64 -51 44 -70 -73 rlineto
          -40 21 -51 16 -58 12 rrcurveto
          -19 -66 rlineto
          47 -9 38 -12 32 -15 rrcurveto
          198 -380 rmoveto
          -138 -61 -72 -93 -83 -58 63 119 122 65 53 72 vhcurveto
          65 0 55 -29 34 -53 2 -20 2 -21 0 -24 rrcurveto
          endchar
        </CharString>
        <CharString name="exclam">
          345 689 rmoveto
          101 callsubr
          -37 -104 rmoveto
          102 callsubr
          endchar
        </CharString>
        <CharString name="exclam_equal.liga">
          494 370 rmoveto
          72 -376 vlineto
          107 180 -65 33 -128 -213 -526 0 0 -72 483 0 -70 -118 -413 0 0 -72 370 0 -101 -168 67 -34 120 202 532 0 0 72 rlineto
          -489 0 70 118 rlineto
          endchar
        </CharString>
        <CharString name="exclam_equal_equal.liga">
          494 465 rmoveto
          73 -620 vlineto
          90 151 -64 32 -109 -183 -885 0 0 -73 841 0 -70 -117 -771 0 0 -72 728 0 -70 -118 -658 0 0 -72 615 0 -85 -142 rlineto
          66 -33 104 175 888 0 0 72 -845 0 70 118 775 0 0 72 -732 0 69 117 rlineto
          endchar
        </CharString>
        <CharString name="exclam_exclam.liga">
          -135 689 rmoveto
          101 callsubr
          369 462 rmoveto
          101 callsubr
          -397 -104 rmoveto
          102 callsubr
          360 hmoveto
          102 callsubr
          endchar
        </CharString>
        <CharString name="exclamdown">
          299 499 rmoveto
          103 callsubr
          36 -239 rmoveto
          -72 0 -12 -457 97 0 rlineto
          endchar
        </CharString>
        <CharString name="exclamdown.case">
          300 700 rmoveto
          -38 -28 -30 -38 -36 28 -30 38 38 30 30 36 38 -30 30 -38 hvcurveto
          36 -242 rmoveto
          -72 0 -12 -458 97 0 rlineto
          endchar
        </CharString>
        <CharString name="f">
          411 749 rmoveto
          -109 -83 -61 -97 hvcurveto
          -105 -125 -67 125 -419 85 419 169 vlineto
          9 67 -178 0 0 107 rlineto
          58 37 29 73 vhcurveto
          40 0 39 -7 34 -15 rrcurveto
          27 63 rlineto
          -41 17 -45 11 -57 0 rrcurveto
          endchar
        </CharString>
        <CharString name="female">
          299 539 rmoveto
          -89 -71 -69 -89 hvcurveto
          0 -81 59 -62 78 -11 rrcurveto
          -82 -96 -40 96 -105 48 105 96 40 -96 83 vlineto
          77 11 59 61 0 81 rrcurveto
          89 -72 69 -89 vhcurveto
          -46 vmoveto
          211 callsubr
          endchar
        </CharString>
        <CharString name="figuredash">
          35 276 rmoveto
          530 73 -530 hlineto
          endchar
        </CharString>
        <CharString name="figuredash.tosf">
          35 276 rmoveto
          530 73 -530 hlineto
          endchar
        </CharString>
        <CharString name="filledbox">
          570 540 rmoveto
          196 callsubr
          endchar
        </CharString>
        <CharString name="filledrect">
          570 270 rmoveto
          -540 -270 540 hlineto
          endchar
        </CharString>
        <CharString name="five">
          487 689 rmoveto
          -365 -344 68 hlineto
          40 14 27 9 40 0 rrcurveto
          70 55 -37 -110 -107 -54 -56 -91 hvcurveto
          -59 0 -47 21 -42 43 rrcurveto
          -52 -51 rlineto
          53 -51 64 -31 83 0 rrcurveto
          142 91 91 138 138 -76 78 -113 hvcurveto
          -41 0 -36 -7 -41 -23 rrcurveto
          217 272 vlineto
          endchar
        </CharString>
        <CharString name="five.dnom">
          445 109 rmoveto
          84 callsubr
          endchar
        </CharString>
        <CharString name="five.numr">
          445 477 rmoveto
          84 callsubr
          endchar
        </CharString>
        <CharString name="five.tosf">
          495 563 rmoveto
          -366 -333 68 hlineto
          33 13 27 10 42 0 rrcurveto
          73 58 -37 -105 -102 -56 -56 -89 hvcurveto
          -64 0 -43 21 -41 43 rrcurveto
          -52 -50 rlineto
          52 -52 60 -31 88 0 rrcurveto
          139 93 92 132 133 -78 78 -117 hvcurveto
          -43 0 -34 -7 -36 -19 rrcurveto
          203 273 vlineto
          endchar
        </CharString>
        <CharString name="fiveeighths">
          288 477 rmoveto
          84 callsubr
          -263 -293 rmoveto
          93 callsubr
          593 6 rmoveto
          88 callsubr
          -209 -3 rmoveto
          89 callsubr
          152 -146 rmoveto
          90 callsubr
          endchar
        </CharString>
        <CharString name="florin">
          369 749 rmoveto
          -103 -57 -62 -87 hvcurveto
          -73 -85 -67 85 -437 vlineto
          0 -115 -32 -26 -70 -33 rrcurveto
          31 -60 rlineto
          108 49 46 45 0 156 rrcurveto
          421 119 vlineto
          10 67 -129 0 0 75 rlineto
          52 21 26 59 vhcurveto
          27 0 31 -5 33 -15 rrcurveto
          29 62 rlineto
          -42 19 -32 8 -49 0 rrcurveto
          endchar
        </CharString>
        <CharString name="four">
          528 235 rmoveto
          -89 195 -73 hlineto
          -7 -195 -198 0 183 435 -70 30 -202 -471 0 -62 286 0 0 -167 81 0 0 167 89 0 rlineto
          endchar
        </CharString>
        <CharString name="four.dnom">
          398 56 rmoveto
          83 callsubr
          endchar
        </CharString>
        <CharString name="four.numr">
          398 424 rmoveto
          83 callsubr
          endchar
        </CharString>
        <CharString name="four.tosf">
          546 107 rmoveto
          -100 184 -71 hlineto
          -6 -184 -217 0 183 437 -70 29 -202 -472 0 -60 305 0 -1 -147 79 0 0 147 100 0 rlineto
          endchar
        </CharString>
        <CharString name="fraction">
          -252 184 rmoveto
          93 callsubr
          endchar
        </CharString>
        <CharString name="g">
          529 582 rmoveto
          -32 callsubr
          -266 -27 rmoveto
          -31 callsubr
          endchar
        </CharString>
        <CharString name="gamma">
          472 538 rmoveto
          -168 -430 rlineto
          -40 187 -67 162 -69 80 rrcurveto
          -85 -30 rlineto
          81 -77 88 -224 44 -186 -29 -77 1 -91 33 -64 rrcurveto
          68 11 rlineto
          -16 86 -2 63 29 69 rrcurveto
          217 502 rlineto
          endchar
        </CharString>
        <CharString name="gbreve">
          291 630 rmoveto
          -44 callsubr
          238 -48 rmoveto
          -32 callsubr
          -266 -27 rmoveto
          -31 callsubr
          endchar
        </CharString>
        <CharString name="gcircumflex">
          170 629 rmoveto
          -43 callsubr
          399 -88 rmoveto
          -32 callsubr
          -266 -27 rmoveto
          -31 callsubr
          endchar
        </CharString>
        <CharString name="gcommaaccent">
          290 598 rmoveto
          -30 callsubr
          239 -16 rmoveto
          -32 callsubr
          -266 -27 rmoveto
          -31 callsubr
          endchar
        </CharString>
        <CharString name="gdotaccent">
          292 773 rmoveto
          -86 callsubr
          237 -191 rmoveto
          -32 callsubr
          -266 -27 rmoveto
          -31 callsubr
          endchar
        </CharString>
        <CharString name="germandbls">
          297 749 rmoveto
          -125 -76 -74 -142 hvcurveto
          -533 84 539 vlineto
          103 41 40 75 72 22 -49 -36 vhcurveto
          0 -74 -116 -9 0 -95 0 -131 198 3 0 -128 0 -72 -41 -34 -67 0 -29 0 -34 9 -24 15 rrcurveto
          -35 -58 rlineto
          35 -22 41 -12 54 0 100 0 86 62 0 116 0 168 -201 6 0 88 0 62 114 17 0 97 rrcurveto
          85 -71 59 -103 vhcurveto
          endchar
        </CharString>
        <CharString name="grave">
          387 622 rmoveto
          -42 callsubr
          endchar
        </CharString>
        <CharString name="grave.case">
          230 909 rmoveto
          -98 callsubr
          endchar
        </CharString>
        <CharString name="gravecomb">
          0 -380 797 rmoveto
          68 callsubr
          endchar
        </CharString>
        <CharString name="greater">
          129 594 rmoveto
          158 callsubr
          endchar
        </CharString>
        <CharString name="greater.tosf">
          129 594 rmoveto
          158 callsubr
          endchar
        </CharString>
        <CharString name="greater_equal.liga">
          -259 50 rmoveto
          549 244 0 80 -549 244 -30 -68 492 -216 -492 -216 rlineto
          567 9 rmoveto
          -548 -241 30 -68 548 244 rlineto
          endchar
        </CharString>
        <CharString name="greater_equal_greater.liga">
          206 616 rmoveto
          -63 -54 63 -68 rlineto
          15 -17 17 -17 30 -18 rrcurveto
          -1109 0 -154 174 -63 -54 175 -192 1202 0 53 -59 -53 -59 -1202 0 -175 -192 63 -54 154 174 1109 0 rlineto
          -30 -18 -17 -16 -15 -17 rrcurveto
          -63 -69 63 -54 271 305 rlineto
          endchar
        </CharString>
        <CharString name="greater_greater.liga">
          -479 582 rmoveto
          229 callsubr
          58 227 rmoveto
          229 callsubr
          endchar
        </CharString>
        <CharString name="greater_greater_equal.liga">
          394 442 rmoveto
          -979 0 -181 204 -63 -53 203 -223 1020 0 rlineto
          -1388 246 rmoveto
          130 callsubr
          1117 -59 rmoveto
          -1020 0 -203 -223 63 -53 181 204 979 0 rlineto
          endchar
        </CharString>
        <CharString name="greater_greater_greater.liga">
          -1029 582 rmoveto
          229 callsubr
          58 227 rmoveto
          229 callsubr
          58 227 rmoveto
          229 callsubr
          endchar
        </CharString>
        <CharString name="greater_greater_hyphen.liga">
          -1015 618 rmoveto
          130 callsubr
          1219 36 rmoveto
          -948 0 -239 269 -63 -54 229 -251 -229 -251 63 -54 239 269 948 0 rlineto
          endchar
        </CharString>
        <CharString name="greater_hyphen.liga">
          475 349 rmoveto
          -651 0 -239 269 -63 -54 229 -251 -229 -251 63 -54 239 269 651 0 rlineto
          endchar
        </CharString>
        <CharString name="greater_hyphen_greater.liga">
          207 618 rmoveto
          -55 -47 150 -163 rlineto
          28 -31 8 -9 28 -18 rrcurveto
          -1122 0 -238 268 -63 -54 229 -251 -229 -251 63 -54 238 268 1122 0 rlineto
          -24 -16 -20 -20 -20 -22 rrcurveto
          -150 -163 55 -47 272 305 rlineto
          endchar
        </CharString>
        <CharString name="greaterequal">
          140 547 rmoveto
          159 callsubr
          -312 vmoveto
          160 callsubr
          endchar
        </CharString>
        <CharString name="greaterequal.tosf">
          140 547 rmoveto
          159 callsubr
          -312 vmoveto
          160 callsubr
          endchar
        </CharString>
        <CharString name="guillemotleft">
          309 87 rmoveto
          118 callsubr
          259 32 rmoveto
          119 callsubr
          endchar
        </CharString>
        <CharString name="guillemotleft.case">
          309 132 rmoveto
          118 callsubr
          259 32 rmoveto
          119 callsubr
          endchar
        </CharString>
        <CharString name="guillemotright">
          217 294 rmoveto
          120 callsubr
          342 -206 rmoveto
          121 callsubr
          endchar
        </CharString>
        <CharString name="guillemotright.case">
          217 339 rmoveto
          120 callsubr
          342 -206 rmoveto
          121 callsubr
          endchar
        </CharString>
        <CharString name="guilsinglleft">
          412 87 rmoveto
          122 callsubr
          endchar
        </CharString>
        <CharString name="guilsinglleft.case">
          412 132 rmoveto
          122 callsubr
          endchar
        </CharString>
        <CharString name="guilsinglright">
          322 294 rmoveto
          123 callsubr
          endchar
        </CharString>
        <CharString name="guilsinglright.case">
          322 339 rmoveto
          123 callsubr
          endchar
        </CharString>
        <CharString name="h">
          184 747 rmoveto
          -29 callsubr
          endchar
        </CharString>
        <CharString name="hbar">
          353 538 rmoveto
          -28 callsubr
          endchar
        </CharString>
        <CharString name="hcircumflex">
          329 960 rmoveto
          -101 callsubr
          -279 -106 rmoveto
          -29 callsubr
          endchar
        </CharString>
        <CharString name="heart">
          434 539 rmoveto
          -69 0 -35 -37 -30 -65 -30 65 -35 37 -69 0 -73 0 -43 -57 0 -67 0 -118 110 -131 140 -166 140 166 110 132 0 117 0 67 -43 57 -73 0 rrcurveto
          endchar
        </CharString>
        <CharString name="house">
          299 539 rmoveto
          -259 -231 0 -308 520 0 0 308 rlineto
          -261 140 rmoveto
          191 -171 0 -212 -380 0 0 212 rlineto
          endchar
        </CharString>
        <CharString name="hungarumlaut">
          137 662 rmoveto
          -68 callsubr
          87 -174 rmoveto
          -67 callsubr
          endchar
        </CharString>
        <CharString name="hungarumlaut.case">
          136 781 rmoveto
          -68 callsubr
          87 -174 rmoveto
          -67 callsubr
          endchar
        </CharString>
        <CharString name="hyphen">
          100 277 rmoveto
          400 72 -400 hlineto
          endchar
        </CharString>
        <CharString name="hyphen.case">
          100 317 rmoveto
          400 72 -400 hlineto
          endchar
        </CharString>
        <CharString name="hyphen.lc">
          100 237 rmoveto
          400 72 -400 hlineto
          endchar
        </CharString>
        <CharString name="hyphen_asciitilde.liga">
          417 386 rmoveto
          -26 -48 -32 -37 -41 0 -61 0 -32 100 -100 0 -82 0 -5 -51 -80 -1 rrcurveto
          -433 -72 449 hlineto
          75 0 10 51 63 0 64 0 35 -100 94 0 88 0 44 69 30 57 rrcurveto
          endchar
        </CharString>
        <CharString name="hyphen_greater.liga">
          206 618 rmoveto
          -63 -54 143 -156 rlineto
          28 -31 7 -9 29 -18 rrcurveto
          -825 -74 825 hlineto
          -24 -16 -20 -20 -20 -22 rrcurveto
          -143 -156 63 -54 271 305 rlineto
          endchar
        </CharString>
        <CharString name="hyphen_greater_greater.liga">
          -98 618 rmoveto
          -62 -54 143 -156 rlineto
          27 -31 8 -9 28 -18 rrcurveto
          -1121 -74 1122 hlineto
          -25 -16 -20 -20 -19 -22 rrcurveto
          -143 -156 62 -54 272 305 rlineto
          32 305 rmoveto
          130 callsubr
          endchar
        </CharString>
        <CharString name="hyphen_hyphen.liga">
          -424 277 rmoveto
          380 72 -380 hlineto
          468 -72 rmoveto
          380 72 -380 hlineto
          endchar
        </CharString>
        <CharString name="hyphen_hyphen_greater.liga">
          206 618 rmoveto
          -63 -54 143 -156 rlineto
          28 -31 7 -9 29 -18 rrcurveto
          -1425 -74 1425 hlineto
          -24 -16 -20 -20 -20 -22 rrcurveto
          -143 -156 63 -54 271 305 rlineto
          endchar
        </CharString>
        <CharString name="hyphen_hyphen_hyphen.liga">
          -1023 277 rmoveto
          431 72 -431 hlineto
          508 -72 rmoveto
          430 72 -430 hlineto
          507 -72 rmoveto
          431 72 -431 hlineto
          endchar
        </CharString>
        <CharString name="hyphen_less.liga">
          478 564 rmoveto
          -63 54 -239 -269 -651 0 0 -72 651 0 239 -269 63 54 -229 251 rlineto
          endchar
        </CharString>
        <CharString name="hyphen_less_less.liga">
          175 564 rmoveto
          -63 54 -239 -269 -948 0 0 -72 948 0 239 -269 63 54 -229 251 rlineto
          532 251 rmoveto
          131 callsubr
          endchar
        </CharString>
        <CharString name="i">
          300 773 rmoveto
          -27 callsubr
          67 -246 rmoveto
          -26 callsubr
          endchar
        </CharString>
        <CharString name="i.loclTRK">
          300 773 rmoveto
          -86 callsubr
          67 -246 rmoveto
          -26 callsubr
          endchar
        </CharString>
        <CharString name="iacute">
          385 797 rmoveto
          -45 callsubr
          -56 -198 rmoveto
          -26 callsubr
          endchar
        </CharString>
        <CharString name="ibreve">
          299 630 rmoveto
          -44 callsubr
          68 -103 rmoveto
          -26 callsubr
          endchar
        </CharString>
        <CharString name="icircumflex">
          178 629 rmoveto
          -43 callsubr
          229 -143 rmoveto
          -26 callsubr
          endchar
        </CharString>
        <CharString name="idieresis">
          197 648 rmoveto
          -100 callsubr
          207 hmoveto
          -99 callsubr
          -37 -121 rmoveto
          -26 callsubr
          endchar
        </CharString>
        <CharString name="igrave">
          388 622 rmoveto
          -42 callsubr
          182 -188 rmoveto
          -26 callsubr
          endchar
        </CharString>
        <CharString name="ij">
          184 773 rmoveto
          -25 callsubr
          264 hmoveto
          -25 callsubr
          52 -246 rmoveto
          -447 -65 89 -395 -94 -67 271 67 -96 395 195 -412 hlineto
          0 -111 -103 -49 -95 -36 rrcurveto
          25 -66 rlineto
          141 46 114 76 0 145 rrcurveto
          endchar
        </CharString>
        <CharString name="imacron">
          435 676 rmoveto
          -97 callsubr
          201 -149 rmoveto
          -26 callsubr
          endchar
        </CharString>
        <CharString name="infinity">
          452 512 rmoveto
          166 callsubr
          -303 -68 rmoveto
          167 callsubr
          301 -1 rmoveto
          168 callsubr
          endchar
        </CharString>
        <CharString name="infinity.case">
          452 552 rmoveto
          166 callsubr
          -303 -68 rmoveto
          167 callsubr
          301 -1 rmoveto
          168 callsubr
          endchar
        </CharString>
        <CharString name="infinity.tosf">
          452 512 rmoveto
          166 callsubr
          -303 -68 rmoveto
          167 callsubr
          301 -1 rmoveto
          168 callsubr
          endchar
        </CharString>
        <CharString name="integral">
          400 851 rmoveto
          169 callsubr
          endchar
        </CharString>
        <CharString name="integral.tosf">
          400 851 rmoveto
          169 callsubr
          endchar
        </CharString>
        <CharString name="integralbt">
          333 1000 rmoveto
          -81 -1073 hlineto
          -43 -23 -26 -42 vhcurveto
          -27 0 -22 4 -33 15 rrcurveto
          -28 -63 rlineto
          40 -18 26 -8 50 0 rrcurveto
          87 53 45 93 hvcurveto
          endchar
        </CharString>
        <CharString name="integraltp">
          400 851 rmoveto
          -91 -57 -47 -99 hvcurveto
          -1205 81 1204 vlineto
          49 16 29 56 vhcurveto
          28 0 28 -5 34 -15 rrcurveto
          28 63 rlineto
          -42 19 -32 7 -49 0 rrcurveto
          endchar
        </CharString>
        <CharString name="intersection">
          300 574 rmoveto
          -125 -101 -100 -126 hvcurveto
          -306 72 306 vlineto
          84 70 70 84 84 70 -70 -84 vhcurveto
          -306 72 306 vlineto
          126 -101 100 -125 vhcurveto
          endchar
        </CharString>
        <CharString name="invcircle">
          570 540 rmoveto
          196 callsubr
          -270 500 rmoveto
          126 104 -104 -126 -127 -104 -103 -126 -127 -103 103 127 126 103 104 127 hvcurveto
          -80 vmoveto
          -83 -67 -68 -82 -83 67 -67 83 82 68 67 83 82 -68 68 -82 hvcurveto
          endchar
        </CharString>
        <CharString name="invsmileface">
          300 539 rmoveto
          207 callsubr
          -87 -143 rmoveto
          210 callsubr
          170 hmoveto
          210 callsubr
          64 -161 rmoveto
          -9 -73 -59 -60 -79 0 -79 0 -59 60 -9 73 rrcurveto
          43 hlineto
          13 -52 34 -37 57 0 57 0 34 37 13 52 rrcurveto
          endchar
        </CharString>
        <CharString name="iogonek">
          300 655 rmoveto
          37 24 25 34 34 -24 25 -37 -36 -24 -25 -34 -34 24 -25 36 hvcurveto
          67 -588 rmoveto
          460 -241 -67 157 -393 -162 -67 150 vlineto
          -72 -35 -33 -43 0 -53 0 -56 46 -42 76 0 27 0 16 3 21 3 rrcurveto
          8 68 rlineto
          -24 -5 -16 -2 -21 0 -42 0 -14 18 0 30 0 35 21 34 103 45 rrcurveto
          148 67 hlineto
          endchar
        </CharString>
        <CharString name="iota">
          240 455 rmoveto
          57 callsubr
          endchar
        </CharString>
        <CharString name="iotadieresis">
          180 648 rmoveto
          -100 callsubr
          207 hmoveto
          -99 callsubr
          -147 -193 rmoveto
          57 callsubr
          endchar
        </CharString>
        <CharString name="iotadieresistonos">
          282 914 rmoveto
          63 callsubr
          -189 -160 rmoveto
          64 callsubr
          203 hmoveto
          65 callsubr
          -145 -280 rmoveto
          57 callsubr
          endchar
        </CharString>
        <CharString name="iotatonos">
          291 808 rmoveto
          62 callsubr
          -140 -336 rmoveto
          57 callsubr
          endchar
        </CharString>
        <CharString name="itilde">
          359 659 rmoveto
          -94 callsubr
          8 -132 rmoveto
          -26 callsubr
          endchar
        </CharString>
        <CharString name="j">
          367 773 rmoveto
          -24 callsubr
          78 -246 rmoveto
          -23 callsubr
          endchar
        </CharString>
        <CharString name="jcircumflex">
          245 629 rmoveto
          -43 callsubr
          240 -143 rmoveto
          -23 callsubr
          endchar
        </CharString>
        <CharString name="k">
          190 749 rmoveto
          -84 -10 0 -739 84 0 rlineto
          351 527 rmoveto
          -22 callsubr
          endchar
        </CharString>
        <CharString name="kappa">
          457 538 rmoveto
          -257 -256 198 -215 rlineto
          40 -42 36 -28 57 -8 rrcurveto
          30 69 rlineto
          -42 9 -26 18 -43 44 rrcurveto
          -147 156 224 204 rlineto
          -358 38 rmoveto
          -82 hlineto
          16 -60 9 -58 0 -69 rrcurveto
          -340 84 325 vlineto
          0 60 -4 77 -23 65 rrcurveto
          endchar
        </CharString>
        <CharString name="kcommaaccent">
          190 749 rmoveto
          -84 -10 0 -739 84 0 rlineto
          351 527 rmoveto
          -22 callsubr
          4 -360 rmoveto
          -79 callsubr
          endchar
        </CharString>
        <CharString name="kgreenlandic">
          184 527 rmoveto
          -84 -527 84 hlineto
          352 527 rmoveto
          -109 0 -233 -244 259 -283 110 0 -266 288 rlineto
          endchar
        </CharString>
        <CharString name="l">
          306 739 rmoveto
          -21 callsubr
          endchar
        </CharString>
        <CharString name="lacute">
          349 1009 rmoveto
          -45 callsubr
          -81 -198 rmoveto
          -21 callsubr
          endchar
        </CharString>
        <CharString name="lambda">
          242 527 rmoveto
          -194 -522 81 -18 168 475 rlineto
          46 -227 56 -155 73 -91 rrcurveto
          87 32 rlineto
          -81 81 -50 161 -56 236 -39 161 -64 69 -155 22 rrcurveto
          -13 -66 rlineto
          109 -17 38 -48 28 -93 rrcurveto
          endchar
        </CharString>
        <CharString name="lcaron">
          383 748 rmoveto
          -73 callsubr
          -153 1 rmoveto
          -21 callsubr
          endchar
        </CharString>
        <CharString name="lcommaaccent">
          306 739 rmoveto
          -21 callsubr
          58 -201 rmoveto
          -79 callsubr
          endchar
        </CharString>
        <CharString name="ldot">
          306 739 rmoveto
          -21 callsubr
          254 310 rmoveto
          -86 callsubr
          endchar
        </CharString>
        <CharString name="less">
          472 594 rmoveto
          133 callsubr
          endchar
        </CharString>
        <CharString name="less.tosf">
          472 594 rmoveto
          133 callsubr
          endchar
        </CharString>
        <CharString name="less_asciitilde.liga">
          257 401 rmoveto
          -115 0 -17 -100 -68 0 -68 0 -17 106 -115 0 -113 0 -2 -72 -83 -8 rrcurveto
          23 vlineto
          24 16 20 20 20 22 rrcurveto
          143 156 -63 54 -271 -305 271 -305 63 54 -143 156 rlineto
          -11 13 -8 9 -8 7 85 13 16 69 60 0 68 0 17 -100 115 0 115 0 17 100 68 0 37 0 37 -36 23 -46 rrcurveto
          71 35 rlineto
          -20 49 -75 70 -73 0 rrcurveto
          endchar
        </CharString>
        <CharString name="less_asciitilde_asciitilde.liga">
          448 379 rmoveto
          -23 -46 -38 -36 -36 0 -69 0 -17 100 -114 0 -115 0 -17 -100 -68 0 -69 0 -17 100 -114 0 -113 0 -19 -100 -68 0 -69 0 -17 100 -114 0 rrcurveto
          -115 0 -17 -100 -68 0 -61 0 -15 70 -87 12 rrcurveto
          26 29 143 156 -63 54 -271 -305 271 -305 63 54 -143 156 rlineto
          -20 22 -20 20 -24 16 rrcurveto
          0 74 3 2 0 -53 rlineto
          83 -8 2 -72 113 0 114 0 17 106 69 0 68 0 17 -100 115 0 113 0 19 89 68 0 69 0 16 -95 115 0 114 0 17 106 69 0 rrcurveto
          68 0 17 -100 115 0 73 0 75 70 20 49 rrcurveto
          endchar
        </CharString>
        <CharString name="less_asciitilde_greater.liga">
          -628 594 rmoveto
          133 callsubr
          616 64 rmoveto
          158 callsubr
          -325 30 rmoveto
          234 callsubr
          endchar
        </CharString>
        <CharString name="less_asterisk.liga">
          207 631 rmoveto
          124 callsubr
          -333 -12 rmoveto
          230 callsubr
          endchar
        </CharString>
        <CharString name="less_asterisk_greater.liga">
          -343 631 rmoveto
          124 callsubr
          -333 -12 rmoveto
          230 callsubr
          575 89 rmoveto
          125 callsubr
          endchar
        </CharString>
        <CharString name="less_bar.liga">
          231 712 rmoveto
          231 callsubr
          -76 -711 rmoveto
          232 callsubr
          endchar
        </CharString>
        <CharString name="less_bar_bar.liga">
          -319 712 rmoveto
          231 callsubr
          323 hmoveto
          -801 76 801 vlineto
          -475 -711 rmoveto
          232 callsubr
          endchar
        </CharString>
        <CharString name="less_bar_bar_bar.liga">
          -869 712 rmoveto
          231 callsubr
          364 hmoveto
          -801 76 801 vlineto
          384 hmoveto
          -801 76 801 vlineto
          -976 -711 rmoveto
          232 callsubr
          endchar
        </CharString>
        <CharString name="less_bar_greater.liga">
          -263 724 rmoveto
          -75 -826 75 hlineto
          -190 743 rmoveto
          -459 -284 0 -87 459 -286 0 90 -387 239 387 239 rlineto
          305 89 rmoveto
          0 -89 389 -239 -389 -240 0 -90 461 287 0 86 rlineto
          endchar
        </CharString>
        <CharString name="less_dollar.liga">
          488 530 rmoveto
          89 vlineto
          -68 44 -95 31 -79 8 rrcurveto
          146 -68 -145 vlineto
          -123 -12 -60 -83 0 -80 0 -93 66 -59 117 -39 rrcurveto
          -317 vlineto
          -66 -4 -52 8 -117 70 rrcurveto
          -353 219 297 181 15 100 -384 -237 0 -87 425 -265 rlineto
          99 -53 49 -12 87 3 rrcurveto
          -96 68 98 vlineto
          124 18 93 88 0 126 0 124 -117 67 -100 33 rrcurveto
          235 vlineto
          50 -6 72 -23 120 -77 rrcurveto
          -310 -107 rmoveto
          223 callsubr
          194 -457 rmoveto
          224 callsubr
          endchar
        </CharString>
        <CharString name="less_dollar_greater.liga">
          -12 619 rmoveto
          -68 44 -95 31 -79 8 rrcurveto
          146 -68 -145 vlineto
          -123 -12 -60 -83 0 -80 0 -93 66 -59 117 -39 rrcurveto
          -317 vlineto
          -66 -4 -52 8 -117 70 rrcurveto
          -353 219 297 181 15 100 -384 -237 0 -87 425 -265 rlineto
          99 -53 49 -12 87 3 rrcurveto
          -96 68 98 vlineto
          124 18 93 88 0 126 0 124 -117 67 -100 33 rrcurveto
          235 vlineto
          50 -6 72 -23 120 -77 rrcurveto
          353 -217 -276 -168 -22 -108 370 233 0 86 rlineto
          -735 67 rmoveto
          223 callsubr
          194 -457 rmoveto
          224 callsubr
          endchar
        </CharString>
        <CharString name="less_equal.liga">
          289 550 rmoveto
          226 callsubr
          -105 -272 rmoveto
          227 callsubr
          endchar
        </CharString>
        <CharString name="less_equal_equal.liga">
          473 370 rmoveto
          72 -1391 vlineto
          30 18 17 17 15 17 rrcurveto
          63 68 -63 54 -271 -305 271 -305 63 54 -63 69 rlineto
          -15 17 -17 16 -30 18 rrcurveto
          1391 72 -1442 hlineto
          -53 59 53 59 rlineto
          endchar
        </CharString>
        <CharString name="less_equal_greater.liga">
          256 616 rmoveto
          -63 -54 63 -68 rlineto
          15 -17 17 -17 30 -18 rrcurveto
          -1236 hlineto
          30 18 17 17 15 17 rrcurveto
          63 68 -63 54 -271 -305 271 -305 63 54 -63 69 rlineto
          -15 17 -17 16 -30 18 rrcurveto
          1236 hlineto
          -30 -18 -17 -16 -15 -17 rrcurveto
          -63 -69 63 -54 271 305 rlineto
          -1496 -59 rmoveto
          -53 59 53 59 1338 0 53 -59 -53 -59 rlineto
          endchar
        </CharString>
        <CharString name="less_equal_less.liga">
          -919 252 rmoveto
          -53 59 53 59 1202 0 175 192 -63 54 -154 -174 -1109 0 rlineto
          30 18 17 17 15 17 rrcurveto
          63 68 -63 54 -271 -305 271 -305 63 54 -63 69 rlineto
          -15 17 -17 16 -30 18 rrcurveto
          1109 0 154 -174 63 54 -175 192 rlineto
          endchar
        </CharString>
        <CharString name="less_exclam_hyphen_hyphen.liga">
          -1155 689 rmoveto
          101 callsubr
          -342 391 rmoveto
          -271 -305 271 -305 63 54 -143 156 rlineto
          -20 22 -20 20 -24 16 rrcurveto
          302 74 -302 hlineto
          29 18 7 9 28 31 rrcurveto
          143 156 rlineto
          399 -287 rmoveto
          1519 72 -1519 hlineto
          -157 -226 rmoveto
          102 callsubr
          endchar
        </CharString>
        <CharString name="less_greater.liga">
          642 vmoveto
          -462 -285 0 -87 462 -289 463 289 0 86 rlineto
          -463 -285 rmoveto
          -390 242 390 240 391 -240 rlineto
          endchar
        </CharString>
        <CharString name="less_hyphen.liga">
          -206 618 rmoveto
          -271 -305 271 -305 63 54 -143 156 rlineto
          -20 22 -20 20 -24 16 rrcurveto
          825 74 -825 hlineto
          29 18 7 9 28 31 rrcurveto
          143 156 rlineto
          endchar
        </CharString>
        <CharString name="less_hyphen_greater.liga">
          206 618 rmoveto
          -63 -54 143 -156 rlineto
          28 -31 7 -9 29 -18 rrcurveto
          -1300 hlineto
          29 18 7 9 28 31 rrcurveto
          143 156 -63 54 -271 -305 271 -305 63 54 -143 156 rlineto
          -20 22 -20 20 -24 16 rrcurveto
          1300 hlineto
          -24 -16 -20 -20 -20 -22 rrcurveto
          -143 -156 63 -54 271 305 rlineto
          endchar
        </CharString>
        <CharString name="less_hyphen_hyphen.liga">
          -806 618 rmoveto
          -271 -305 271 -305 63 54 -143 156 rlineto
          -20 22 -20 20 -24 16 rrcurveto
          1425 74 -1425 hlineto
          29 18 7 9 28 31 rrcurveto
          143 156 rlineto
          endchar
        </CharString>
        <CharString name="less_hyphen_less.liga">
          457 564 rmoveto
          -63 54 -238 -268 -1122 0 rlineto
          28 18 8 9 28 31 rrcurveto
          150 163 -55 47 -272 -305 272 -305 55 47 -150 163 rlineto
          -20 22 -20 20 -24 16 rrcurveto
          1122 0 238 -268 63 54 -229 251 rlineto
          endchar
        </CharString>
        <CharString name="less_less.liga">
          -21 582 rmoveto
          233 callsubr
          467 65 rmoveto
          233 callsubr
          endchar
        </CharString>
        <CharString name="less_less_equal.liga">
          -743 562 rmoveto
          131 callsubr
          1445 59 rmoveto
          72 -1088 vlineto
          30 18 17 17 15 17 rrcurveto
          63 68 -63 54 -271 -305 271 -305 63 54 -63 69 rlineto
          -15 17 -17 16 -30 18 rrcurveto
          1088 72 -1139 hlineto
          -53 59 53 59 rlineto
          endchar
        </CharString>
        <CharString name="less_less_hyphen.liga">
          -806 618 rmoveto
          228 callsubr
          241 54 rmoveto
          -272 -305 272 -305 62 54 -143 156 rlineto
          -19 22 -20 20 -25 16 rrcurveto
          1122 74 -1121 hlineto
          28 18 8 9 27 31 rrcurveto
          143 156 rlineto
          endchar
        </CharString>
        <CharString name="less_less_less.liga">
          -571 582 rmoveto
          233 callsubr
          467 65 rmoveto
          233 callsubr
          467 65 rmoveto
          233 callsubr
          endchar
        </CharString>
        <CharString name="less_plus.liga">
          -37 619 rmoveto
          230 callsubr
          325 65 rmoveto
          225 callsubr
          endchar
        </CharString>
        <CharString name="less_plus_greater.liga">
          -587 619 rmoveto
          230 callsubr
          575 89 rmoveto
          125 callsubr
          -675 239 rmoveto
          225 callsubr
          endchar
        </CharString>
        <CharString name="less_slash.liga">
          380 809 rmoveto
          -375 -772 -445 276 353 217 -41 64 -384 -237 0 -87 484 -301 -42 -87 68 -30 449 925 rlineto
          endchar
        </CharString>
        <CharString name="less_slash_greater.liga">
          -102 675 rmoveto
          49 102 -67 32 -375 -772 -445 276 353 217 -41 64 -384 -237 0 -87 484 -301 -42 -87 68 -30 367 755 476 -294 -353 -218 45 -62 rlineto
          380 237 0 86 rlineto
          endchar
        </CharString>
        <CharString name="lessequal">
          458 547 rmoveto
          161 callsubr
          -18 -405 rmoveto
          160 callsubr
          endchar
        </CharString>
        <CharString name="lessequal.tosf">
          458 547 rmoveto
          161 callsubr
          -18 -405 rmoveto
          160 callsubr
          endchar
        </CharString>
        <CharString name="lfblock">
          300 1000 rmoveto
          -300 -1500 300 hlineto
          endchar
        </CharString>
        <CharString name="logicalnot">
          484 348 rmoveto
          -368 -72 291 -142 77 hlineto
          endchar
        </CharString>
        <CharString name="logicalnot.tosf">
          484 348 rmoveto
          -368 -72 291 -142 77 hlineto
          endchar
        </CharString>
        <CharString name="lozenge">
          349 689 rmoveto
          198 callsubr
          -231 279 rmoveto
          199 callsubr
          endchar
        </CharString>
        <CharString name="lozenge.tosf">
          349 689 rmoveto
          198 callsubr
          -231 279 rmoveto
          199 callsubr
          endchar
        </CharString>
        <CharString name="lslash">
          481 77 rmoveto
          -29 -11 -28 -7 -31 0 rrcurveto
          -51 -36 19 52 hvcurveto
          0 227 125 78 -36 54 -89 -56 0 306 -246 0 0 -67 162 0 0 -291 -104 -62 36 -54 68 41 0 -172 rlineto
          -91 63 -54 93 vhcurveto
          54 0 43 12 28 15 rrcurveto
          endchar
        </CharString>
        <CharString name="ltshade">
          100 925 rmoveto
          -50 -75 50 hlineto
          100 75 rmoveto
          -50 -75 50 hlineto
          100 75 rmoveto
          -50 -75 50 hlineto
          100 75 rmoveto
          -50 -75 50 hlineto
          100 75 rmoveto
          -50 -75 50 hlineto
          100 75 rmoveto
          -50 -75 50 hlineto
          -500 -75 rmoveto
          -50 -75 50 hlineto
          100 75 rmoveto
          -50 -75 50 hlineto
          100 75 rmoveto
          -50 -75 50 hlineto
          100 75 rmoveto
          -50 -75 50 hlineto
          100 75 rmoveto
          -50 -75 50 hlineto
          100 75 rmoveto
          -50 -75 50 hlineto
          -500 -75 rmoveto
          -50 -75 50 hlineto
          100 75 rmoveto
          -50 -75 50 hlineto
          100 75 rmoveto
          -50 -75 50 hlineto
          100 75 rmoveto
          -50 -75 50 hlineto
          100 75 rmoveto
          -50 -75 50 hlineto
          100 75 rmoveto
          -50 -75 50 hlineto
          -500 -75 rmoveto
          -50 -75 50 hlineto
          100 75 rmoveto
          -50 -75 50 hlineto
          100 75 rmoveto
          -50 -75 50 hlineto
          100 75 rmoveto
          -50 -75 50 hlineto
          100 75 rmoveto
          -50 -75 50 hlineto
          100 75 rmoveto
          -50 -75 50 hlineto
          -500 -75 rmoveto
          -50 -75 50 hlineto
          100 75 rmoveto
          -50 -75 50 hlineto
          100 75 rmoveto
          -50 -75 50 hlineto
          100 75 rmoveto
          -50 -75 50 hlineto
          100 75 rmoveto
          -50 -75 50 hlineto
          100 75 rmoveto
          -50 -75 50 hlineto
          -500 -75 rmoveto
          -50 -75 50 hlineto
          100 75 rmoveto
          -50 -75 50 hlineto
          100 75 rmoveto
          -50 -75 50 hlineto
          100 75 rmoveto
          -50 -75 50 hlineto
          100 75 rmoveto
          -50 -75 50 hlineto
          100 75 rmoveto
          -50 -75 50 hlineto
          -500 -75 rmoveto
          -50 -75 50 hlineto
          100 75 rmoveto
          -50 -75 50 hlineto
          100 75 rmoveto
          -50 -75 50 hlineto
          100 75 rmoveto
          -50 -75 50 hlineto
          100 75 rmoveto
          -50 -75 50 hlineto
          100 75 rmoveto
          -50 -75 50 hlineto
          -500 -75 rmoveto
          -50 -75 50 hlineto
          100 75 rmoveto
          -50 -75 50 hlineto
          100 75 rmoveto
          -50 -75 50 hlineto
          100 75 rmoveto
          -50 -75 50 hlineto
          100 75 rmoveto
          -50 -75 50 hlineto
          100 75 rmoveto
          -50 -75 50 hlineto
          -500 -75 rmoveto
          -50 -75 50 hlineto
          100 75 rmoveto
          -50 -75 50 hlineto
          100 75 rmoveto
          -50 -75 50 hlineto
          100 75 rmoveto
          -50 -75 50 hlineto
          100 75 rmoveto
          -50 -75 50 hlineto
          100 75 rmoveto
          -50 -75 50 hlineto
          -500 -75 rmoveto
          -50 -75 50 hlineto
          100 75 rmoveto
          -50 -75 50 hlineto
          100 75 rmoveto
          -50 -75 50 hlineto
          100 75 rmoveto
          -50 -75 50 hlineto
          100 75 rmoveto
          -50 -75 50 hlineto
          100 75 rmoveto
          -50 -75 50 hlineto
          endchar
        </CharString>
        <CharString name="m">
          447 538 rmoveto
          -53 0 -34 -28 -29 -42 -16 54 -39 16 -40 0 -53 0 -33 -32 -28 -41 rrcurveto
          -6 62 -65 0 0 -527 77 0 0 409 rlineto
          29 45 30 18 33 0 rrcurveto
          38 3 -27 -67 hvcurveto
          -378 78 409 vlineto
          29 45 31 18 32 0 rrcurveto
          38 3 -27 -67 hvcurveto
          -378 77 392 vlineto
          121 -51 25 -51 vhcurveto
          endchar
        </CharString>
        <CharString name="macron">
          434 676 rmoveto
          -97 callsubr
          endchar
        </CharString>
        <CharString name="macron.case">
          433 795 rmoveto
          -97 callsubr
          endchar
        </CharString>
        <CharString name="male">
          315 487 rmoveto
          -4 -42 100 -4 rlineto
          18 -1 13 0 16 1 rrcurveto
          1 -2 -152 -151 rlineto
          -25 15 -30 10 -32 0 rrcurveto
          -89 -71 -69 -89 -89 71 -66 89 89 72 66 89 hvcurveto
          0 39 -14 35 -23 28 rrcurveto
          148 151 2 -1 rlineto
          -3 -16 -1 -15 1 -17 rrcurveto
          5 -99 44 2 -11 214 rlineto
          -309 -209 rmoveto
          211 callsubr
          endchar
        </CharString>
        <CharString name="minus">
          484 350 rmoveto
          -368 -75 368 hlineto
          endchar
        </CharString>
        <CharString name="minus.dnom">
          417 195 rmoveto
          152 callsubr
          endchar
        </CharString>
        <CharString name="minus.numr">
          417 563 rmoveto
          152 callsubr
          endchar
        </CharString>
        <CharString name="minus.tosf">
          484 350 rmoveto
          -368 -75 368 hlineto
          endchar
        </CharString>
        <CharString name="multiply">
          423 483 rmoveto
          154 callsubr
          endchar
        </CharString>
        <CharString name="multiply.tosf">
          423 483 rmoveto
          154 callsubr
          endchar
        </CharString>
        <CharString name="musicalnote">
          338 527 rmoveto
          -48 -392 hlineto
          -15 8 -18 5 -23 0 rrcurveto
          -70 -55 -40 -50 -46 40 -24 65 73 51 50 40 hvcurveto
          0 382 23 -15 rlineto
          45 -29 13 -30 0 -79 rrcurveto
          29 -12 rlineto
          10 21 8 27 0 30 0 53 -21 30 -60 40 rrcurveto
          endchar
        </CharString>
        <CharString name="musicalnotedbl">
          536 577 rmoveto
          -331 -86 0 -356 rlineto
          -15 8 -18 5 -23 0 rrcurveto
          -70 -55 -40 -50 -46 40 -24 65 73 51 50 40 hvcurveto
          0 359 235 59 0 -311 rlineto
          -15 8 -18 5 -23 0 rrcurveto
          -70 -55 -40 -50 -46 40 -24 65 73 51 50 40 hvcurveto
          endchar
        </CharString>
        <CharString name="n">
          100 hmoveto
          -20 callsubr
          endchar
        </CharString>
        <CharString name="nacute">
          384 797 rmoveto
          -45 callsubr
          -322 -725 rmoveto
          -20 callsubr
          endchar
        </CharString>
        <CharString name="nacute.loclPLK">
          354 771 rmoveto
          -1 callsubr
          -320 -728 rmoveto
          -20 callsubr
          endchar
        </CharString>
        <CharString name="napostrophe">
          63 752 rmoveto
          -30 -25 -23 -31 hvcurveto
          0 -18 9 -15 14 -12 rrcurveto
          -30 -119 50 0 41 87 rlineto
          21 45 5 16 0 16 rrcurveto
          31 -24 23 -31 vhcurveto
          46 -752 rmoveto
          -20 callsubr
          endchar
        </CharString>
        <CharString name="ncaron">
          425 789 rmoveto
          -37 callsubr
          -363 -748 rmoveto
          -20 callsubr
          endchar
        </CharString>
</ttFont>
